{"glyphs":{"0":{"ha":819,"x_min":76,"x_max":743,"o":"m 604 486 q 595 625 604 558 q 564 743 586 692 q 504 824 542 794 q 410 854 467 854 q 315 824 353 854 q 256 743 278 794 q 224 625 233 692 q 215 486 215 558 q 224 347 215 413 q 256 229 233 281 q 315 148 278 178 q 410 118 353 118 q 504 148 467 118 q 564 229 542 178 q 595 347 586 281 q 604 486 604 413 m 76 486 q 94 681 76 590 q 152 840 113 772 q 255 947 192 907 q 410 986 318 986 q 565 947 501 986 q 667 840 628 907 q 725 681 707 772 q 743 486 743 590 q 725 291 743 382 q 667 133 707 200 q 565 26 628 65 q 410 -14 501 -14 q 255 26 318 -14 q 152 133 192 65 q 94 291 113 200 q 76 486 76 382 z "},"1":{"ha":563,"x_min":69,"x_max":396,"o":"m 69 704 l 69 842 l 299 972 l 396 972 l 396 0 l 257 0 l 257 799 l 69 704 z "},"2":{"ha":722,"x_min":49,"x_max":632,"o":"m 50 765 q 104 877 69 833 q 180 944 139 921 q 263 977 221 968 q 336 986 304 986 q 454 963 400 986 q 548 899 508 939 q 610 806 588 860 q 632 693 632 753 q 595 539 632 608 q 506 408 558 469 l 261 132 l 632 132 l 632 0 l 49 0 l 49 90 l 381 469 q 465 583 438 535 q 493 693 493 632 q 482 753 493 724 q 451 805 471 782 q 402 841 431 828 q 339 854 374 854 q 233 818 272 854 q 174 725 193 782 l 50 765 z "},"3":{"ha":750,"x_min":35,"x_max":674,"o":"m 150 219 q 223 146 174 174 q 333 118 272 118 q 411 133 375 118 q 475 175 447 149 q 519 238 503 201 q 535 319 535 275 q 519 400 535 363 q 476 464 504 438 q 409 506 447 490 q 325 521 371 521 q 254 515 285 521 q 213 506 224 508 l 213 596 l 419 840 l 83 840 l 83 972 l 625 972 l 625 882 l 411 636 q 515 600 467 628 q 598 531 563 572 q 653 435 633 489 q 674 319 674 381 q 647 186 674 247 q 576 81 621 125 q 470 11 531 36 q 342 -14 410 -14 q 160 28 242 -14 q 35 153 78 71 l 150 219 z "},"4":{"ha":785,"x_min":21,"x_max":771,"o":"m 21 326 l 521 972 l 618 972 l 618 368 l 771 368 l 771 236 l 618 236 l 618 0 l 479 0 l 479 236 l 21 236 l 21 326 m 479 368 l 479 696 l 218 368 l 479 368 z "},"5":{"ha":764,"x_min":56,"x_max":674,"o":"m 278 840 l 250 636 q 295 648 272 643 q 342 653 318 653 q 474 626 413 653 q 579 554 535 600 q 649 448 624 508 q 674 319 674 388 q 649 191 674 251 q 579 85 624 131 q 474 13 535 39 q 340 -14 413 -14 q 175 24 250 -14 q 56 125 100 61 l 161 207 q 236 144 189 171 q 342 118 283 118 q 421 134 385 118 q 482 178 457 150 q 521 242 507 206 q 535 319 535 278 q 521 397 535 361 q 481 461 507 433 q 419 505 456 489 q 338 521 382 521 q 256 506 293 521 q 190 465 218 490 l 94 479 l 164 972 l 619 972 l 619 840 l 278 840 z "},"6":{"ha":813,"x_min":76,"x_max":750,"o":"m 263 469 q 226 396 238 431 q 214 319 214 361 q 229 240 214 276 q 271 176 244 203 q 334 133 297 149 q 413 118 371 118 q 492 134 456 118 q 556 177 529 150 q 597 240 582 204 q 611 317 611 276 q 597 395 611 358 q 556 460 582 432 q 494 504 529 488 q 415 521 458 521 q 328 508 368 521 q 263 469 289 494 m 375 646 q 402 649 389 649 q 428 649 415 649 q 553 624 494 649 q 655 554 611 599 q 724 450 699 510 q 750 319 750 390 q 724 189 750 250 q 654 83 699 128 q 547 12 610 38 q 413 -14 485 -14 q 277 12 339 -14 q 171 83 215 38 q 101 188 126 128 q 76 315 76 247 q 83 385 76 350 q 108 464 89 421 q 147 538 124 497 q 200 622 171 578 l 431 972 l 588 972 l 375 646 z "},"7":{"ha":722,"x_min":63,"x_max":674,"o":"m 90 0 l 507 840 l 63 840 l 63 972 l 674 972 l 674 882 l 239 0 l 90 0 z "},"8":{"ha":806,"x_min":69,"x_max":736,"o":"m 403 -14 q 272 10 332 -14 q 166 76 211 35 q 95 174 121 118 q 69 294 69 231 q 113 445 69 378 q 224 549 157 513 q 158 626 183 576 q 132 729 132 676 q 153 829 132 782 q 210 911 174 876 q 295 966 246 946 q 403 986 344 986 q 510 966 461 986 q 596 911 560 946 q 653 829 632 876 q 674 729 674 782 q 648 626 674 676 q 582 549 622 576 q 692 445 649 513 q 736 294 736 378 q 710 174 736 231 q 640 76 685 118 q 534 10 594 35 q 403 -14 474 -14 m 403 472 q 326 458 361 472 q 264 420 290 444 q 223 364 238 396 q 208 294 208 332 q 223 225 208 257 q 264 169 238 193 q 326 132 290 146 q 403 118 361 118 q 480 132 444 118 q 542 169 515 146 q 583 225 568 193 q 597 294 597 257 q 583 364 597 332 q 542 420 568 396 q 480 458 515 444 q 403 472 444 472 m 403 854 q 308 818 344 854 q 271 729 271 782 q 308 640 271 676 q 403 604 344 604 q 498 640 461 604 q 535 729 535 676 q 498 818 535 782 q 403 854 461 854 z "},"9":{"ha":813,"x_min":63,"x_max":736,"o":"m 550 503 q 587 576 575 542 q 599 653 599 611 q 583 733 599 696 q 542 797 568 769 q 478 839 515 824 q 400 854 442 854 q 319 838 356 854 q 257 795 283 822 q 216 732 231 768 q 201 656 201 696 q 216 577 201 614 q 256 513 231 540 q 318 468 282 485 q 397 451 354 451 q 484 465 444 451 q 550 503 524 478 m 438 326 q 410 324 424 324 q 385 324 397 324 q 259 349 318 324 q 156 418 200 374 q 88 522 113 463 q 63 653 63 582 q 88 783 63 722 q 158 890 114 844 q 265 960 203 935 q 400 986 326 986 q 535 960 474 986 q 642 890 597 935 q 711 785 686 844 q 736 657 736 725 q 730 587 736 622 q 704 508 724 551 q 665 435 689 475 q 613 350 642 394 l 382 0 l 225 0 l 438 326 z "}," ":{"ha":375,"x_min":0,"x_max":0,"o":""},"!":{"ha":472,"x_min":139,"x_max":333,"o":"m 171 653 l 171 972 l 303 972 l 303 653 l 282 306 l 192 306 l 171 653 m 139 83 q 167 152 139 124 q 236 181 196 181 q 305 152 276 181 q 333 83 333 124 q 305 15 333 43 q 236 -14 276 -14 q 167 15 196 -14 q 139 83 139 43 z "},"\"":{"ha":639,"x_min":111,"x_max":528,"o":"m 111 972 l 243 972 l 222 625 l 132 625 l 111 972 m 396 972 l 528 972 l 507 625 l 417 625 l 396 972 z "},"#":{"ha":806,"x_min":-21,"x_max":826,"o":"m 569 271 l 496 0 l 367 0 l 440 271 l 250 271 l 176 0 l 47 0 l 121 271 l -21 271 l -21 396 l 154 396 l 201 576 l 58 576 l 58 701 l 235 701 l 308 972 l 438 972 l 364 701 l 554 701 l 628 972 l 757 972 l 683 701 l 826 701 l 826 576 l 650 576 l 603 396 l 746 396 l 746 271 l 569 271 m 283 396 l 474 396 l 521 576 l 331 576 l 283 396 z "},"$":{"ha":739,"x_min":42,"x_max":683,"o":"m 375 118 q 440 128 408 118 q 494 158 471 139 q 531 204 517 178 q 544 264 544 231 q 510 353 544 319 q 426 413 476 388 q 317 460 375 438 q 210 514 258 482 q 122 600 157 549 q 86 728 86 651 q 103 815 86 774 q 149 890 119 857 q 222 947 179 924 q 315 979 264 969 l 315 1132 l 447 1132 l 447 981 q 562 942 514 969 q 642 889 610 915 l 560 788 q 386 854 481 854 q 327 846 356 854 q 276 821 299 838 q 239 780 253 804 q 225 724 225 756 q 259 647 225 678 q 344 592 293 617 q 452 544 394 568 q 557 490 510 521 q 604 453 582 474 q 644 405 626 432 q 673 344 663 378 q 683 268 683 310 q 665 166 683 213 q 616 84 647 119 q 542 25 585 49 q 447 -8 499 1 l 447 -160 l 315 -160 l 315 -8 q 165 42 235 3 q 42 149 94 82 l 138 243 q 240 154 181 190 q 375 118 300 118 z "},"%":{"ha":1313,"x_min":83,"x_max":1229,"o":"m 306 0 l 874 972 l 1007 972 l 439 0 l 306 0 m 583 729 q 565 629 583 676 q 513 547 546 582 q 433 492 479 513 q 333 472 388 472 q 233 492 279 472 q 154 547 188 513 q 102 629 121 582 q 83 729 83 676 q 102 829 83 782 q 154 911 121 876 q 233 966 188 946 q 333 986 279 986 q 433 966 388 986 q 513 911 479 946 q 565 829 546 876 q 583 729 583 782 m 208 729 q 242 631 208 671 q 333 590 275 590 q 425 631 392 590 q 458 729 458 671 q 425 828 458 788 q 333 868 392 868 q 242 828 275 868 q 208 729 208 788 m 1229 243 q 1210 143 1229 190 q 1158 61 1192 96 q 1079 6 1125 26 q 979 -14 1033 -14 q 879 6 925 -14 q 800 61 833 26 q 748 143 767 96 q 729 243 729 190 q 748 343 729 296 q 800 425 767 390 q 879 480 833 460 q 979 500 925 500 q 1079 480 1033 500 q 1158 425 1125 460 q 1210 343 1192 390 q 1229 243 1229 296 m 854 243 q 888 144 854 185 q 979 104 921 104 q 1071 144 1038 104 q 1104 243 1104 185 q 1071 342 1104 301 q 979 382 1038 382 q 888 342 921 382 q 854 243 854 301 z "},"&":{"ha":910,"x_min":42,"x_max":951,"o":"m 951 0 l 774 0 l 675 97 q 547 16 621 46 q 383 -14 474 -14 q 249 7 311 -14 q 140 67 186 28 q 68 160 94 106 q 42 283 42 215 q 56 376 42 335 q 93 451 69 417 q 147 513 117 485 q 211 565 178 540 q 135 662 165 614 q 104 768 104 710 q 120 851 104 811 q 166 921 136 890 q 237 969 196 951 q 328 986 278 986 q 409 971 369 986 q 479 927 449 956 q 528 858 510 899 q 547 768 547 818 q 506 637 547 690 q 410 540 465 583 l 653 297 q 674 414 674 351 q 664 522 674 481 q 649 579 654 564 l 774 614 q 793 544 781 596 q 806 414 806 492 q 792 301 806 356 q 751 199 778 247 l 951 0 m 174 283 q 189 214 174 246 q 233 159 204 182 q 299 124 261 136 q 383 111 338 111 q 495 132 444 111 q 583 189 546 153 l 300 474 q 210 392 247 438 q 174 283 174 346 m 415 768 q 390 834 415 807 q 328 861 364 861 q 260 833 283 861 q 236 768 236 804 q 262 697 236 733 q 317 631 288 661 q 388 695 360 663 q 415 768 415 728 z "},"'":{"ha":354,"x_min":111,"x_max":243,"o":"m 111 972 l 243 972 l 222 625 l 132 625 l 111 972 z "},"(":{"ha":618,"x_min":208,"x_max":521,"o":"m 340 347 q 388 45 340 189 q 521 -218 436 -99 l 414 -292 q 263 6 317 -156 q 208 347 208 167 q 263 689 208 528 q 414 986 317 850 l 521 913 q 388 649 436 793 q 340 347 340 506 z "},")":{"ha":618,"x_min":97,"x_max":410,"o":"m 278 347 q 230 649 278 506 q 97 913 182 793 l 204 986 q 356 689 301 850 q 410 347 410 528 q 356 6 410 167 q 204 -292 301 -156 l 97 -218 q 230 45 182 -99 q 278 347 278 189 z "},"*":{"ha":694,"x_min":56,"x_max":640,"o":"m 89 824 l 292 758 l 292 972 l 403 972 l 403 760 l 606 826 l 640 721 l 436 654 l 563 482 l 474 417 l 347 590 l 222 417 l 133 481 l 258 654 l 56 719 l 89 824 z "},"+":{"ha":750,"x_min":69,"x_max":681,"o":"m 313 424 l 313 667 l 438 667 l 438 424 l 681 424 l 681 299 l 438 299 l 438 56 l 313 56 l 313 299 l 69 299 l 69 424 l 313 424 z "},",":{"ha":472,"x_min":63,"x_max":319,"o":"m 319 167 l 153 -194 l 63 -194 l 167 167 l 319 167 z "},"-":{"ha":639,"x_min":111,"x_max":528,"o":"m 528 410 l 528 299 l 111 299 l 111 410 l 528 410 z "},".":{"ha":472,"x_min":153,"x_max":347,"o":"m 153 83 q 181 152 153 124 q 250 181 210 181 q 319 152 290 181 q 347 83 347 124 q 319 15 347 43 q 250 -14 290 -14 q 181 15 210 -14 q 153 83 153 43 z "},"/":{"ha":604,"x_min":7,"x_max":597,"o":"m 7 0 l 460 972 l 597 972 l 144 0 l 7 0 z "},":":{"ha":472,"x_min":153,"x_max":347,"o":"m 153 569 q 181 638 153 610 q 250 667 210 667 q 319 638 290 667 q 347 569 347 610 q 319 501 347 529 q 250 472 290 472 q 181 501 210 472 q 153 569 153 529 m 153 83 q 181 152 153 124 q 250 181 210 181 q 319 152 290 181 q 347 83 347 124 q 319 15 347 43 q 250 -14 290 -14 q 181 15 210 -14 q 153 83 153 43 z "},";":{"ha":472,"x_min":63,"x_max":347,"o":"m 153 569 q 181 638 153 610 q 250 667 210 667 q 319 638 290 667 q 347 569 347 610 q 319 501 347 529 q 250 472 290 472 q 181 501 210 472 q 153 569 153 529 m 319 167 l 153 -194 l 63 -194 l 167 167 l 319 167 z "},"<":{"ha":757,"x_min":69,"x_max":681,"o":"m 681 194 l 681 58 l 69 319 l 69 403 l 681 664 l 681 528 l 290 361 l 681 194 z "},"=":{"ha":750,"x_min":69,"x_max":681,"o":"m 681 549 l 681 424 l 69 424 l 69 549 l 681 549 m 681 299 l 681 174 l 69 174 l 69 299 l 681 299 z "},">":{"ha":757,"x_min":76,"x_max":688,"o":"m 467 361 l 76 528 l 76 664 l 688 403 l 688 319 l 76 58 l 76 194 l 467 361 z "},"?":{"ha":694,"x_min":90,"x_max":639,"o":"m 90 792 q 126 869 100 833 q 188 931 151 906 q 271 972 225 957 q 367 986 317 986 q 475 966 425 986 q 562 912 525 946 q 619 831 599 878 q 639 733 639 785 q 621 638 639 679 q 576 564 603 597 q 518 506 550 531 q 460 460 486 481 q 415 421 433 439 q 397 385 397 403 q 433 326 397 358 l 346 235 q 284 306 303 267 q 265 383 265 344 q 283 458 265 426 q 328 517 301 490 q 386 567 354 543 q 444 615 418 590 q 489 667 471 639 q 507 733 507 696 q 468 824 507 786 q 367 861 429 861 q 269 831 311 861 q 215 756 226 800 l 90 792 m 264 83 q 292 152 264 124 q 361 181 321 181 q 430 152 401 181 q 458 83 458 124 q 430 15 458 43 q 361 -14 401 -14 q 292 15 321 -14 q 264 83 264 43 z "},"@":{"ha":1389,"x_min":97,"x_max":1292,"o":"m 661 49 q 560 68 610 49 q 472 126 511 88 q 409 219 433 164 q 385 347 385 275 q 409 476 385 419 q 473 569 433 532 q 563 626 513 607 q 665 646 613 646 q 785 610 744 646 q 828 525 825 575 l 828 632 l 946 632 l 946 294 q 948 248 946 271 q 960 208 950 225 q 989 178 971 190 q 1035 167 1007 167 q 1135 232 1100 167 q 1169 406 1169 297 q 1134 580 1169 500 q 1036 717 1099 660 q 889 808 974 775 q 704 840 804 840 q 517 801 604 840 q 363 696 429 763 q 260 539 297 629 q 222 347 222 449 q 260 155 222 244 q 363 -1 297 65 q 517 -107 429 -68 q 704 -146 604 -146 q 857 -120 785 -146 q 990 -50 929 -94 l 1056 -147 q 894 -233 983 -203 q 704 -264 804 -264 q 467 -216 578 -264 q 274 -85 357 -168 q 144 110 192 -1 q 97 347 97 221 q 144 585 97 474 q 274 779 192 696 q 467 910 357 863 q 704 958 578 958 q 933 918 826 958 q 1120 805 1040 878 q 1246 629 1200 732 q 1292 403 1292 526 q 1276 268 1292 332 q 1226 155 1260 204 q 1143 77 1193 106 q 1025 49 1093 49 q 901 83 951 49 q 831 175 850 117 q 819 133 831 156 q 788 92 808 111 q 735 61 767 74 q 661 49 703 49 m 821 465 q 764 509 797 490 q 678 528 731 528 q 617 517 647 528 q 563 483 588 506 q 524 427 539 461 q 510 347 510 393 q 524 267 510 301 q 563 211 539 233 q 618 178 588 189 q 681 167 649 167 q 764 190 731 167 q 821 236 797 213 l 821 465 z "},"A":{"ha":917,"x_min":7,"x_max":910,"o":"m 663 250 l 253 250 l 151 0 l 7 0 l 410 972 l 507 972 l 910 0 l 765 0 l 663 250 m 308 382 l 608 382 l 458 743 l 308 382 z "},"B":{"ha":868,"x_min":125,"x_max":819,"o":"m 475 132 q 576 145 542 132 q 635 182 611 158 q 668 233 656 204 q 681 296 681 263 q 668 358 681 329 q 635 408 656 386 q 576 445 611 432 q 475 458 542 458 l 264 458 l 264 132 l 475 132 m 431 590 q 518 601 489 590 q 564 631 547 611 q 597 715 597 667 q 564 800 597 764 q 518 830 547 819 q 431 840 489 840 l 264 840 l 264 590 l 431 590 m 125 0 l 125 972 l 456 972 q 574 954 526 972 q 656 904 621 936 q 715 822 693 869 q 736 719 736 774 q 715 624 736 669 q 660 546 694 578 q 774 442 729 511 q 819 290 819 374 q 790 164 819 222 q 713 65 761 106 q 625 17 675 33 q 500 0 575 0 l 125 0 z "},"C":{"ha":958,"x_min":49,"x_max":931,"o":"m 49 486 q 86 683 49 592 q 190 841 124 774 q 345 947 256 908 q 540 986 435 986 q 738 947 644 986 q 896 836 832 907 l 803 744 q 690 823 760 792 q 540 854 619 854 q 401 826 465 854 q 290 749 338 799 q 215 633 242 700 q 188 486 188 565 q 215 336 188 404 q 292 219 243 268 q 408 144 342 171 q 553 118 475 118 q 644 131 601 118 q 721 163 686 143 q 783 206 756 182 q 832 256 811 231 l 931 167 q 857 93 899 126 q 767 36 815 60 q 663 -1 718 13 q 553 -14 608 -14 q 352 24 444 -14 q 192 128 260 61 q 87 286 125 194 q 49 486 49 378 z "},"D":{"ha":993,"x_min":125,"x_max":944,"o":"m 806 486 q 774 639 806 568 q 688 758 743 710 q 577 819 642 799 q 410 840 513 840 l 264 840 l 264 132 l 410 132 q 577 153 513 132 q 688 214 642 174 q 774 333 743 263 q 806 486 806 404 m 125 0 l 125 972 l 417 972 q 612 949 533 972 q 750 881 690 925 q 892 711 840 814 q 944 486 944 608 q 893 261 944 364 q 751 92 842 158 q 613 24 692 47 q 417 0 533 0 l 125 0 z "},"E":{"ha":750,"x_min":125,"x_max":694,"o":"m 583 590 l 583 458 l 264 458 l 264 132 l 694 132 l 694 0 l 125 0 l 125 972 l 681 972 l 681 840 l 264 840 l 264 590 l 583 590 z "},"F":{"ha":708,"x_min":125,"x_max":681,"o":"m 583 590 l 583 458 l 264 458 l 264 0 l 125 0 l 125 972 l 681 972 l 681 840 l 264 840 l 264 590 l 583 590 z "},"G":{"ha":1021,"x_min":49,"x_max":931,"o":"m 931 167 q 857 94 899 126 q 767 37 815 61 q 663 -1 718 13 q 553 -14 608 -14 q 352 24 444 -14 q 192 128 260 61 q 87 286 125 194 q 49 486 49 378 q 86 683 49 592 q 190 841 124 774 q 345 947 256 908 q 540 986 435 986 q 738 947 644 986 q 896 836 832 907 l 803 744 q 690 823 760 792 q 540 854 619 854 q 401 826 465 854 q 290 749 338 799 q 215 633 242 700 q 188 486 188 565 q 215 336 188 404 q 292 219 243 268 q 408 144 342 171 q 553 118 475 118 q 692 144 631 118 q 792 208 753 169 l 792 458 l 514 458 l 514 590 l 931 590 l 931 167 z "},"H":{"ha":1069,"x_min":125,"x_max":944,"o":"m 806 458 l 264 458 l 264 0 l 125 0 l 125 972 l 264 972 l 264 590 l 806 590 l 806 972 l 944 972 l 944 0 l 806 0 l 806 458 z "},"I":{"ha":389,"x_min":125,"x_max":264,"o":"m 125 972 l 264 972 l 264 0 l 125 0 l 125 972 z "},"J":{"ha":639,"x_min":0,"x_max":528,"o":"m 124 196 q 174 139 140 160 q 253 118 208 118 q 315 133 285 118 q 363 172 344 149 q 382 213 375 189 q 389 282 389 238 l 389 972 l 528 972 l 528 292 q 519 195 528 233 q 494 126 511 157 q 394 25 458 64 q 253 -14 331 -14 q 100 27 168 -14 q 0 143 32 68 l 124 196 z "},"K":{"ha":903,"x_min":125,"x_max":875,"o":"m 125 972 l 264 972 l 264 563 l 664 972 l 847 972 l 408 521 l 875 0 l 697 0 l 264 486 l 264 0 l 125 0 l 125 972 z "},"L":{"ha":722,"x_min":125,"x_max":694,"o":"m 264 132 l 694 132 l 694 0 l 125 0 l 125 972 l 264 972 l 264 132 z "},"M":{"ha":1194,"x_min":125,"x_max":1069,"o":"m 646 208 l 549 208 l 264 654 l 264 0 l 125 0 l 125 972 l 222 972 l 597 379 l 972 972 l 1069 972 l 1069 0 l 931 0 l 931 654 l 646 208 z "},"N":{"ha":1069,"x_min":125,"x_max":944,"o":"m 264 714 l 264 0 l 125 0 l 125 972 l 222 972 l 806 258 l 806 972 l 944 972 l 944 0 l 847 0 l 264 714 z "},"O":{"ha":1069,"x_min":49,"x_max":1021,"o":"m 49 486 q 86 683 49 592 q 189 842 124 775 q 343 948 254 910 q 535 986 432 986 q 726 948 638 986 q 881 842 815 910 q 983 683 946 775 q 1021 486 1021 592 q 983 288 1021 379 q 881 130 946 197 q 726 24 815 63 q 535 -14 638 -14 q 343 24 432 -14 q 189 130 254 63 q 86 288 124 197 q 49 486 49 379 m 188 486 q 214 340 188 407 q 287 223 240 272 q 397 146 333 174 q 535 118 460 118 q 673 146 610 118 q 783 223 736 174 q 856 340 829 272 q 882 486 882 407 q 856 633 882 565 q 783 749 829 700 q 673 826 736 799 q 535 854 610 854 q 397 826 460 854 q 287 749 333 799 q 214 633 240 700 q 188 486 188 565 z "},"P":{"ha":833,"x_min":125,"x_max":792,"o":"m 486 563 q 565 574 536 563 q 614 606 594 586 q 642 649 632 625 q 653 701 653 674 q 642 753 653 729 q 614 797 632 778 q 565 828 594 817 q 486 840 536 840 l 264 840 l 264 563 l 486 563 m 264 431 l 264 0 l 125 0 l 125 972 l 493 972 q 612 956 564 972 q 696 908 660 939 q 766 817 740 871 q 792 701 792 764 q 766 585 792 639 q 696 494 740 532 q 612 447 660 464 q 493 431 564 431 l 264 431 z "},"Q":{"ha":1076,"x_min":49,"x_max":1049,"o":"m 49 486 q 86 683 49 592 q 189 842 124 775 q 343 948 254 910 q 535 986 432 986 q 726 948 638 986 q 881 842 815 910 q 983 683 946 775 q 1021 486 1021 592 q 990 307 1021 390 q 906 157 960 224 l 1049 0 l 876 0 l 811 71 q 683 8 753 31 q 535 -14 614 -14 q 343 24 432 -14 q 189 130 254 63 q 86 288 124 197 q 49 486 49 379 m 188 486 q 214 340 188 407 q 287 223 240 272 q 397 146 333 174 q 535 118 460 118 q 634 132 588 118 q 721 171 681 146 l 488 431 l 585 514 l 813 260 q 863 363 844 306 q 882 486 882 419 q 856 633 882 565 q 783 749 829 700 q 673 826 736 799 q 535 854 610 854 q 397 826 460 854 q 287 749 333 799 q 214 633 240 700 q 188 486 188 565 z "},"R":{"ha":889,"x_min":125,"x_max":889,"o":"m 264 458 l 264 0 l 125 0 l 125 972 l 465 972 q 576 958 532 972 q 654 915 621 943 q 724 828 699 879 q 750 715 750 776 q 724 603 750 654 q 654 515 699 551 q 603 483 631 496 q 540 464 576 471 l 889 0 l 721 0 l 375 458 l 264 458 m 458 590 q 532 600 506 590 q 575 626 558 610 q 611 715 611 663 q 601 765 611 742 q 575 804 592 788 q 532 831 558 821 q 458 840 506 840 l 264 840 l 264 590 l 458 590 z "},"S":{"ha":739,"x_min":42,"x_max":683,"o":"m 138 243 q 240 154 181 190 q 375 118 300 118 q 440 128 408 118 q 494 158 471 139 q 531 204 517 178 q 544 264 544 231 q 510 353 544 319 q 426 413 476 388 q 317 460 375 438 q 210 514 258 482 q 122 600 157 549 q 86 728 86 651 q 108 828 86 781 q 170 910 131 875 q 263 966 210 946 q 381 986 317 986 q 466 977 426 986 q 538 953 506 968 q 597 922 571 939 q 642 889 622 906 l 560 788 q 386 854 481 854 q 327 846 356 854 q 276 821 299 838 q 239 780 253 804 q 225 724 225 756 q 259 647 225 678 q 344 592 293 617 q 452 544 394 568 q 557 490 510 521 q 604 453 582 474 q 644 405 626 432 q 673 344 663 378 q 683 268 683 310 q 660 152 683 204 q 596 63 636 100 q 501 6 556 26 q 382 -14 446 -14 q 194 28 282 -14 q 42 149 107 69 l 138 243 z "},"T":{"ha":708,"x_min":21,"x_max":688,"o":"m 21 972 l 688 972 l 688 840 l 424 840 l 424 0 l 285 0 l 285 840 l 21 840 l 21 972 z "},"U":{"ha":1028,"x_min":111,"x_max":917,"o":"m 514 -14 q 346 20 424 -14 q 213 114 268 54 q 138 235 165 165 q 111 403 111 304 l 111 972 l 250 972 l 250 396 q 266 281 250 326 q 311 204 282 236 q 399 141 347 164 q 514 118 451 118 q 628 141 576 118 q 717 204 681 164 q 762 281 746 236 q 778 396 778 326 l 778 972 l 917 972 l 917 403 q 890 235 917 304 q 815 114 863 165 q 682 20 760 54 q 514 -14 604 -14 z "},"V":{"ha":889,"x_min":14,"x_max":875,"o":"m 493 0 l 396 0 l 14 972 l 158 972 l 444 239 l 731 972 l 875 972 l 493 0 z "},"W":{"ha":1319,"x_min":14,"x_max":1306,"o":"m 417 0 l 319 0 l 14 972 l 156 972 l 374 268 l 611 972 l 708 972 l 946 268 l 1164 972 l 1306 972 l 1000 0 l 903 0 l 660 719 l 417 0 z "},"X":{"ha":915,"x_min":21,"x_max":894,"o":"m 21 0 l 367 532 l 76 972 l 247 972 l 457 649 l 668 972 l 839 972 l 547 532 l 894 0 l 731 0 l 457 415 l 185 0 l 21 0 z "},"Y":{"ha":833,"x_min":14,"x_max":819,"o":"m 486 444 l 486 0 l 347 0 l 347 444 l 14 972 l 169 972 l 417 582 l 664 972 l 819 972 l 486 444 z "},"Z":{"ha":819,"x_min":56,"x_max":778,"o":"m 97 972 l 750 972 l 750 882 l 244 132 l 778 132 l 778 0 l 56 0 l 56 90 l 564 840 l 97 840 l 97 972 z "},"[":{"ha":618,"x_min":208,"x_max":549,"o":"m 208 972 l 549 972 l 549 847 l 340 847 l 340 -153 l 549 -153 l 549 -278 l 208 -278 l 208 972 z "},"\\":{"ha":604,"x_min":7,"x_max":597,"o":"m 460 0 l 7 972 l 144 972 l 597 0 l 460 0 z "},"]":{"ha":618,"x_min":69,"x_max":410,"o":"m 410 -278 l 69 -278 l 69 -153 l 278 -153 l 278 847 l 69 847 l 69 972 l 410 972 l 410 -278 z "},"^":{"ha":750,"x_min":83,"x_max":667,"o":"m 83 486 l 329 972 l 421 972 l 667 486 l 528 486 l 375 788 l 222 486 l 83 486 z "},"_":{"ha":681,"x_min":28,"x_max":653,"o":"m 653 0 l 653 -111 l 28 -111 l 28 0 l 653 0 z "},"`":{"ha":431,"x_min":97,"x_max":333,"o":"m 243 764 l 97 972 l 243 972 l 333 764 l 243 764 z "},"a":{"ha":840,"x_min":63,"x_max":722,"o":"m 722 653 l 722 0 l 594 0 l 594 139 q 540 29 592 72 q 393 -14 489 -14 q 306 -2 349 -14 q 229 29 263 10 q 108 151 154 74 q 63 326 63 228 q 109 503 63 425 q 231 625 156 581 q 304 656 264 644 q 390 667 344 667 q 542 622 490 667 q 594 514 594 576 l 594 653 l 722 653 m 590 449 q 512 515 560 489 q 404 542 464 542 q 318 524 357 542 q 252 477 279 507 q 210 408 225 447 q 194 326 194 369 q 210 243 194 282 q 256 175 226 204 q 324 128 285 146 q 411 111 364 111 q 509 135 461 111 q 590 204 557 160 l 590 449 z "},"b":{"ha":840,"x_min":118,"x_max":778,"o":"m 250 986 l 250 528 q 305 626 254 586 q 450 667 356 667 q 536 656 496 667 q 610 625 576 644 q 731 503 685 581 q 778 326 778 425 q 732 151 778 228 q 611 29 686 74 q 535 -2 578 10 q 447 -14 492 -14 q 301 28 351 -14 q 246 132 250 69 l 246 0 l 118 0 l 118 986 l 250 986 m 250 204 q 331 135 283 160 q 429 111 379 111 q 516 128 476 111 q 585 175 556 146 q 630 243 614 204 q 646 326 646 282 q 631 408 646 369 q 588 477 615 447 q 522 524 561 507 q 436 542 483 542 q 328 515 376 542 q 250 449 281 489 l 250 204 z "},"c":{"ha":736,"x_min":63,"x_max":701,"o":"m 701 139 q 650 77 681 106 q 581 28 619 49 q 499 -3 543 8 q 411 -14 456 -14 q 272 12 336 -14 q 162 83 208 38 q 89 192 115 129 q 63 326 63 254 q 88 461 63 399 q 159 569 114 524 q 267 641 204 615 q 403 667 329 667 q 562 628 489 667 q 681 525 635 589 l 583 443 q 510 511 556 481 q 403 542 465 542 q 320 526 358 542 q 254 481 282 510 q 210 412 226 451 q 194 326 194 372 q 210 238 194 278 q 256 171 226 199 q 324 127 285 143 q 411 111 364 111 q 522 141 476 111 q 600 213 568 171 l 701 139 z "},"d":{"ha":840,"x_min":63,"x_max":722,"o":"m 722 986 l 722 0 l 594 0 l 594 139 q 540 29 592 72 q 393 -14 489 -14 q 306 -2 349 -14 q 229 29 263 10 q 108 151 154 74 q 63 326 63 228 q 109 503 63 425 q 231 625 156 581 q 304 656 264 644 q 390 667 344 667 q 537 625 486 667 q 590 522 588 583 l 590 986 l 722 986 m 590 449 q 512 515 560 489 q 404 542 464 542 q 318 524 357 542 q 252 477 279 507 q 210 408 225 447 q 194 326 194 369 q 210 243 194 282 q 256 175 226 204 q 324 128 285 146 q 411 111 364 111 q 509 135 461 111 q 590 204 557 160 l 590 449 z "},"e":{"ha":757,"x_min":63,"x_max":694,"o":"m 190 299 q 210 222 193 257 q 256 159 228 186 q 321 117 283 132 q 401 101 358 101 q 517 130 474 101 q 589 190 561 158 l 675 108 q 569 24 639 61 q 400 -14 500 -14 q 267 12 329 -14 q 160 83 206 38 q 88 190 114 128 q 63 326 63 253 q 86 463 63 400 q 152 570 110 525 q 253 641 194 615 q 381 667 311 667 q 506 641 449 667 q 606 569 564 615 q 671 461 647 524 q 694 326 694 399 q 694 315 694 322 q 693 299 694 308 l 190 299 m 385 551 q 269 513 321 551 q 201 410 218 474 l 557 410 q 533 467 550 440 q 492 512 515 493 q 442 541 469 531 q 385 551 414 551 z "},"f":{"ha":563,"x_min":35,"x_max":521,"o":"m 493 869 q 472 874 486 872 q 444 875 458 875 q 389 863 417 875 q 344 829 361 851 q 325 784 331 811 q 319 713 319 757 l 319 653 l 521 653 l 521 535 l 319 535 l 319 0 l 188 0 l 188 535 l 35 535 l 35 653 l 188 653 l 188 708 q 197 817 188 775 q 229 892 207 860 q 321 972 265 943 q 443 1000 376 1000 q 485 997 464 1000 q 521 990 507 994 l 493 869 z "},"g":{"ha":840,"x_min":63,"x_max":722,"o":"m 590 135 q 538 27 588 68 q 393 -14 489 -14 q 306 -2 349 -14 q 229 29 263 10 q 108 151 154 74 q 63 326 63 228 q 109 503 63 425 q 231 625 156 581 q 304 656 264 644 q 390 667 344 667 q 540 624 488 667 q 594 519 592 581 l 594 653 l 722 653 l 722 28 q 713 -97 722 -46 q 683 -186 703 -147 q 571 -305 643 -262 q 401 -347 499 -347 q 286 -333 338 -347 q 194 -296 235 -318 q 126 -247 154 -274 q 83 -196 99 -221 l 181 -106 q 266 -187 217 -153 q 396 -222 315 -222 q 554 -147 506 -222 q 581 -81 572 -119 q 590 21 590 -42 l 590 135 m 590 449 q 512 515 560 489 q 404 542 464 542 q 318 524 357 542 q 252 477 279 507 q 210 408 225 447 q 194 326 194 369 q 210 243 194 282 q 256 175 226 204 q 324 128 285 146 q 411 111 364 111 q 509 135 461 111 q 590 204 557 160 l 590 449 z "},"h":{"ha":847,"x_min":118,"x_max":743,"o":"m 442 667 q 576 635 514 667 q 679 551 638 604 q 727 458 711 511 q 743 319 743 404 l 743 0 l 611 0 l 611 326 q 601 422 611 389 q 572 478 590 456 q 513 524 549 507 q 438 542 478 542 q 326 513 372 542 q 250 449 279 485 l 250 0 l 118 0 l 118 986 l 250 986 l 250 529 q 306 627 254 588 q 442 667 357 667 z "},"i":{"ha":368,"x_min":97,"x_max":271,"o":"m 118 653 l 250 653 l 250 0 l 118 0 l 118 653 m 97 885 q 122 947 97 921 q 183 972 147 972 q 245 947 219 972 q 271 885 271 921 q 245 824 271 849 q 183 799 219 799 q 122 824 147 799 q 97 885 97 849 z "},"j":{"ha":396,"x_min":-56,"x_max":299,"o":"m 125 885 q 150 947 125 921 q 211 972 175 972 q 273 947 247 972 q 299 885 299 921 q 273 824 299 849 q 211 799 247 799 q 150 824 175 799 q 125 885 125 849 m 146 653 l 278 653 l 278 -56 q 268 -165 278 -122 q 236 -239 258 -207 q 144 -319 200 -290 q 22 -347 89 -347 q -20 -344 1 -347 q -56 -337 -42 -342 l -28 -217 q -7 -221 -21 -219 q 21 -222 7 -222 q 76 -210 49 -222 q 121 -176 104 -199 q 140 -131 135 -158 q 146 -60 146 -104 l 146 653 z "},"k":{"ha":764,"x_min":118,"x_max":750,"o":"m 750 0 l 574 0 l 250 319 l 250 0 l 118 0 l 118 986 l 250 986 l 250 403 l 522 653 l 708 653 l 382 358 l 750 0 z "},"l":{"ha":368,"x_min":118,"x_max":250,"o":"m 118 986 l 250 986 l 250 0 l 118 0 l 118 986 z "},"m":{"ha":1313,"x_min":118,"x_max":1208,"o":"m 438 667 q 569 637 510 667 q 668 558 628 607 q 770 635 713 603 q 917 667 828 667 q 1048 638 988 667 q 1149 557 1108 608 q 1194 468 1179 519 q 1208 333 1208 417 l 1208 0 l 1076 0 l 1076 354 q 1067 434 1076 404 q 1039 485 1057 464 q 985 526 1017 511 q 917 542 953 542 q 798 512 846 542 q 718 449 750 482 q 726 397 724 425 q 729 333 729 368 l 729 0 l 597 0 l 597 354 q 588 434 597 404 q 560 485 578 464 q 504 526 538 511 q 433 542 471 542 q 325 512 372 542 q 250 449 278 482 l 250 0 l 118 0 l 118 653 l 246 653 l 246 525 q 302 625 250 583 q 438 667 354 667 z "},"n":{"ha":847,"x_min":118,"x_max":743,"o":"m 442 667 q 576 635 514 667 q 679 551 638 604 q 727 458 711 511 q 743 319 743 404 l 743 0 l 611 0 l 611 326 q 601 422 611 389 q 572 478 590 456 q 513 524 549 507 q 438 542 478 542 q 326 513 372 542 q 250 449 279 485 l 250 0 l 118 0 l 118 653 l 246 653 l 246 525 q 302 625 250 583 q 442 667 354 667 z "},"o":{"ha":800,"x_min":63,"x_max":738,"o":"m 63 326 q 88 461 63 399 q 159 569 114 524 q 266 641 204 615 q 400 667 328 667 q 534 641 472 667 q 641 569 596 615 q 712 461 686 524 q 738 326 738 399 q 712 191 738 253 q 641 83 686 129 q 534 12 596 38 q 400 -14 472 -14 q 266 12 328 -14 q 159 83 204 38 q 88 191 114 129 q 63 326 63 253 m 194 326 q 210 242 194 282 q 252 174 225 203 q 317 128 279 144 q 400 111 354 111 q 483 128 446 111 q 548 174 521 144 q 590 242 575 203 q 606 326 606 282 q 590 410 606 371 q 548 479 575 450 q 483 525 521 508 q 400 542 446 542 q 317 525 354 542 q 252 479 279 508 q 210 410 225 450 q 194 326 194 371 z "},"p":{"ha":840,"x_min":118,"x_max":778,"o":"m 118 653 l 246 653 l 246 525 q 302 625 250 583 q 450 667 354 667 q 536 656 496 667 q 610 625 576 644 q 731 503 685 581 q 778 326 778 425 q 732 151 778 228 q 611 29 686 74 q 535 -2 578 10 q 447 -14 492 -14 q 303 26 351 -14 q 250 128 254 65 l 250 -333 l 118 -333 l 118 653 m 250 204 q 331 135 283 160 q 429 111 379 111 q 516 128 476 111 q 585 175 556 146 q 630 243 614 204 q 646 326 646 282 q 631 408 646 369 q 588 477 615 447 q 522 524 561 507 q 436 542 483 542 q 328 515 376 542 q 250 449 281 489 l 250 204 z "},"q":{"ha":840,"x_min":63,"x_max":722,"o":"m 722 -333 l 590 -333 l 590 135 q 538 27 588 68 q 393 -14 489 -14 q 306 -2 349 -14 q 229 29 263 10 q 108 151 154 74 q 63 326 63 228 q 109 503 63 425 q 231 625 156 581 q 304 656 264 644 q 390 667 344 667 q 540 624 488 667 q 594 519 592 581 l 594 653 l 722 653 l 722 -333 m 590 449 q 512 515 560 489 q 404 542 464 542 q 318 524 357 542 q 252 477 279 507 q 210 408 225 447 q 194 326 194 369 q 210 243 194 282 q 256 175 226 204 q 324 128 285 146 q 411 111 364 111 q 509 135 461 111 q 590 204 557 160 l 590 449 z "},"r":{"ha":535,"x_min":118,"x_max":493,"o":"m 442 667 q 467 666 453 667 q 493 663 482 665 l 478 536 q 426 542 457 542 q 326 510 375 542 q 250 432 278 479 l 250 0 l 118 0 l 118 653 l 246 653 l 246 525 q 302 625 250 583 q 442 667 354 667 z "},"s":{"ha":632,"x_min":56,"x_max":563,"o":"m 124 174 q 317 101 217 101 q 395 123 360 101 q 431 183 431 144 q 412 228 431 211 q 364 255 393 244 q 299 274 335 265 q 226 294 263 282 q 170 319 197 304 q 122 354 143 333 q 89 401 101 375 q 76 463 76 428 q 98 553 76 515 q 153 617 119 592 q 231 654 188 642 q 318 667 274 667 q 443 647 390 667 q 535 594 496 626 l 467 500 q 401 538 436 524 q 326 551 367 551 q 243 530 278 551 q 208 469 208 508 q 242 421 208 436 q 325 393 276 406 q 406 369 364 383 q 482 331 447 354 q 540 272 517 307 q 563 186 563 236 q 542 103 563 140 q 489 40 522 65 q 411 0 456 14 q 319 -14 367 -14 q 56 76 167 -14 l 124 174 z "},"t":{"ha":583,"x_min":14,"x_max":521,"o":"m 521 0 q 474 -10 501 -7 q 418 -14 446 -14 q 310 6 356 -14 q 233 63 265 26 q 192 139 204 94 q 181 236 181 183 l 181 535 l 14 535 l 14 653 l 181 653 l 181 833 l 313 833 l 313 653 l 521 653 l 521 535 l 313 535 l 313 229 q 316 182 313 203 q 332 146 319 161 q 371 120 346 129 q 422 111 396 111 q 458 113 438 111 q 494 119 479 115 l 521 0 z "},"u":{"ha":833,"x_min":104,"x_max":715,"o":"m 396 -14 q 265 15 325 -14 q 164 96 204 44 q 119 185 133 133 q 104 319 104 236 l 104 653 l 236 653 l 236 299 q 246 219 236 249 q 274 168 256 189 q 329 126 296 142 q 400 111 363 111 q 508 141 461 111 q 583 204 556 171 l 583 653 l 715 653 l 715 0 l 588 0 l 588 132 q 533 28 585 71 q 396 -14 482 -14 z "},"v":{"ha":686,"x_min":14,"x_max":672,"o":"m 14 653 l 150 653 l 343 208 l 536 653 l 672 653 l 389 0 l 297 0 l 14 653 z "},"w":{"ha":1108,"x_min":14,"x_max":1094,"o":"m 600 653 l 779 207 l 958 653 l 1094 653 l 829 0 l 738 0 l 554 458 l 371 0 l 279 0 l 14 653 l 150 653 l 329 207 l 508 653 l 600 653 z "},"x":{"ha":708,"x_min":21,"x_max":688,"o":"m 354 244 l 178 0 l 21 0 l 268 343 l 44 653 l 200 653 l 354 442 l 508 653 l 664 653 l 440 343 l 688 0 l 531 0 l 354 244 z "},"y":{"ha":707,"x_min":14,"x_max":686,"o":"m 117 -333 l 293 68 l 14 653 l 156 653 l 360 222 l 547 653 l 686 653 l 257 -333 l 117 -333 z "},"z":{"ha":653,"x_min":56,"x_max":625,"o":"m 414 535 l 76 535 l 76 653 l 597 653 l 597 569 l 238 118 l 625 118 l 625 0 l 56 0 l 56 83 l 414 535 z "},"{":{"ha":618,"x_min":97,"x_max":479,"o":"m 267 347 q 294 330 281 340 q 317 303 307 319 q 334 263 328 286 q 340 204 340 239 q 333 79 340 138 q 326 -37 326 21 q 331 -87 326 -65 q 350 -125 336 -110 q 432 -153 375 -153 l 479 -153 l 479 -278 l 438 -278 q 334 -267 374 -278 q 267 -233 294 -257 q 213 -160 232 -206 q 194 -46 194 -114 q 201 88 194 24 q 208 208 208 153 q 182 284 208 263 q 97 306 156 306 l 97 389 q 182 410 156 389 q 208 486 208 432 q 201 606 208 542 q 194 740 194 671 q 213 854 194 808 q 267 928 232 900 q 334 962 294 951 q 438 972 374 972 l 479 972 l 479 847 l 432 847 q 350 819 375 847 q 331 782 336 804 q 326 732 326 760 q 333 615 326 674 q 340 490 340 557 q 334 432 340 456 q 317 392 328 408 q 294 365 307 375 q 267 347 281 354 z "},"|":{"ha":299,"x_min":83,"x_max":215,"o":"m 83 972 l 215 972 l 215 -278 l 83 -278 l 83 972 z "},"}":{"ha":618,"x_min":139,"x_max":521,"o":"m 351 347 q 324 365 338 354 q 301 392 311 375 q 284 432 290 408 q 278 490 278 456 q 285 615 278 557 q 292 732 292 674 q 287 782 292 760 q 268 819 282 804 q 186 847 243 847 l 139 847 l 139 972 l 181 972 q 284 962 244 972 q 351 928 324 951 q 405 854 386 900 q 424 740 424 808 q 417 606 424 671 q 410 486 410 542 q 436 410 410 432 q 521 389 463 389 l 521 306 q 436 284 463 306 q 410 208 410 263 q 417 88 410 153 q 424 -46 424 24 q 405 -160 424 -114 q 351 -233 386 -206 q 284 -267 324 -257 q 181 -278 244 -278 l 139 -278 l 139 -153 l 186 -153 q 268 -125 243 -153 q 287 -87 282 -110 q 292 -37 292 -65 q 285 79 292 21 q 278 204 278 138 q 284 263 278 239 q 301 303 290 286 q 324 330 311 319 q 351 347 338 340 z "},"~":{"ha":778,"x_min":35,"x_max":743,"o":"m 743 415 q 712 352 731 383 q 667 295 693 321 q 608 253 642 269 q 532 238 574 238 q 444 256 483 238 q 372 298 406 275 q 310 340 339 321 q 251 360 281 360 q 216 350 232 360 q 186 325 200 340 q 161 290 172 310 q 142 253 150 271 l 35 307 q 66 369 47 338 q 110 427 85 401 q 170 469 136 453 q 246 485 204 485 q 333 465 294 485 q 406 423 372 446 q 468 381 439 400 q 526 363 497 363 q 561 372 544 363 q 592 397 578 382 q 617 431 606 413 q 636 469 628 450 l 743 415 z "}," ":{"ha":375,"x_min":0,"x_max":0,"o":""},"¡":{"ha":472,"x_min":139,"x_max":333,"o":"m 192 333 l 282 333 l 303 -14 l 303 -333 l 171 -333 l 171 -14 l 192 333 m 139 569 q 167 638 139 610 q 236 667 196 667 q 305 638 276 667 q 333 569 333 610 q 305 501 333 529 q 236 472 276 472 q 167 501 196 472 q 139 569 139 529 z "},"¢":{"ha":736,"x_min":63,"x_max":701,"o":"m 336 -6 q 225 35 275 6 q 139 109 175 65 q 83 208 103 153 q 63 326 63 264 q 83 446 63 390 q 139 545 103 501 q 225 619 175 589 q 336 660 275 649 l 336 813 l 468 813 l 468 660 q 588 612 533 647 q 681 525 643 576 l 583 443 q 510 511 556 481 q 403 542 465 542 q 320 526 358 542 q 254 481 282 510 q 210 412 226 451 q 194 326 194 372 q 210 238 194 278 q 256 171 226 199 q 324 127 285 143 q 411 111 364 111 q 522 141 476 111 q 600 213 568 171 l 701 139 q 605 42 667 81 q 468 -8 543 3 l 468 -160 l 336 -160 l 336 -6 z "},"£":{"ha":736,"x_min":56,"x_max":701,"o":"m 535 556 l 535 438 l 368 438 q 376 354 376 397 q 354 227 376 289 q 296 125 332 165 l 701 125 l 701 0 l 56 0 l 56 83 q 137 133 101 101 q 197 201 172 164 q 233 278 221 239 q 244 354 244 318 q 241 397 244 376 q 232 438 238 418 l 83 438 l 83 556 l 189 556 q 160 638 172 596 q 147 728 147 679 q 169 833 147 785 q 229 915 192 881 q 315 967 267 949 q 415 986 363 986 q 495 975 458 986 q 562 945 532 964 q 616 903 592 926 q 657 856 640 881 l 553 781 q 499 837 533 813 q 415 861 464 861 q 366 852 390 861 q 322 825 342 843 q 291 782 303 807 q 279 725 279 757 q 295 642 279 683 q 329 556 311 600 l 535 556 z "},"¤":{"ha":778,"x_min":42,"x_max":736,"o":"m 103 488 q 115 569 103 531 q 147 642 126 608 l 42 747 l 129 835 l 235 729 q 307 762 268 750 q 389 774 346 774 q 471 762 432 774 q 543 729 510 750 l 649 835 l 736 747 l 631 642 q 675 488 675 574 q 631 333 675 401 l 736 228 l 649 140 l 543 246 q 389 201 475 201 q 235 246 303 201 l 129 140 l 42 228 l 147 333 q 115 406 126 367 q 103 488 103 444 m 235 488 q 247 428 235 456 q 281 379 260 400 q 329 346 301 358 q 389 333 357 333 q 449 346 421 333 q 497 379 476 358 q 531 428 518 400 q 543 488 543 456 q 531 547 543 519 q 497 596 518 575 q 449 629 476 617 q 389 642 421 642 q 329 629 357 642 q 281 596 301 617 q 247 547 260 575 q 235 488 235 519 z "},"¥":{"ha":833,"x_min":14,"x_max":819,"o":"m 750 438 l 750 319 l 486 319 l 486 0 l 347 0 l 347 319 l 83 319 l 83 438 l 347 438 l 286 535 l 83 535 l 83 653 l 213 653 l 14 972 l 172 972 l 417 575 l 661 972 l 819 972 l 619 653 l 750 653 l 750 535 l 546 535 l 486 438 l 750 438 z "},"¦":{"ha":354,"x_min":111,"x_max":243,"o":"m 111 264 l 243 264 l 243 -278 l 111 -278 l 111 264 m 111 972 l 243 972 l 243 431 l 111 431 l 111 972 z "},"§":{"ha":806,"x_min":63,"x_max":743,"o":"m 128 728 q 150 828 128 781 q 212 910 172 875 q 305 966 251 946 q 422 986 358 986 q 508 977 468 986 q 580 953 547 968 q 638 922 613 939 q 683 889 664 906 l 601 788 q 428 854 522 854 q 369 847 397 854 q 317 824 340 839 q 281 785 294 808 q 267 732 267 763 q 299 667 267 692 q 379 621 331 642 q 486 580 428 600 q 597 531 544 560 q 701 443 660 497 q 743 308 743 389 q 708 181 743 242 q 619 82 672 121 q 662 19 646 54 q 678 -61 678 -15 q 656 -161 678 -114 q 594 -244 633 -208 q 501 -299 554 -279 q 383 -319 447 -319 q 298 -310 338 -319 q 226 -287 258 -301 q 167 -256 193 -272 q 122 -222 142 -239 l 204 -121 q 378 -187 283 -187 q 437 -180 408 -187 q 488 -157 465 -172 q 525 -119 511 -142 q 539 -65 539 -96 q 507 -1 539 -26 q 426 46 475 25 q 319 87 378 67 q 208 136 261 107 q 104 224 146 169 q 63 358 63 278 q 98 485 63 425 q 186 585 133 544 q 143 646 158 611 q 128 728 128 681 m 201 364 q 229 290 201 319 q 301 238 257 260 q 398 198 344 217 q 501 157 451 179 q 538 181 519 165 q 572 215 557 196 q 595 256 586 233 q 604 303 604 279 q 576 376 604 347 q 505 428 549 406 q 408 468 461 450 q 303 510 354 486 q 267 485 285 500 q 234 451 249 471 q 210 410 219 432 q 201 364 201 388 z "},"¨":{"ha":625,"x_min":97,"x_max":528,"o":"m 97 857 q 122 919 97 893 q 183 944 147 944 q 245 919 219 944 q 271 857 271 893 q 245 796 271 821 q 183 771 219 771 q 122 796 147 771 q 97 857 97 821 m 354 857 q 379 919 354 893 q 440 944 404 944 q 502 919 476 944 q 528 857 528 893 q 502 796 528 821 q 440 771 476 771 q 379 796 404 771 q 354 857 354 821 z "},"©":{"ha":1167,"x_min":97,"x_max":1069,"o":"m 718 625 q 665 659 694 644 q 593 674 635 674 q 474 622 521 674 q 426 490 426 571 q 439 417 426 451 q 474 358 451 383 q 529 319 497 333 q 601 306 561 306 q 676 321 646 306 q 733 356 707 336 l 788 283 q 704 231 751 251 q 599 211 657 211 q 488 233 538 211 q 401 292 438 254 q 345 381 365 329 q 325 490 325 432 q 345 599 325 549 q 401 688 365 650 q 486 747 438 725 q 593 768 535 768 q 694 748 650 768 q 772 696 738 728 l 718 625 m 97 486 q 135 675 97 586 q 240 830 174 764 q 394 934 306 896 q 583 972 483 972 q 772 934 683 972 q 927 830 861 896 q 1031 675 993 764 q 1069 486 1069 586 q 1031 297 1069 386 q 927 142 993 208 q 772 38 861 76 q 583 0 683 0 q 394 38 483 0 q 240 142 306 76 q 135 297 174 208 q 97 486 97 386 m 188 486 q 219 333 188 404 q 303 208 250 261 q 428 123 357 154 q 582 92 500 92 q 736 123 664 92 q 862 208 808 154 q 947 333 915 261 q 978 486 978 404 q 947 640 978 568 q 862 766 915 713 q 736 851 808 819 q 582 882 664 882 q 428 851 500 882 q 303 766 357 819 q 219 640 250 713 q 188 486 188 568 z "},"ª":{"ha":578,"x_min":69,"x_max":508,"o":"m 283 542 q 201 559 240 542 q 133 606 163 576 q 87 676 104 636 q 69 764 69 717 q 87 851 69 811 q 133 922 104 892 q 201 969 163 951 q 283 986 240 986 q 374 962 343 986 q 408 911 406 938 l 408 976 l 508 976 l 508 551 l 408 551 l 408 621 q 374 565 406 589 q 283 542 343 542 m 406 839 q 361 878 388 863 q 299 893 335 893 q 248 883 271 893 q 208 855 225 872 q 182 814 192 838 q 172 764 172 790 q 182 714 172 738 q 208 673 192 690 q 248 645 225 656 q 299 635 271 635 q 361 650 335 635 q 406 689 388 665 l 406 839 z "},"«":{"ha":833,"x_min":111,"x_max":778,"o":"m 458 69 l 297 69 l 111 299 l 111 368 l 297 597 l 458 597 l 244 333 l 458 69 m 778 69 l 617 69 l 431 299 l 431 368 l 617 597 l 778 597 l 564 333 l 778 69 z "},"¬":{"ha":736,"x_min":56,"x_max":667,"o":"m 667 174 l 542 174 l 542 424 l 56 424 l 56 549 l 667 549 l 667 174 z "},"­":{"ha":639,"x_min":111,"x_max":528,"o":"m 528 410 l 528 299 l 111 299 l 111 410 l 528 410 z "},"®":{"ha":1167,"x_min":97,"x_max":1069,"o":"m 758 608 q 751 564 758 586 q 731 522 744 542 q 699 488 718 503 q 658 467 681 474 l 828 224 l 713 224 l 547 460 l 521 460 l 521 224 l 421 224 l 421 756 l 599 756 q 658 747 633 756 q 701 724 682 739 q 758 608 758 679 m 521 554 l 590 554 q 626 558 614 554 q 644 571 638 563 q 657 607 657 585 q 644 642 657 626 q 626 656 638 650 q 590 661 614 661 l 521 661 l 521 554 m 97 486 q 135 675 97 586 q 240 830 174 764 q 394 934 306 896 q 583 972 483 972 q 772 934 683 972 q 927 830 861 896 q 1031 675 993 764 q 1069 486 1069 586 q 1031 297 1069 386 q 927 142 993 208 q 772 38 861 76 q 583 0 683 0 q 394 38 483 0 q 240 142 306 76 q 135 297 174 208 q 97 486 97 386 m 188 486 q 219 333 188 404 q 303 208 250 261 q 428 123 357 154 q 582 92 500 92 q 736 123 664 92 q 862 208 808 154 q 947 333 915 261 q 978 486 978 404 q 947 640 978 568 q 862 766 915 713 q 736 851 808 819 q 582 882 664 882 q 428 851 500 882 q 303 766 357 819 q 219 640 250 713 q 188 486 188 568 z "},"¯":{"ha":611,"x_min":97,"x_max":514,"o":"m 514 917 l 514 799 l 97 799 l 97 917 l 514 917 z "},"°":{"ha":556,"x_min":56,"x_max":500,"o":"m 56 764 q 73 850 56 810 q 121 921 90 890 q 192 969 151 951 q 278 986 232 986 q 364 969 324 986 q 435 921 404 951 q 483 850 465 890 q 500 764 500 810 q 483 678 500 718 q 435 607 465 638 q 364 559 404 576 q 278 542 324 542 q 192 559 232 542 q 121 607 151 576 q 73 678 90 638 q 56 764 56 718 m 167 764 q 199 685 167 718 q 278 653 232 653 q 356 685 324 653 q 389 764 389 718 q 356 842 389 810 q 278 875 324 875 q 199 842 232 875 q 167 764 167 810 z "},"±":{"ha":750,"x_min":69,"x_max":681,"o":"m 313 507 l 313 694 l 438 694 l 438 507 l 681 507 l 681 382 l 438 382 l 438 194 l 313 194 l 313 382 l 69 382 l 69 507 l 313 507 m 681 153 l 681 28 l 69 28 l 69 153 l 681 153 z "},"²":{"ha":432,"x_min":42,"x_max":383,"o":"m 43 856 q 103 951 58 915 q 211 986 149 986 q 276 974 244 986 q 330 941 307 963 q 367 890 353 919 q 381 824 381 860 q 363 752 381 785 q 321 692 346 719 l 211 569 l 383 569 l 383 472 l 42 472 l 42 528 l 231 739 q 261 776 246 754 q 276 824 276 799 q 259 869 276 850 q 211 889 242 889 q 167 872 185 889 q 140 826 149 854 l 43 856 z "},"³":{"ha":421,"x_min":28,"x_max":379,"o":"m 111 600 q 144 567 122 581 q 192 553 165 553 q 251 577 228 553 q 275 636 275 601 q 253 696 275 669 q 190 722 231 722 q 122 707 160 722 l 122 763 l 207 875 l 47 875 l 47 972 l 357 972 l 357 917 l 268 794 q 348 733 317 778 q 379 636 379 689 q 365 566 379 599 q 325 510 350 533 q 265 472 300 486 q 192 458 231 458 q 93 484 135 458 q 28 547 51 510 l 111 600 z "},"´":{"ha":431,"x_min":97,"x_max":333,"o":"m 97 764 l 188 972 l 333 972 l 188 764 l 97 764 z "},"µ":{"ha":847,"x_min":118,"x_max":729,"o":"m 410 -14 q 358 -8 382 -14 q 313 8 333 -1 q 276 28 292 17 q 250 49 260 39 l 250 -333 l 118 -333 l 118 653 l 250 653 l 250 299 q 260 219 250 249 q 288 168 269 189 q 342 126 310 142 q 410 111 374 111 q 520 140 475 111 q 597 204 565 169 l 597 653 l 729 653 l 729 0 l 601 0 l 601 132 q 547 28 599 71 q 410 -14 496 -14 z "},"¶":{"ha":951,"x_min":42,"x_max":882,"o":"m 611 847 l 472 847 l 472 -278 l 340 -278 l 340 375 q 224 399 278 375 q 129 463 169 422 q 65 557 89 503 q 42 674 42 611 q 74 812 42 749 q 164 915 107 875 q 249 958 201 943 q 368 972 297 972 l 882 972 l 882 847 l 743 847 l 743 -278 l 611 -278 l 611 847 m 174 674 q 186 606 174 638 q 221 551 199 575 q 274 514 243 528 q 340 500 304 500 l 340 847 q 274 833 304 847 q 221 796 243 819 q 186 741 199 772 q 174 674 174 710 z "},"·":{"ha":472,"x_min":139,"x_max":333,"o":"m 139 326 q 167 395 139 367 q 236 424 196 424 q 305 395 276 424 q 333 326 333 367 q 305 258 333 286 q 236 229 276 229 q 167 258 196 229 q 139 326 139 286 z "},"¸":{"ha":382,"x_min":97,"x_max":285,"o":"m 285 14 l 243 -194 l 97 -194 l 194 14 l 285 14 z "},"¹":{"ha":326,"x_min":42,"x_max":257,"o":"m 42 894 l 194 972 l 257 972 l 257 472 l 153 472 l 153 842 l 42 790 l 42 894 z "},"º":{"ha":578,"x_min":69,"x_max":508,"o":"m 406 763 q 374 856 406 819 q 289 893 342 893 q 204 856 236 893 q 172 763 172 819 q 204 672 172 708 q 289 635 236 635 q 374 672 342 635 q 406 763 406 708 m 69 764 q 85 850 69 810 q 131 921 101 890 q 200 969 160 951 q 289 986 240 986 q 378 969 338 986 q 447 921 418 951 q 492 850 476 890 q 508 764 508 810 q 492 678 508 718 q 447 607 476 638 q 378 559 418 576 q 289 542 338 542 q 200 559 240 542 q 131 607 160 576 q 85 678 101 638 q 69 764 69 718 z "},"»":{"ha":833,"x_min":56,"x_max":722,"o":"m 589 333 l 375 597 l 536 597 l 722 368 l 722 299 l 536 69 l 375 69 l 589 333 m 269 333 l 56 597 l 217 597 l 403 368 l 403 299 l 217 69 l 56 69 l 269 333 z "},"¼":{"ha":878,"x_min":42,"x_max":857,"o":"m 90 0 l 658 972 l 778 972 l 210 0 l 90 0 m 42 894 l 194 972 l 257 972 l 257 472 l 153 472 l 153 842 l 42 790 l 42 894 m 772 500 l 772 204 l 857 204 l 857 107 l 772 107 l 772 0 l 668 0 l 668 107 l 444 107 l 444 163 l 710 500 l 772 500 m 668 204 l 668 296 l 599 204 l 668 204 z "},"½":{"ha":939,"x_min":42,"x_max":890,"o":"m 90 0 l 658 972 l 778 972 l 210 0 l 90 0 m 42 894 l 194 972 l 257 972 l 257 472 l 153 472 l 153 842 l 42 790 l 42 894 m 550 383 q 610 478 565 443 q 718 514 656 514 q 783 502 751 514 q 837 469 814 490 q 874 417 860 447 q 888 351 888 388 q 870 280 888 313 q 828 219 853 247 l 718 97 l 890 97 l 890 0 l 549 0 l 549 56 l 738 267 q 768 304 753 282 q 783 351 783 326 q 766 397 783 378 q 718 417 749 417 q 674 399 692 417 q 647 354 656 382 l 550 383 z "},"¾":{"ha":931,"x_min":28,"x_max":910,"o":"m 143 0 l 711 972 l 831 972 l 263 0 l 143 0 m 825 500 l 825 204 l 910 204 l 910 107 l 825 107 l 825 0 l 721 0 l 721 107 l 497 107 l 497 163 l 763 500 l 825 500 m 721 204 l 721 296 l 651 204 l 721 204 m 111 600 q 144 567 122 581 q 192 553 165 553 q 251 577 228 553 q 275 636 275 601 q 253 696 275 669 q 190 722 231 722 q 122 707 160 722 l 122 763 l 207 875 l 47 875 l 47 972 l 357 972 l 357 917 l 268 794 q 348 733 317 778 q 379 636 379 689 q 365 566 379 599 q 325 510 350 533 q 265 472 300 486 q 192 458 231 458 q 93 484 135 458 q 28 547 51 510 l 111 600 z "},"¿":{"ha":694,"x_min":56,"x_max":604,"o":"m 604 -153 q 568 -231 593 -194 q 506 -292 543 -267 q 424 -333 469 -318 q 328 -347 378 -347 q 219 -327 269 -347 q 133 -273 169 -307 q 76 -193 96 -239 q 56 -94 56 -147 q 74 0 56 -42 q 118 75 92 42 q 176 133 144 108 q 235 179 208 158 q 279 218 261 200 q 297 254 297 236 q 261 313 297 281 l 349 404 q 410 333 392 372 q 429 256 429 294 q 411 181 429 213 q 367 122 393 149 q 308 72 340 96 q 250 24 276 49 q 206 -28 224 0 q 188 -94 188 -57 q 226 -185 188 -147 q 328 -222 265 -222 q 426 -192 383 -222 q 479 -117 468 -161 l 604 -153 m 431 569 q 402 501 431 529 q 333 472 374 472 q 265 501 293 472 q 236 569 236 529 q 265 638 236 610 q 333 667 293 667 q 402 638 374 667 q 431 569 431 610 z "},"À":{"ha":917,"x_min":7,"x_max":910,"o":"m 410 1042 l 264 1250 l 410 1250 l 500 1042 l 410 1042 m 663 250 l 253 250 l 151 0 l 7 0 l 410 972 l 507 972 l 910 0 l 765 0 l 663 250 m 308 382 l 608 382 l 458 743 l 308 382 z "},"Á":{"ha":917,"x_min":7,"x_max":910,"o":"m 417 1042 l 507 1250 l 653 1250 l 507 1042 l 417 1042 m 663 250 l 253 250 l 151 0 l 7 0 l 410 972 l 507 972 l 910 0 l 765 0 l 663 250 m 308 382 l 608 382 l 458 743 l 308 382 z "},"Â":{"ha":917,"x_min":7,"x_max":910,"o":"m 250 1042 l 382 1250 l 535 1250 l 667 1042 l 576 1042 l 458 1172 l 340 1042 l 250 1042 m 663 250 l 253 250 l 151 0 l 7 0 l 410 972 l 507 972 l 910 0 l 765 0 l 663 250 m 308 382 l 608 382 l 458 743 l 308 382 z "},"Ã":{"ha":917,"x_min":7,"x_max":910,"o":"m 663 250 l 253 250 l 151 0 l 7 0 l 410 972 l 507 972 l 910 0 l 765 0 l 663 250 m 308 382 l 608 382 l 458 743 l 308 382 m 222 1085 q 234 1143 224 1115 q 263 1192 244 1171 q 306 1224 281 1213 q 363 1236 331 1236 q 414 1226 389 1236 q 463 1205 439 1217 q 508 1183 486 1193 q 551 1174 531 1174 q 587 1190 575 1174 q 604 1236 599 1206 l 694 1207 q 683 1149 693 1176 q 654 1100 672 1121 q 610 1067 636 1079 q 554 1056 585 1056 q 503 1065 528 1056 q 454 1087 478 1075 q 408 1108 431 1099 q 365 1118 386 1118 q 330 1102 342 1118 q 313 1056 318 1086 l 222 1085 z "},"Ä":{"ha":917,"x_min":7,"x_max":910,"o":"m 243 1135 q 268 1197 243 1171 q 329 1222 293 1222 q 391 1197 365 1222 q 417 1135 417 1171 q 391 1074 417 1099 q 329 1049 365 1049 q 268 1074 293 1049 q 243 1135 243 1099 m 500 1135 q 525 1197 500 1171 q 586 1222 550 1222 q 648 1197 622 1222 q 674 1135 674 1171 q 648 1074 674 1099 q 586 1049 622 1049 q 525 1074 550 1049 q 500 1135 500 1099 m 663 250 l 253 250 l 151 0 l 7 0 l 410 972 l 507 972 l 910 0 l 765 0 l 663 250 m 308 382 l 608 382 l 458 743 l 308 382 z "},"Å":{"ha":917,"x_min":7,"x_max":910,"o":"m 319 1153 q 360 1251 319 1211 q 458 1292 400 1292 q 557 1251 517 1292 q 597 1153 597 1211 q 557 1054 597 1094 q 458 1014 517 1014 q 360 1054 400 1014 q 319 1153 319 1094 m 403 1153 q 419 1113 403 1129 q 458 1097 435 1097 q 498 1113 482 1097 q 514 1153 514 1129 q 498 1192 514 1176 q 458 1208 482 1208 q 419 1192 435 1208 q 403 1153 403 1176 m 663 250 l 253 250 l 151 0 l 7 0 l 410 972 l 507 972 l 910 0 l 765 0 l 663 250 m 308 382 l 608 382 l 458 743 l 308 382 z "},"Æ":{"ha":1264,"x_min":-28,"x_max":1208,"o":"m 639 0 l 639 250 l 281 250 l 131 0 l -28 0 l 553 972 l 1194 972 l 1194 840 l 778 840 l 778 590 l 1097 590 l 1097 458 l 778 458 l 778 132 l 1208 132 l 1208 0 l 639 0 m 358 382 l 639 382 l 639 854 l 358 382 z "},"Ç":{"ha":958,"x_min":49,"x_max":931,"o":"m 49 486 q 86 683 49 592 q 190 841 124 774 q 345 947 256 908 q 540 986 435 986 q 738 947 644 986 q 896 836 832 907 l 803 744 q 690 823 760 792 q 540 854 619 854 q 401 826 465 854 q 290 749 338 799 q 215 633 242 700 q 188 486 188 565 q 215 336 188 404 q 292 219 243 268 q 408 144 342 171 q 553 118 475 118 q 644 131 601 118 q 721 163 686 143 q 783 206 756 182 q 832 256 811 231 l 931 167 q 781 43 872 92 q 585 -12 689 -6 l 549 -194 l 403 -194 l 489 -10 q 312 42 393 0 q 172 149 231 83 q 81 300 114 214 q 49 486 49 386 z "},"È":{"ha":750,"x_min":125,"x_max":694,"o":"m 583 590 l 583 458 l 264 458 l 264 132 l 694 132 l 694 0 l 125 0 l 125 972 l 681 972 l 681 840 l 264 840 l 264 590 l 583 590 m 375 1042 l 229 1250 l 375 1250 l 465 1042 l 375 1042 z "},"É":{"ha":750,"x_min":125,"x_max":694,"o":"m 583 590 l 583 458 l 264 458 l 264 132 l 694 132 l 694 0 l 125 0 l 125 972 l 681 972 l 681 840 l 264 840 l 264 590 l 583 590 m 354 1042 l 444 1250 l 590 1250 l 444 1042 l 354 1042 z "},"Ê":{"ha":750,"x_min":125,"x_max":694,"o":"m 583 590 l 583 458 l 264 458 l 264 132 l 694 132 l 694 0 l 125 0 l 125 972 l 681 972 l 681 840 l 264 840 l 264 590 l 583 590 m 194 1042 l 326 1250 l 479 1250 l 611 1042 l 521 1042 l 403 1172 l 285 1042 l 194 1042 z "},"Ë":{"ha":750,"x_min":125,"x_max":694,"o":"m 583 590 l 583 458 l 264 458 l 264 132 l 694 132 l 694 0 l 125 0 l 125 972 l 681 972 l 681 840 l 264 840 l 264 590 l 583 590 m 188 1135 q 213 1197 188 1171 q 274 1222 238 1222 q 335 1197 310 1222 q 361 1135 361 1171 q 335 1074 361 1099 q 274 1049 310 1049 q 213 1074 238 1049 q 188 1135 188 1099 m 444 1135 q 469 1197 444 1171 q 531 1222 494 1222 q 592 1197 567 1222 q 618 1135 618 1171 q 592 1074 618 1099 q 531 1049 567 1049 q 469 1074 494 1049 q 444 1135 444 1099 z "},"Ì":{"ha":389,"x_min":14,"x_max":264,"o":"m 125 972 l 264 972 l 264 0 l 125 0 l 125 972 m 160 1042 l 14 1250 l 160 1250 l 250 1042 l 160 1042 z "},"Í":{"ha":389,"x_min":125,"x_max":375,"o":"m 125 972 l 264 972 l 264 0 l 125 0 l 125 972 m 139 1042 l 229 1250 l 375 1250 l 229 1042 l 139 1042 z "},"Î":{"ha":389,"x_min":-14,"x_max":403,"o":"m 125 972 l 264 972 l 264 0 l 125 0 l 125 972 m -14 1042 l 118 1250 l 271 1250 l 403 1042 l 313 1042 l 194 1172 l 76 1042 l -14 1042 z "},"Ï":{"ha":389,"x_min":-21,"x_max":410,"o":"m 125 972 l 264 972 l 264 0 l 125 0 l 125 972 m -21 1135 q 4 1197 -21 1171 q 65 1222 29 1222 q 127 1197 101 1222 q 153 1135 153 1171 q 127 1074 153 1099 q 65 1049 101 1049 q 4 1074 29 1049 q -21 1135 -21 1099 m 236 1135 q 261 1197 236 1171 q 322 1222 286 1222 q 384 1197 358 1222 q 410 1135 410 1171 q 384 1074 410 1099 q 322 1049 358 1049 q 261 1074 286 1049 q 236 1135 236 1099 z "},"Ð":{"ha":993,"x_min":-14,"x_max":944,"o":"m 125 0 l 125 458 l -14 458 l -14 590 l 125 590 l 125 972 l 417 972 q 612 949 533 972 q 750 881 690 925 q 892 711 840 814 q 944 486 944 608 q 893 261 944 364 q 751 92 842 158 q 613 24 692 47 q 417 0 533 0 l 125 0 m 806 486 q 774 639 806 568 q 688 758 743 710 q 577 819 642 799 q 410 840 513 840 l 264 840 l 264 590 l 542 590 l 542 458 l 264 458 l 264 132 l 410 132 q 577 153 513 132 q 688 214 642 174 q 774 333 743 263 q 806 486 806 404 z "},"Ñ":{"ha":1069,"x_min":125,"x_max":944,"o":"m 264 714 l 264 0 l 125 0 l 125 972 l 222 972 l 806 258 l 806 972 l 944 972 l 944 0 l 847 0 l 264 714 m 297 1085 q 309 1143 299 1115 q 338 1192 319 1171 q 381 1224 356 1213 q 438 1236 406 1236 q 489 1226 464 1236 q 538 1205 514 1217 q 583 1183 561 1193 q 626 1174 606 1174 q 662 1190 650 1174 q 679 1236 674 1206 l 769 1207 q 758 1149 768 1176 q 729 1100 747 1121 q 685 1067 711 1079 q 629 1056 660 1056 q 578 1065 603 1056 q 529 1087 553 1075 q 483 1108 506 1099 q 440 1118 461 1118 q 405 1102 417 1118 q 388 1056 393 1086 l 297 1085 z "},"Ò":{"ha":1069,"x_min":49,"x_max":1021,"o":"m 49 486 q 86 683 49 592 q 189 842 124 775 q 343 948 254 910 q 535 986 432 986 q 726 948 638 986 q 881 842 815 910 q 983 683 946 775 q 1021 486 1021 592 q 983 288 1021 379 q 881 130 946 197 q 726 24 815 63 q 535 -14 638 -14 q 343 24 432 -14 q 189 130 254 63 q 86 288 124 197 q 49 486 49 379 m 188 486 q 214 340 188 407 q 287 223 240 272 q 397 146 333 174 q 535 118 460 118 q 673 146 610 118 q 783 223 736 174 q 856 340 829 272 q 882 486 882 407 q 856 633 882 565 q 783 749 829 700 q 673 826 736 799 q 535 854 610 854 q 397 826 460 854 q 287 749 333 799 q 214 633 240 700 q 188 486 188 565 m 493 1042 l 347 1250 l 493 1250 l 583 1042 l 493 1042 z "},"Ó":{"ha":1069,"x_min":49,"x_max":1021,"o":"m 49 486 q 86 683 49 592 q 189 842 124 775 q 343 948 254 910 q 535 986 432 986 q 726 948 638 986 q 881 842 815 910 q 983 683 946 775 q 1021 486 1021 592 q 983 288 1021 379 q 881 130 946 197 q 726 24 815 63 q 535 -14 638 -14 q 343 24 432 -14 q 189 130 254 63 q 86 288 124 197 q 49 486 49 379 m 188 486 q 214 340 188 407 q 287 223 240 272 q 397 146 333 174 q 535 118 460 118 q 673 146 610 118 q 783 223 736 174 q 856 340 829 272 q 882 486 882 407 q 856 633 882 565 q 783 749 829 700 q 673 826 736 799 q 535 854 610 854 q 397 826 460 854 q 287 749 333 799 q 214 633 240 700 q 188 486 188 565 m 486 1042 l 576 1250 l 722 1250 l 576 1042 l 486 1042 z "},"Ô":{"ha":1069,"x_min":49,"x_max":1021,"o":"m 49 486 q 86 683 49 592 q 189 842 124 775 q 343 948 254 910 q 535 986 432 986 q 726 948 638 986 q 881 842 815 910 q 983 683 946 775 q 1021 486 1021 592 q 983 288 1021 379 q 881 130 946 197 q 726 24 815 63 q 535 -14 638 -14 q 343 24 432 -14 q 189 130 254 63 q 86 288 124 197 q 49 486 49 379 m 188 486 q 214 340 188 407 q 287 223 240 272 q 397 146 333 174 q 535 118 460 118 q 673 146 610 118 q 783 223 736 174 q 856 340 829 272 q 882 486 882 407 q 856 633 882 565 q 783 749 829 700 q 673 826 736 799 q 535 854 610 854 q 397 826 460 854 q 287 749 333 799 q 214 633 240 700 q 188 486 188 565 m 326 1042 l 458 1250 l 611 1250 l 743 1042 l 653 1042 l 535 1172 l 417 1042 l 326 1042 z "},"Õ":{"ha":1069,"x_min":49,"x_max":1021,"o":"m 49 486 q 86 683 49 592 q 189 842 124 775 q 343 948 254 910 q 535 986 432 986 q 726 948 638 986 q 881 842 815 910 q 983 683 946 775 q 1021 486 1021 592 q 983 288 1021 379 q 881 130 946 197 q 726 24 815 63 q 535 -14 638 -14 q 343 24 432 -14 q 189 130 254 63 q 86 288 124 197 q 49 486 49 379 m 188 486 q 214 340 188 407 q 287 223 240 272 q 397 146 333 174 q 535 118 460 118 q 673 146 610 118 q 783 223 736 174 q 856 340 829 272 q 882 486 882 407 q 856 633 882 565 q 783 749 829 700 q 673 826 736 799 q 535 854 610 854 q 397 826 460 854 q 287 749 333 799 q 214 633 240 700 q 188 486 188 565 m 299 1085 q 310 1143 300 1115 q 339 1192 321 1171 q 382 1224 357 1213 q 439 1236 407 1236 q 490 1226 465 1236 q 539 1205 515 1217 q 585 1183 563 1193 q 628 1174 607 1174 q 663 1190 651 1174 q 681 1236 675 1206 l 771 1207 q 759 1149 769 1176 q 731 1100 749 1121 q 687 1067 713 1079 q 631 1056 661 1056 q 579 1065 604 1056 q 531 1087 554 1075 q 485 1108 507 1099 q 442 1118 463 1118 q 406 1102 418 1118 q 389 1056 394 1086 l 299 1085 z "},"Ö":{"ha":1069,"x_min":49,"x_max":1021,"o":"m 49 486 q 86 683 49 592 q 189 842 124 775 q 343 948 254 910 q 535 986 432 986 q 726 948 638 986 q 881 842 815 910 q 983 683 946 775 q 1021 486 1021 592 q 983 288 1021 379 q 881 130 946 197 q 726 24 815 63 q 535 -14 638 -14 q 343 24 432 -14 q 189 130 254 63 q 86 288 124 197 q 49 486 49 379 m 188 486 q 214 340 188 407 q 287 223 240 272 q 397 146 333 174 q 535 118 460 118 q 673 146 610 118 q 783 223 736 174 q 856 340 829 272 q 882 486 882 407 q 856 633 882 565 q 783 749 829 700 q 673 826 736 799 q 535 854 610 854 q 397 826 460 854 q 287 749 333 799 q 214 633 240 700 q 188 486 188 565 m 319 1135 q 344 1197 319 1171 q 406 1222 369 1222 q 467 1197 442 1222 q 493 1135 493 1171 q 467 1074 493 1099 q 406 1049 442 1049 q 344 1074 369 1049 q 319 1135 319 1099 m 576 1135 q 601 1197 576 1171 q 663 1222 626 1222 q 724 1197 699 1222 q 750 1135 750 1171 q 724 1074 750 1099 q 663 1049 699 1049 q 601 1074 626 1049 q 576 1135 576 1099 z "},"×":{"ha":761,"x_min":90,"x_max":671,"o":"m 381 450 l 582 651 l 671 563 l 469 361 l 671 160 l 582 71 l 381 272 l 179 71 l 90 160 l 292 361 l 90 563 l 179 651 l 381 450 z "},"Ø":{"ha":1069,"x_min":31,"x_max":1038,"o":"m 49 486 q 86 683 49 592 q 189 842 124 775 q 343 948 254 910 q 535 986 432 986 q 678 965 611 986 q 804 906 746 944 l 872 986 l 1038 986 l 900 821 q 989 669 957 754 q 1021 486 1021 585 q 983 288 1021 379 q 881 130 946 197 q 726 24 815 63 q 535 -14 638 -14 q 391 7 458 -14 q 265 65 324 28 l 197 -14 l 31 -14 l 169 150 q 80 301 111 217 q 49 486 49 386 m 188 486 q 206 361 188 419 q 258 257 225 303 l 718 801 q 632 840 678 826 q 535 854 586 854 q 397 826 460 854 q 287 749 333 799 q 214 633 240 700 q 188 486 188 565 m 882 486 q 863 610 882 553 q 810 715 844 668 l 351 169 q 535 118 433 118 q 673 146 610 118 q 783 223 736 174 q 856 340 829 272 q 882 486 882 407 z "},"Ù":{"ha":1028,"x_min":111,"x_max":917,"o":"m 514 -14 q 346 20 424 -14 q 213 114 268 54 q 138 235 165 165 q 111 403 111 304 l 111 972 l 250 972 l 250 396 q 266 281 250 326 q 311 204 282 236 q 399 141 347 164 q 514 118 451 118 q 628 141 576 118 q 717 204 681 164 q 762 281 746 236 q 778 396 778 326 l 778 972 l 917 972 l 917 403 q 890 235 917 304 q 815 114 863 165 q 682 20 760 54 q 514 -14 604 -14 m 472 1042 l 326 1250 l 472 1250 l 563 1042 l 472 1042 z "},"Ú":{"ha":1028,"x_min":111,"x_max":917,"o":"m 514 -14 q 346 20 424 -14 q 213 114 268 54 q 138 235 165 165 q 111 403 111 304 l 111 972 l 250 972 l 250 396 q 266 281 250 326 q 311 204 282 236 q 399 141 347 164 q 514 118 451 118 q 628 141 576 118 q 717 204 681 164 q 762 281 746 236 q 778 396 778 326 l 778 972 l 917 972 l 917 403 q 890 235 917 304 q 815 114 863 165 q 682 20 760 54 q 514 -14 604 -14 m 465 1042 l 556 1250 l 701 1250 l 556 1042 l 465 1042 z "},"Û":{"ha":1028,"x_min":111,"x_max":917,"o":"m 514 -14 q 346 20 424 -14 q 213 114 268 54 q 138 235 165 165 q 111 403 111 304 l 111 972 l 250 972 l 250 396 q 266 281 250 326 q 311 204 282 236 q 399 141 347 164 q 514 118 451 118 q 628 141 576 118 q 717 204 681 164 q 762 281 746 236 q 778 396 778 326 l 778 972 l 917 972 l 917 403 q 890 235 917 304 q 815 114 863 165 q 682 20 760 54 q 514 -14 604 -14 m 306 1042 l 438 1250 l 590 1250 l 722 1042 l 632 1042 l 514 1172 l 396 1042 l 306 1042 z "},"Ü":{"ha":1028,"x_min":111,"x_max":917,"o":"m 514 -14 q 346 20 424 -14 q 213 114 268 54 q 138 235 165 165 q 111 403 111 304 l 111 972 l 250 972 l 250 396 q 266 281 250 326 q 311 204 282 236 q 399 141 347 164 q 514 118 451 118 q 628 141 576 118 q 717 204 681 164 q 762 281 746 236 q 778 396 778 326 l 778 972 l 917 972 l 917 403 q 890 235 917 304 q 815 114 863 165 q 682 20 760 54 q 514 -14 604 -14 m 299 1135 q 324 1197 299 1171 q 385 1222 349 1222 q 447 1197 421 1222 q 472 1135 472 1171 q 447 1074 472 1099 q 385 1049 421 1049 q 324 1074 349 1049 q 299 1135 299 1099 m 556 1135 q 581 1197 556 1171 q 642 1222 606 1222 q 703 1197 678 1222 q 729 1135 729 1171 q 703 1074 729 1099 q 642 1049 678 1049 q 581 1074 606 1049 q 556 1135 556 1099 z "},"Ý":{"ha":833,"x_min":14,"x_max":819,"o":"m 486 444 l 486 0 l 347 0 l 347 444 l 14 972 l 169 972 l 417 582 l 664 972 l 819 972 l 486 444 m 368 1042 l 458 1250 l 604 1250 l 458 1042 l 368 1042 z "},"Þ":{"ha":833,"x_min":125,"x_max":792,"o":"m 486 347 q 565 359 536 347 q 614 390 594 371 q 642 434 632 410 q 653 486 653 458 q 642 538 653 514 q 614 582 632 563 q 565 613 594 601 q 486 625 536 625 l 264 625 l 264 347 l 486 347 m 493 757 q 612 740 564 757 q 696 693 660 724 q 766 602 740 656 q 792 486 792 549 q 766 370 792 424 q 696 279 740 317 q 612 232 660 249 q 493 215 564 215 l 264 215 l 264 0 l 125 0 l 125 972 l 264 972 l 264 757 l 493 757 z "},"ß":{"ha":819,"x_min":118,"x_max":757,"o":"m 368 126 q 442 111 403 111 q 515 125 482 111 q 572 164 549 139 q 609 222 596 189 q 622 292 622 254 q 610 359 622 328 q 575 414 597 390 q 513 457 550 442 q 414 472 475 472 l 361 472 l 361 597 l 367 597 q 440 607 411 597 q 488 633 468 617 q 521 679 508 653 q 533 736 533 706 q 494 834 533 793 q 397 875 456 875 q 335 863 365 875 q 286 826 306 850 q 260 782 271 808 q 250 708 250 756 l 250 0 l 118 0 l 118 708 q 136 828 118 779 q 186 911 154 876 q 276 976 224 953 q 392 1000 329 1000 q 497 979 447 1000 q 585 923 547 958 q 644 839 622 888 q 665 736 665 790 q 646 641 665 688 q 592 563 626 594 q 712 452 667 524 q 757 292 757 381 q 734 174 757 229 q 670 76 711 118 q 573 10 629 35 q 451 -14 517 -14 q 318 17 382 -14 l 368 126 z "},"à":{"ha":840,"x_min":63,"x_max":722,"o":"m 722 653 l 722 0 l 594 0 l 594 139 q 540 29 592 72 q 393 -14 489 -14 q 306 -2 349 -14 q 229 29 263 10 q 108 151 154 74 q 63 326 63 228 q 109 503 63 425 q 231 625 156 581 q 304 656 264 644 q 390 667 344 667 q 542 622 490 667 q 594 514 594 576 l 594 653 l 722 653 m 590 449 q 512 515 560 489 q 404 542 464 542 q 318 524 357 542 q 252 477 279 507 q 210 408 225 447 q 194 326 194 369 q 210 243 194 282 q 256 175 226 204 q 324 128 285 146 q 411 111 364 111 q 509 135 461 111 q 590 204 557 160 l 590 449 m 426 764 l 281 972 l 426 972 l 517 764 l 426 764 z "},"á":{"ha":840,"x_min":63,"x_max":722,"o":"m 722 653 l 722 0 l 594 0 l 594 139 q 540 29 592 72 q 393 -14 489 -14 q 306 -2 349 -14 q 229 29 263 10 q 108 151 154 74 q 63 326 63 228 q 109 503 63 425 q 231 625 156 581 q 304 656 264 644 q 390 667 344 667 q 540 624 488 667 q 594 519 592 581 l 594 653 l 722 653 m 590 449 q 512 515 560 489 q 404 542 464 542 q 318 524 357 542 q 252 477 279 507 q 210 408 225 447 q 194 326 194 369 q 210 243 194 282 q 256 175 226 204 q 324 128 285 146 q 411 111 364 111 q 509 135 461 111 q 590 204 557 160 l 590 449 m 350 764 l 440 972 l 586 972 l 440 764 l 350 764 z "},"â":{"ha":840,"x_min":63,"x_max":722,"o":"m 722 653 l 722 0 l 594 0 l 594 139 q 540 29 592 72 q 393 -14 489 -14 q 306 -2 349 -14 q 229 29 263 10 q 108 151 154 74 q 63 326 63 228 q 109 503 63 425 q 231 625 156 581 q 304 656 264 644 q 390 667 344 667 q 540 624 488 667 q 594 519 592 581 l 594 653 l 722 653 m 590 449 q 512 515 560 489 q 404 542 464 542 q 318 524 357 542 q 252 477 279 507 q 210 408 225 447 q 194 326 194 369 q 210 243 194 282 q 256 175 226 204 q 324 128 285 146 q 411 111 364 111 q 509 135 461 111 q 590 204 557 160 l 590 449 m 218 764 l 350 972 l 503 972 l 635 764 l 544 764 l 426 894 l 308 764 l 218 764 z "},"ã":{"ha":840,"x_min":63,"x_max":722,"o":"m 722 653 l 722 0 l 594 0 l 594 139 q 540 29 592 72 q 393 -14 489 -14 q 306 -2 349 -14 q 229 29 263 10 q 108 151 154 74 q 63 326 63 228 q 109 503 63 425 q 231 625 156 581 q 304 656 264 644 q 390 667 344 667 q 542 622 490 667 q 594 514 594 576 l 594 653 l 722 653 m 590 449 q 512 515 560 489 q 404 542 464 542 q 318 524 357 542 q 252 477 279 507 q 210 408 225 447 q 194 326 194 369 q 210 243 194 282 q 256 175 226 204 q 324 128 285 146 q 411 111 364 111 q 509 135 461 111 q 590 204 557 160 l 590 449 m 182 807 q 194 865 183 838 q 222 914 204 893 q 265 947 240 935 q 322 958 290 958 q 374 949 349 958 q 422 927 399 939 q 468 906 446 915 q 511 896 490 896 q 547 912 535 896 q 564 958 558 928 l 654 929 q 642 871 653 899 q 614 822 632 843 q 570 790 596 801 q 514 778 544 778 q 463 788 488 778 q 414 809 438 797 q 368 831 390 821 q 325 840 346 840 q 290 824 301 840 q 272 778 278 808 l 182 807 z "},"ä":{"ha":840,"x_min":63,"x_max":722,"o":"m 722 653 l 722 0 l 594 0 l 594 139 q 540 29 592 72 q 393 -14 489 -14 q 306 -2 349 -14 q 229 29 263 10 q 108 151 154 74 q 63 326 63 228 q 109 503 63 425 q 231 625 156 581 q 304 656 264 644 q 390 667 344 667 q 540 624 488 667 q 594 519 592 581 l 594 653 l 722 653 m 590 449 q 512 515 560 489 q 404 542 464 542 q 318 524 357 542 q 252 477 279 507 q 210 408 225 447 q 194 326 194 369 q 210 243 194 282 q 256 175 226 204 q 324 128 285 146 q 411 111 364 111 q 509 135 461 111 q 590 204 557 160 l 590 449 m 197 857 q 222 919 197 893 q 283 944 247 944 q 345 919 319 944 q 371 857 371 893 q 345 796 371 821 q 283 771 319 771 q 222 796 247 771 q 197 857 197 821 m 454 857 q 479 919 454 893 q 540 944 504 944 q 602 919 576 944 q 628 857 628 893 q 602 796 628 821 q 540 771 576 771 q 479 796 504 771 q 454 857 454 821 z "},"å":{"ha":840,"x_min":63,"x_max":722,"o":"m 722 653 l 722 0 l 594 0 l 594 139 q 540 29 592 72 q 393 -14 489 -14 q 306 -2 349 -14 q 229 29 263 10 q 108 151 154 74 q 63 326 63 228 q 109 503 63 425 q 231 625 156 581 q 304 656 264 644 q 390 667 344 667 q 540 624 488 667 q 594 519 592 581 l 594 653 l 722 653 m 590 449 q 512 515 560 489 q 404 542 464 542 q 318 524 357 542 q 252 477 279 507 q 210 408 225 447 q 194 326 194 369 q 210 243 194 282 q 256 175 226 204 q 324 128 285 146 q 411 111 364 111 q 509 135 461 111 q 590 204 557 160 l 590 449 m 274 875 q 314 974 274 933 q 413 1014 354 1014 q 511 974 471 1014 q 551 875 551 933 q 511 776 551 817 q 413 736 471 736 q 314 776 354 736 q 274 875 274 817 m 357 875 q 373 835 357 851 q 413 819 389 819 q 452 835 436 819 q 468 875 468 851 q 452 915 468 899 q 413 931 436 931 q 373 915 389 931 q 357 875 357 899 z "},"æ":{"ha":1290,"x_min":63,"x_max":1228,"o":"m 594 139 q 540 29 592 72 q 393 -14 489 -14 q 306 -2 349 -14 q 229 29 263 10 q 108 151 154 74 q 63 326 63 228 q 109 503 63 425 q 231 625 156 581 q 304 656 264 644 q 390 667 344 667 q 540 624 488 667 q 594 519 592 581 l 594 653 l 711 653 l 711 593 q 799 647 750 628 q 907 667 849 667 q 1032 640 974 667 q 1134 568 1090 614 q 1203 460 1178 522 q 1228 326 1228 399 q 1228 315 1228 322 q 1226 299 1228 308 l 717 299 q 739 222 721 257 q 787 159 757 186 q 856 117 817 132 q 939 101 894 101 q 1001 110 974 101 q 1051 131 1029 118 q 1091 159 1074 143 q 1122 190 1108 175 l 1208 108 q 1106 24 1172 63 q 942 -14 1039 -14 q 816 9 875 -14 q 711 75 757 32 l 711 0 l 594 0 l 594 139 m 590 449 q 512 515 560 489 q 404 542 464 542 q 318 524 357 542 q 252 477 279 507 q 210 408 225 447 q 194 326 194 369 q 210 243 194 282 q 256 175 226 204 q 324 128 285 146 q 411 111 364 111 q 509 135 461 111 q 590 204 557 160 l 590 449 m 913 551 q 794 513 846 551 q 724 410 742 474 l 1090 410 q 1065 467 1082 440 q 1024 512 1047 493 q 972 541 1000 531 q 913 551 943 551 z "},"ç":{"ha":736,"x_min":63,"x_max":701,"o":"m 701 139 q 601 40 665 81 q 458 -10 536 0 l 422 -194 l 276 -194 l 361 -10 q 241 27 296 -1 q 147 100 186 56 q 85 202 107 144 q 63 326 63 260 q 88 461 63 399 q 159 569 114 524 q 267 641 204 615 q 403 667 329 667 q 562 628 489 667 q 681 525 635 589 l 583 443 q 510 511 556 481 q 403 542 465 542 q 320 526 358 542 q 254 481 282 510 q 210 412 226 451 q 194 326 194 372 q 210 238 194 278 q 256 171 226 199 q 324 127 285 143 q 411 111 364 111 q 522 141 476 111 q 600 213 568 171 l 701 139 z "},"è":{"ha":757,"x_min":63,"x_max":694,"o":"m 364 764 l 218 972 l 364 972 l 454 764 l 364 764 m 190 299 q 210 222 193 257 q 256 159 228 186 q 321 117 283 132 q 401 101 358 101 q 517 130 474 101 q 589 190 561 158 l 675 108 q 569 24 639 61 q 400 -14 500 -14 q 267 12 329 -14 q 160 83 206 38 q 88 190 114 128 q 63 326 63 253 q 86 463 63 400 q 152 570 110 525 q 253 641 194 615 q 381 667 311 667 q 506 641 449 667 q 606 569 564 615 q 671 461 647 524 q 694 326 694 399 q 694 315 694 322 q 693 299 694 308 l 190 299 m 385 551 q 269 513 321 551 q 201 410 218 474 l 557 410 q 533 467 550 440 q 492 512 515 493 q 442 541 469 531 q 385 551 414 551 z "},"é":{"ha":757,"x_min":63,"x_max":694,"o":"m 329 764 l 419 972 l 565 972 l 419 764 l 329 764 m 190 299 q 210 222 193 257 q 256 159 228 186 q 321 117 283 132 q 401 101 358 101 q 517 130 474 101 q 589 190 561 158 l 675 108 q 569 24 639 61 q 400 -14 500 -14 q 267 12 329 -14 q 160 83 206 38 q 88 190 114 128 q 63 326 63 253 q 86 463 63 400 q 152 570 110 525 q 253 641 194 615 q 381 667 311 667 q 506 641 449 667 q 606 569 564 615 q 671 461 647 524 q 694 326 694 399 q 694 315 694 322 q 693 299 694 308 l 190 299 m 385 551 q 269 513 321 551 q 201 410 218 474 l 557 410 q 533 467 550 440 q 492 512 515 493 q 442 541 469 531 q 385 551 414 551 z "},"ê":{"ha":757,"x_min":63,"x_max":694,"o":"m 176 764 l 308 972 l 461 972 l 593 764 l 503 764 l 385 894 l 267 764 l 176 764 m 190 299 q 210 222 193 257 q 256 159 228 186 q 321 117 283 132 q 401 101 358 101 q 517 130 474 101 q 589 190 561 158 l 675 108 q 569 24 639 61 q 400 -14 500 -14 q 267 12 329 -14 q 160 83 206 38 q 88 190 114 128 q 63 326 63 253 q 86 463 63 400 q 152 570 110 525 q 253 641 194 615 q 381 667 311 667 q 506 641 449 667 q 606 569 564 615 q 671 461 647 524 q 694 326 694 399 q 694 315 694 322 q 693 299 694 308 l 190 299 m 385 551 q 269 513 321 551 q 201 410 218 474 l 557 410 q 533 467 550 440 q 492 512 515 493 q 442 541 469 531 q 385 551 414 551 z "},"ë":{"ha":757,"x_min":63,"x_max":694,"o":"m 163 857 q 188 919 163 893 q 249 944 213 944 q 310 919 285 944 q 336 857 336 893 q 310 796 336 821 q 249 771 285 771 q 188 796 213 771 q 163 857 163 821 m 419 857 q 444 919 419 893 q 506 944 469 944 q 567 919 542 944 q 593 857 593 893 q 567 796 593 821 q 506 771 542 771 q 444 796 469 771 q 419 857 419 821 m 190 299 q 210 222 193 257 q 256 159 228 186 q 321 117 283 132 q 401 101 358 101 q 517 130 474 101 q 589 190 561 158 l 675 108 q 569 24 639 61 q 400 -14 500 -14 q 267 12 329 -14 q 160 83 206 38 q 88 190 114 128 q 63 326 63 253 q 86 463 63 400 q 152 570 110 525 q 253 641 194 615 q 381 667 311 667 q 506 641 449 667 q 606 569 564 615 q 671 461 647 524 q 694 326 694 399 q 694 315 694 322 q 693 299 694 308 l 190 299 m 385 551 q 269 513 321 551 q 201 410 218 474 l 557 410 q 533 467 550 440 q 492 512 515 493 q 442 541 469 531 q 385 551 414 551 z "},"ì":{"ha":368,"x_min":14,"x_max":250,"o":"m 118 653 l 250 653 l 250 0 l 118 0 l 118 653 m 160 764 l 14 972 l 160 972 l 250 764 l 160 764 z "},"í":{"ha":368,"x_min":118,"x_max":354,"o":"m 118 653 l 250 653 l 250 0 l 118 0 l 118 653 m 118 764 l 208 972 l 354 972 l 208 764 l 118 764 z "},"î":{"ha":368,"x_min":-25,"x_max":392,"o":"m 118 653 l 250 653 l 250 0 l 118 0 l 118 653 m -25 764 l 107 972 l 260 972 l 392 764 l 301 764 l 183 894 l 65 764 l -25 764 z "},"ï":{"ha":368,"x_min":-32,"x_max":399,"o":"m 118 653 l 250 653 l 250 0 l 118 0 l 118 653 m -32 857 q -7 919 -32 893 q 54 944 18 944 q 116 919 90 944 q 142 857 142 893 q 116 796 142 821 q 54 771 90 771 q -7 796 18 771 q -32 857 -32 821 m 225 857 q 250 919 225 893 q 311 944 275 944 q 373 919 347 944 q 399 857 399 893 q 373 796 399 821 q 311 771 347 771 q 250 796 275 771 q 225 857 225 821 z "},"ð":{"ha":800,"x_min":63,"x_max":738,"o":"m 253 696 l 190 790 l 301 861 l 219 986 l 374 986 l 410 929 l 521 1000 l 583 906 l 472 835 l 639 585 q 710 453 683 518 q 738 326 738 388 q 712 194 738 256 q 641 86 686 132 q 534 13 596 40 q 400 -14 472 -14 q 266 13 328 -14 q 159 85 204 39 q 88 194 114 132 q 63 326 63 256 q 88 459 63 397 q 158 567 113 521 q 265 640 203 613 q 400 667 326 667 q 415 666 407 667 q 432 664 424 665 l 364 767 l 253 696 m 400 542 q 317 525 354 542 q 252 479 279 508 q 210 410 225 450 q 194 326 194 371 q 210 242 194 282 q 252 174 225 203 q 317 128 279 144 q 400 111 354 111 q 483 128 446 111 q 548 174 521 144 q 590 242 575 203 q 606 326 606 282 q 585 421 606 371 q 533 510 565 471 q 474 532 510 522 q 400 542 438 542 z "},"ñ":{"ha":847,"x_min":118,"x_max":743,"o":"m 442 667 q 576 635 514 667 q 679 551 638 604 q 727 458 711 511 q 743 319 743 404 l 743 0 l 611 0 l 611 326 q 601 422 611 389 q 572 478 590 456 q 513 524 549 507 q 438 542 478 542 q 326 513 372 542 q 250 449 279 485 l 250 0 l 118 0 l 118 653 l 246 653 l 246 525 q 302 625 250 583 q 442 667 354 667 m 196 807 q 208 865 197 838 q 236 914 218 893 q 279 947 254 935 q 336 958 304 958 q 388 949 363 958 q 436 927 413 939 q 482 906 460 915 q 525 896 504 896 q 560 912 549 896 q 578 958 572 928 l 668 929 q 656 871 667 899 q 628 822 646 843 q 584 790 610 801 q 528 778 558 778 q 476 788 501 778 q 428 809 451 797 q 382 831 404 821 q 339 840 360 840 q 303 824 315 840 q 286 778 292 808 l 196 807 z "},"ò":{"ha":800,"x_min":63,"x_max":738,"o":"m 63 326 q 88 461 63 399 q 159 569 114 524 q 266 641 204 615 q 400 667 328 667 q 534 641 472 667 q 641 569 596 615 q 712 461 686 524 q 738 326 738 399 q 712 191 738 253 q 641 83 686 129 q 534 12 596 38 q 400 -14 472 -14 q 266 12 328 -14 q 159 83 204 38 q 88 191 114 129 q 63 326 63 253 m 194 326 q 210 242 194 282 q 252 174 225 203 q 317 128 279 144 q 400 111 354 111 q 483 128 446 111 q 548 174 521 144 q 590 242 575 203 q 606 326 606 282 q 590 410 606 371 q 548 479 575 450 q 483 525 521 508 q 400 542 446 542 q 317 525 354 542 q 252 479 279 508 q 210 410 225 450 q 194 326 194 371 m 358 764 l 213 972 l 358 972 l 449 764 l 358 764 z "},"ó":{"ha":800,"x_min":63,"x_max":738,"o":"m 63 326 q 88 461 63 399 q 159 569 114 524 q 266 641 204 615 q 400 667 328 667 q 534 641 472 667 q 641 569 596 615 q 712 461 686 524 q 738 326 738 399 q 712 191 738 253 q 641 83 686 129 q 534 12 596 38 q 400 -14 472 -14 q 266 12 328 -14 q 159 83 204 38 q 88 191 114 129 q 63 326 63 253 m 194 326 q 210 242 194 282 q 252 174 225 203 q 317 128 279 144 q 400 111 354 111 q 483 128 446 111 q 548 174 521 144 q 590 242 575 203 q 606 326 606 282 q 590 410 606 371 q 548 479 575 450 q 483 525 521 508 q 400 542 446 542 q 317 525 354 542 q 252 479 279 508 q 210 410 225 450 q 194 326 194 371 m 351 764 l 442 972 l 588 972 l 442 764 l 351 764 z "},"ô":{"ha":800,"x_min":63,"x_max":738,"o":"m 63 326 q 88 461 63 399 q 159 569 114 524 q 266 641 204 615 q 400 667 328 667 q 534 641 472 667 q 641 569 596 615 q 712 461 686 524 q 738 326 738 399 q 712 191 738 253 q 641 83 686 129 q 534 12 596 38 q 400 -14 472 -14 q 266 12 328 -14 q 159 83 204 38 q 88 191 114 129 q 63 326 63 253 m 194 326 q 210 242 194 282 q 252 174 225 203 q 317 128 279 144 q 400 111 354 111 q 483 128 446 111 q 548 174 521 144 q 590 242 575 203 q 606 326 606 282 q 590 410 606 371 q 548 479 575 450 q 483 525 521 508 q 400 542 446 542 q 317 525 354 542 q 252 479 279 508 q 210 410 225 450 q 194 326 194 371 m 192 764 l 324 972 l 476 972 l 608 764 l 518 764 l 400 894 l 282 764 l 192 764 z "},"õ":{"ha":800,"x_min":63,"x_max":738,"o":"m 63 326 q 88 461 63 399 q 159 569 114 524 q 266 641 204 615 q 400 667 328 667 q 534 641 472 667 q 641 569 596 615 q 712 461 686 524 q 738 326 738 399 q 712 191 738 253 q 641 83 686 129 q 534 12 596 38 q 400 -14 472 -14 q 266 12 328 -14 q 159 83 204 38 q 88 191 114 129 q 63 326 63 253 m 194 326 q 210 242 194 282 q 252 174 225 203 q 317 128 279 144 q 400 111 354 111 q 483 128 446 111 q 548 174 521 144 q 590 242 575 203 q 606 326 606 282 q 590 410 606 371 q 548 479 575 450 q 483 525 521 508 q 400 542 446 542 q 317 525 354 542 q 252 479 279 508 q 210 410 225 450 q 194 326 194 371 m 165 807 q 177 865 167 838 q 206 914 188 893 q 249 947 224 935 q 306 958 274 958 q 357 949 332 958 q 406 927 382 939 q 451 906 429 915 q 494 896 474 896 q 530 912 518 896 q 547 958 542 928 l 638 929 q 626 871 636 899 q 597 822 615 843 q 553 790 579 801 q 497 778 528 778 q 446 788 471 778 q 397 809 421 797 q 351 831 374 821 q 308 840 329 840 q 273 824 285 840 q 256 778 261 808 l 165 807 z "},"ö":{"ha":800,"x_min":63,"x_max":738,"o":"m 63 326 q 88 461 63 399 q 159 569 114 524 q 266 641 204 615 q 400 667 328 667 q 534 641 472 667 q 641 569 596 615 q 712 461 686 524 q 738 326 738 399 q 712 191 738 253 q 641 83 686 129 q 534 12 596 38 q 400 -14 472 -14 q 266 12 328 -14 q 159 83 204 38 q 88 191 114 129 q 63 326 63 253 m 194 326 q 210 242 194 282 q 252 174 225 203 q 317 128 279 144 q 400 111 354 111 q 483 128 446 111 q 548 174 521 144 q 590 242 575 203 q 606 326 606 282 q 590 410 606 371 q 548 479 575 450 q 483 525 521 508 q 400 542 446 542 q 317 525 354 542 q 252 479 279 508 q 210 410 225 450 q 194 326 194 371 m 185 857 q 210 919 185 893 q 271 944 235 944 q 333 919 307 944 q 358 857 358 893 q 333 796 358 821 q 271 771 307 771 q 210 796 235 771 q 185 857 185 821 m 442 857 q 467 919 442 893 q 528 944 492 944 q 590 919 564 944 q 615 857 615 893 q 590 796 615 821 q 528 771 564 771 q 467 796 492 771 q 442 857 442 821 z "},"÷":{"ha":750,"x_min":69,"x_max":681,"o":"m 681 424 l 681 299 l 69 299 l 69 424 l 681 424 m 278 139 q 306 208 278 179 q 375 236 335 236 q 444 208 415 236 q 472 139 472 179 q 444 70 472 99 q 375 42 415 42 q 306 70 335 42 q 278 139 278 99 m 278 583 q 306 652 278 624 q 375 681 335 681 q 444 652 415 681 q 472 583 472 624 q 444 515 472 543 q 375 486 415 486 q 306 515 335 486 q 278 583 278 543 z "},"ø":{"ha":800,"x_min":38,"x_max":764,"o":"m 63 326 q 88 461 63 399 q 159 569 114 524 q 266 641 204 615 q 400 667 328 667 q 491 655 449 667 q 571 622 533 643 l 610 667 l 764 667 l 661 546 q 717 446 697 501 q 738 326 738 390 q 712 191 738 253 q 641 83 686 129 q 534 12 596 38 q 400 -14 472 -14 q 229 29 304 -14 l 193 -14 l 38 -14 l 138 106 q 82 206 101 150 q 63 326 63 261 m 194 326 q 225 210 194 263 l 488 522 q 400 542 446 542 q 317 525 354 542 q 252 479 279 508 q 210 410 225 450 q 194 326 194 371 m 606 326 q 575 442 606 389 l 313 129 q 400 111 353 111 q 483 128 446 111 q 548 174 521 144 q 590 242 575 203 q 606 326 606 282 z "},"ù":{"ha":833,"x_min":104,"x_max":715,"o":"m 396 -14 q 265 15 325 -14 q 164 96 204 44 q 119 185 133 133 q 104 319 104 236 l 104 653 l 236 653 l 236 299 q 246 219 236 249 q 274 168 256 189 q 329 126 296 142 q 400 111 363 111 q 508 141 461 111 q 583 204 556 171 l 583 653 l 715 653 l 715 0 l 588 0 l 588 132 q 533 28 585 71 q 396 -14 482 -14 m 382 764 l 236 972 l 382 972 l 472 764 l 382 764 z "},"ú":{"ha":833,"x_min":104,"x_max":715,"o":"m 396 -14 q 265 15 325 -14 q 164 96 204 44 q 119 185 133 133 q 104 319 104 236 l 104 653 l 236 653 l 236 299 q 246 219 236 249 q 274 168 256 189 q 329 126 296 142 q 400 111 363 111 q 508 141 461 111 q 583 204 556 171 l 583 653 l 715 653 l 715 0 l 588 0 l 588 132 q 533 28 585 71 q 396 -14 482 -14 m 361 764 l 451 972 l 597 972 l 451 764 l 361 764 z "},"û":{"ha":833,"x_min":104,"x_max":715,"o":"m 396 -14 q 265 15 325 -14 q 164 96 204 44 q 119 185 133 133 q 104 319 104 236 l 104 653 l 236 653 l 236 299 q 246 219 236 249 q 274 168 256 189 q 329 126 296 142 q 400 111 363 111 q 508 141 461 111 q 583 204 556 171 l 583 653 l 715 653 l 715 0 l 588 0 l 588 132 q 533 28 585 71 q 396 -14 482 -14 m 201 764 l 333 972 l 486 972 l 618 764 l 528 764 l 410 894 l 292 764 l 201 764 z "},"ü":{"ha":833,"x_min":104,"x_max":715,"o":"m 396 -14 q 265 15 325 -14 q 164 96 204 44 q 119 185 133 133 q 104 319 104 236 l 104 653 l 236 653 l 236 299 q 246 219 236 249 q 274 168 256 189 q 329 126 296 142 q 400 111 363 111 q 508 141 461 111 q 583 204 556 171 l 583 653 l 715 653 l 715 0 l 588 0 l 588 132 q 533 28 585 71 q 396 -14 482 -14 m 194 857 q 219 919 194 893 q 281 944 244 944 q 342 919 317 944 q 368 857 368 893 q 342 796 368 821 q 281 771 317 771 q 219 796 244 771 q 194 857 194 821 m 451 857 q 476 919 451 893 q 538 944 501 944 q 599 919 574 944 q 625 857 625 893 q 599 796 625 821 q 538 771 574 771 q 476 796 501 771 q 451 857 451 821 z "},"ý":{"ha":707,"x_min":14,"x_max":686,"o":"m 117 -333 l 293 68 l 14 653 l 156 653 l 360 222 l 547 653 l 686 653 l 257 -333 l 117 -333 m 308 764 l 399 972 l 544 972 l 399 764 l 308 764 z "},"þ":{"ha":840,"x_min":118,"x_max":778,"o":"m 250 986 l 250 528 q 305 626 254 586 q 450 667 356 667 q 536 656 496 667 q 610 625 576 644 q 731 503 685 581 q 778 326 778 425 q 732 151 778 228 q 611 29 686 74 q 535 -2 578 10 q 447 -14 492 -14 q 303 26 351 -14 q 250 128 254 65 l 250 -333 l 118 -333 l 118 986 l 250 986 m 250 204 q 331 135 283 160 q 429 111 379 111 q 516 128 476 111 q 585 175 556 146 q 630 243 614 204 q 646 326 646 282 q 631 408 646 369 q 588 477 615 447 q 522 524 561 507 q 436 542 483 542 q 328 515 376 542 q 250 449 281 489 l 250 204 z "},"ÿ":{"ha":707,"x_min":14,"x_max":686,"o":"m 117 -333 l 293 68 l 14 653 l 156 653 l 360 222 l 547 653 l 686 653 l 257 -333 l 117 -333 m 131 857 q 156 919 131 893 q 217 944 181 944 q 278 919 253 944 q 304 857 304 893 q 278 796 304 821 q 217 771 253 771 q 156 796 181 771 q 131 857 131 821 m 388 857 q 413 919 388 893 q 474 944 438 944 q 535 919 510 944 q 561 857 561 893 q 535 796 561 821 q 474 771 510 771 q 413 796 438 771 q 388 857 388 821 z "},"Ā":{"ha":917,"x_min":7,"x_max":910,"o":"m 667 1194 l 667 1076 l 250 1076 l 250 1194 l 667 1194 m 663 250 l 253 250 l 151 0 l 7 0 l 410 972 l 507 972 l 910 0 l 765 0 l 663 250 m 308 382 l 608 382 l 458 743 l 308 382 z "},"ā":{"ha":840,"x_min":63,"x_max":722,"o":"m 722 653 l 722 0 l 594 0 l 594 139 q 540 29 592 72 q 393 -14 489 -14 q 306 -2 349 -14 q 229 29 263 10 q 108 151 154 74 q 63 326 63 228 q 109 503 63 425 q 231 625 156 581 q 304 656 264 644 q 390 667 344 667 q 542 622 490 667 q 594 514 594 576 l 594 653 l 722 653 m 590 449 q 512 515 560 489 q 404 542 464 542 q 318 524 357 542 q 252 477 279 507 q 210 408 225 447 q 194 326 194 369 q 210 243 194 282 q 256 175 226 204 q 324 128 285 146 q 411 111 364 111 q 509 135 461 111 q 590 204 557 160 l 590 449 m 639 917 l 639 799 l 222 799 l 222 917 l 639 917 z "},"Ă":{"ha":917,"x_min":7,"x_max":910,"o":"m 653 1250 q 638 1174 653 1210 q 596 1113 622 1139 q 534 1071 569 1086 q 458 1056 499 1056 q 383 1071 418 1056 q 321 1113 347 1086 q 279 1174 294 1139 q 264 1250 264 1210 l 375 1250 q 399 1191 375 1215 q 458 1167 424 1167 q 517 1191 493 1167 q 542 1250 542 1215 l 653 1250 m 663 250 l 253 250 l 151 0 l 7 0 l 410 972 l 507 972 l 910 0 l 765 0 l 663 250 m 308 382 l 608 382 l 458 743 l 308 382 z "},"ă":{"ha":840,"x_min":63,"x_max":722,"o":"m 722 653 l 722 0 l 594 0 l 594 139 q 540 29 592 72 q 393 -14 489 -14 q 306 -2 349 -14 q 229 29 263 10 q 108 151 154 74 q 63 326 63 228 q 109 503 63 425 q 231 625 156 581 q 304 656 264 644 q 390 667 344 667 q 540 624 488 667 q 594 519 592 581 l 594 653 l 722 653 m 590 449 q 512 515 560 489 q 404 542 464 542 q 318 524 357 542 q 252 477 279 507 q 210 408 225 447 q 194 326 194 369 q 210 243 194 282 q 256 175 226 204 q 324 128 285 146 q 411 111 364 111 q 509 135 461 111 q 590 204 557 160 l 590 449 m 618 972 q 603 897 618 932 q 561 835 588 861 q 499 793 535 808 q 424 778 464 778 q 348 793 383 778 q 286 835 313 808 q 244 897 260 861 q 229 972 229 932 l 340 972 q 365 913 340 938 q 424 889 389 889 q 483 913 458 889 q 507 972 507 938 l 618 972 z "},"Ą":{"ha":917,"x_min":7,"x_max":982,"o":"m 910 0 q 879 -56 894 -24 q 864 -119 864 -89 q 883 -165 864 -150 q 929 -181 901 -181 q 948 -179 940 -181 q 961 -175 956 -178 l 982 -293 q 956 -301 975 -296 q 906 -306 936 -306 q 836 -292 868 -306 q 781 -257 804 -279 q 745 -204 758 -235 q 732 -139 732 -174 q 743 -65 732 -99 q 768 -8 754 -31 l 663 250 l 253 250 l 151 0 l 7 0 l 410 972 l 507 972 l 910 0 m 308 382 l 608 382 l 458 743 l 308 382 z "},"ą":{"ha":840,"x_min":63,"x_max":788,"o":"m 722 653 l 722 0 l 713 0 q 683 -56 697 -22 q 669 -119 669 -89 q 688 -165 669 -150 q 735 -181 707 -181 q 753 -179 746 -181 q 767 -175 761 -178 l 788 -293 q 761 -301 781 -296 q 711 -306 742 -306 q 642 -292 674 -306 q 587 -257 610 -279 q 551 -204 564 -235 q 538 -139 538 -174 q 557 -43 538 -86 q 594 19 576 0 l 594 139 q 540 29 592 72 q 393 -14 489 -14 q 306 -2 349 -14 q 229 29 263 10 q 108 151 154 74 q 63 326 63 228 q 109 503 63 425 q 231 625 156 581 q 304 656 264 644 q 390 667 344 667 q 542 622 490 667 q 594 514 594 576 l 594 653 l 722 653 m 590 449 q 512 515 560 489 q 404 542 464 542 q 318 524 357 542 q 252 477 279 507 q 210 408 225 447 q 194 326 194 369 q 210 243 194 282 q 256 175 226 204 q 324 128 285 146 q 411 111 364 111 q 509 135 461 111 q 590 204 557 160 l 590 449 z "},"Ć":{"ha":958,"x_min":49,"x_max":931,"o":"m 49 486 q 86 683 49 592 q 190 841 124 774 q 345 947 256 908 q 540 986 435 986 q 738 947 644 986 q 896 836 832 907 l 803 744 q 690 823 760 792 q 540 854 619 854 q 401 826 465 854 q 290 749 338 799 q 215 633 242 700 q 188 486 188 565 q 217 326 188 394 q 295 210 246 257 q 411 141 344 164 q 553 118 478 118 q 644 131 601 118 q 721 163 686 143 q 783 206 756 182 q 832 256 811 231 l 931 167 q 857 93 899 126 q 767 36 815 60 q 663 -1 718 13 q 553 -14 608 -14 q 352 24 444 -14 q 192 128 260 61 q 87 286 125 194 q 49 486 49 378 m 472 1042 l 563 1250 l 708 1250 l 563 1042 l 472 1042 z "},"ć":{"ha":736,"x_min":63,"x_max":701,"o":"m 701 139 q 650 77 681 106 q 581 28 619 49 q 499 -3 543 8 q 411 -14 456 -14 q 272 12 336 -14 q 162 83 208 38 q 89 192 115 129 q 63 326 63 254 q 88 461 63 399 q 159 569 114 524 q 267 641 204 615 q 403 667 329 667 q 562 628 489 667 q 681 525 635 589 l 583 443 q 510 511 556 481 q 403 542 465 542 q 320 526 358 542 q 254 481 282 510 q 210 412 226 451 q 194 326 194 372 q 210 238 194 278 q 256 171 226 199 q 324 127 285 143 q 411 111 364 111 q 522 141 476 111 q 600 213 568 171 l 701 139 m 340 764 l 431 972 l 576 972 l 431 764 l 340 764 z "},"Ĉ":{"ha":958,"x_min":49,"x_max":931,"o":"m 49 486 q 86 683 49 592 q 190 841 124 774 q 345 947 256 908 q 540 986 435 986 q 738 947 644 986 q 896 836 832 907 l 803 744 q 690 823 760 792 q 540 854 619 854 q 401 826 465 854 q 290 749 338 799 q 215 633 242 700 q 188 486 188 565 q 217 326 188 394 q 295 210 246 257 q 411 141 344 164 q 553 118 478 118 q 644 131 601 118 q 721 163 686 143 q 783 206 756 182 q 832 256 811 231 l 931 167 q 857 93 899 126 q 767 36 815 60 q 663 -1 718 13 q 553 -14 608 -14 q 352 24 444 -14 q 192 128 260 61 q 87 286 125 194 q 49 486 49 378 m 325 1042 l 457 1250 l 610 1250 l 742 1042 l 651 1042 l 533 1172 l 415 1042 l 325 1042 z "},"ĉ":{"ha":736,"x_min":63,"x_max":701,"o":"m 701 139 q 650 77 681 106 q 581 28 619 49 q 499 -3 543 8 q 411 -14 456 -14 q 272 12 336 -14 q 162 83 208 38 q 89 192 115 129 q 63 326 63 254 q 88 461 63 399 q 159 569 114 524 q 267 641 204 615 q 403 667 329 667 q 562 628 489 667 q 681 525 635 589 l 583 443 q 510 511 556 481 q 403 542 465 542 q 320 526 358 542 q 254 481 282 510 q 210 412 226 451 q 194 326 194 372 q 210 238 194 278 q 256 171 226 199 q 324 127 285 143 q 411 111 364 111 q 522 141 476 111 q 600 213 568 171 l 701 139 m 181 764 l 313 972 l 465 972 l 597 764 l 507 764 l 389 894 l 271 764 l 181 764 z "},"Ċ":{"ha":958,"x_min":49,"x_max":931,"o":"m 49 486 q 86 683 49 592 q 190 841 124 774 q 345 947 256 908 q 540 986 435 986 q 738 947 644 986 q 896 836 832 907 l 803 744 q 690 823 760 792 q 540 854 619 854 q 401 826 465 854 q 290 749 338 799 q 215 633 242 700 q 188 486 188 565 q 217 326 188 394 q 295 210 246 257 q 411 141 344 164 q 553 118 478 118 q 644 131 601 118 q 721 163 686 143 q 783 206 756 182 q 832 256 811 231 l 931 167 q 857 93 899 126 q 767 36 815 60 q 663 -1 718 13 q 553 -14 608 -14 q 352 24 444 -14 q 192 128 260 61 q 87 286 125 194 q 49 486 49 378 m 447 1163 q 472 1224 447 1199 q 533 1250 497 1250 q 595 1224 569 1250 q 621 1163 621 1199 q 595 1101 621 1126 q 533 1076 569 1076 q 472 1101 497 1076 q 447 1163 447 1126 z "},"ċ":{"ha":736,"x_min":63,"x_max":701,"o":"m 701 139 q 650 77 681 106 q 581 28 619 49 q 499 -3 543 8 q 411 -14 456 -14 q 272 12 336 -14 q 162 83 208 38 q 89 192 115 129 q 63 326 63 254 q 88 461 63 399 q 159 569 114 524 q 267 641 204 615 q 403 667 329 667 q 562 628 489 667 q 681 525 635 589 l 583 443 q 510 511 556 481 q 403 542 465 542 q 320 526 358 542 q 254 481 282 510 q 210 412 226 451 q 194 326 194 372 q 210 238 194 278 q 256 171 226 199 q 324 127 285 143 q 411 111 364 111 q 522 141 476 111 q 600 213 568 171 l 701 139 m 301 885 q 326 947 301 921 q 388 972 351 972 q 449 947 424 972 q 475 885 475 921 q 449 824 475 849 q 388 799 424 799 q 326 824 351 799 q 301 885 301 849 z "},"Č":{"ha":958,"x_min":49,"x_max":931,"o":"m 49 486 q 86 683 49 592 q 190 841 124 774 q 345 947 256 908 q 540 986 435 986 q 738 947 644 986 q 896 836 832 907 l 803 744 q 690 823 760 792 q 540 854 619 854 q 401 826 465 854 q 290 749 338 799 q 215 633 242 700 q 188 486 188 565 q 217 326 188 394 q 295 210 246 257 q 411 141 344 164 q 553 118 478 118 q 644 131 601 118 q 721 163 686 143 q 783 206 756 182 q 832 256 811 231 l 931 167 q 857 93 899 126 q 767 36 815 60 q 663 -1 718 13 q 553 -14 608 -14 q 352 24 444 -14 q 192 128 260 61 q 87 286 125 194 q 49 486 49 378 m 401 1250 l 519 1119 l 638 1250 l 728 1250 l 596 1042 l 443 1042 l 311 1250 l 401 1250 z "},"č":{"ha":736,"x_min":63,"x_max":701,"o":"m 701 139 q 650 77 681 106 q 581 28 619 49 q 499 -3 543 8 q 411 -14 456 -14 q 272 12 336 -14 q 162 83 208 38 q 89 192 115 129 q 63 326 63 254 q 88 461 63 399 q 159 569 114 524 q 267 641 204 615 q 403 667 329 667 q 562 628 489 667 q 681 525 635 589 l 583 443 q 510 511 556 481 q 403 542 465 542 q 320 526 358 542 q 254 481 282 510 q 210 412 226 451 q 194 326 194 372 q 210 238 194 278 q 256 171 226 199 q 324 127 285 143 q 411 111 364 111 q 522 141 476 111 q 600 213 568 171 l 701 139 m 278 972 l 396 842 l 514 972 l 604 972 l 472 764 l 319 764 l 188 972 l 278 972 z "},"Ď":{"ha":993,"x_min":125,"x_max":944,"o":"m 806 486 q 774 639 806 568 q 688 758 743 710 q 577 819 642 799 q 410 840 513 840 l 264 840 l 264 132 l 410 132 q 577 153 513 132 q 688 214 642 174 q 774 333 743 263 q 806 486 806 404 m 125 0 l 125 972 l 417 972 q 612 949 533 972 q 750 881 690 925 q 892 711 840 814 q 944 486 944 608 q 893 261 944 364 q 751 92 842 158 q 613 24 692 47 q 417 0 533 0 l 125 0 m 304 1250 l 422 1119 l 540 1250 l 631 1250 l 499 1042 l 346 1042 l 214 1250 l 304 1250 z "},"ď":{"ha":924,"x_min":63,"x_max":1000,"o":"m 722 986 l 722 0 l 594 0 l 594 139 q 540 29 592 72 q 393 -14 489 -14 q 306 -2 349 -14 q 229 29 263 10 q 108 151 154 74 q 63 326 63 228 q 109 503 63 425 q 231 625 156 581 q 304 656 264 644 q 390 667 344 667 q 537 625 486 667 q 590 522 588 583 l 590 986 l 722 986 m 590 449 q 512 515 560 489 q 404 542 464 542 q 318 524 357 542 q 252 477 279 507 q 210 408 225 447 q 194 326 194 369 q 210 243 194 282 q 256 175 226 204 q 324 128 285 146 q 411 111 364 111 q 509 135 461 111 q 590 204 557 160 l 590 449 m 764 764 l 854 972 l 1000 972 l 854 764 l 764 764 z "},"Đ":{"ha":993,"x_min":-14,"x_max":944,"o":"m 125 0 l 125 458 l -14 458 l -14 590 l 125 590 l 125 972 l 417 972 q 612 949 533 972 q 750 881 690 925 q 892 711 840 814 q 944 486 944 608 q 893 261 944 364 q 751 92 842 158 q 613 24 692 47 q 417 0 533 0 l 125 0 m 806 486 q 774 639 806 568 q 688 758 743 710 q 577 819 642 799 q 410 840 513 840 l 264 840 l 264 590 l 542 590 l 542 458 l 264 458 l 264 132 l 410 132 q 577 153 513 132 q 688 214 642 174 q 774 333 743 263 q 806 486 806 404 z "},"đ":{"ha":840,"x_min":63,"x_max":833,"o":"m 722 986 l 722 861 l 833 861 l 833 743 l 722 743 l 722 0 l 594 0 l 594 139 q 540 29 592 72 q 393 -14 489 -14 q 306 -2 349 -14 q 229 29 263 10 q 108 151 154 74 q 63 326 63 228 q 109 503 63 425 q 231 625 156 581 q 304 656 264 644 q 390 667 344 667 q 537 625 486 667 q 590 522 588 583 l 590 743 l 424 743 l 424 861 l 590 861 l 590 986 l 722 986 m 590 449 q 512 515 560 489 q 404 542 464 542 q 318 524 357 542 q 252 477 279 507 q 210 408 225 447 q 194 326 194 369 q 210 243 194 282 q 256 175 226 204 q 324 128 285 146 q 411 111 364 111 q 509 135 461 111 q 590 204 557 160 l 590 449 z "},"Ē":{"ha":750,"x_min":125,"x_max":694,"o":"m 583 590 l 583 458 l 264 458 l 264 132 l 694 132 l 694 0 l 125 0 l 125 972 l 681 972 l 681 840 l 264 840 l 264 590 l 583 590 m 611 1194 l 611 1076 l 194 1076 l 194 1194 l 611 1194 z "},"ē":{"ha":757,"x_min":63,"x_max":694,"o":"m 589 917 l 589 799 l 172 799 l 172 917 l 589 917 m 190 299 q 210 222 193 257 q 256 159 228 186 q 321 117 283 132 q 401 101 358 101 q 517 130 474 101 q 589 190 561 158 l 675 108 q 569 24 639 61 q 400 -14 500 -14 q 267 12 329 -14 q 160 83 206 38 q 88 190 114 128 q 63 326 63 253 q 86 463 63 400 q 152 570 110 525 q 253 641 194 615 q 381 667 311 667 q 506 641 449 667 q 606 569 564 615 q 671 461 647 524 q 694 326 694 399 q 694 315 694 322 q 693 299 694 308 l 190 299 m 385 551 q 269 513 321 551 q 201 410 218 474 l 557 410 q 533 467 550 440 q 492 512 515 493 q 442 541 469 531 q 385 551 414 551 z "},"Ĕ":{"ha":750,"x_min":125,"x_max":694,"o":"m 583 590 l 583 458 l 264 458 l 264 132 l 694 132 l 694 0 l 125 0 l 125 972 l 681 972 l 681 840 l 264 840 l 264 590 l 583 590 m 597 1250 q 582 1174 597 1210 q 540 1113 567 1139 q 478 1071 514 1086 q 403 1056 443 1056 q 327 1071 363 1056 q 265 1113 292 1086 q 224 1174 239 1139 q 208 1250 208 1210 l 326 1250 q 349 1196 326 1218 q 403 1174 371 1174 q 457 1196 435 1174 q 479 1250 479 1218 l 597 1250 z "},"ĕ":{"ha":757,"x_min":63,"x_max":694,"o":"m 582 972 q 567 897 582 932 q 525 835 551 861 q 463 793 499 808 q 388 778 428 778 q 312 793 347 778 q 250 835 276 808 q 208 897 224 861 q 193 972 193 932 l 311 972 q 333 918 311 940 q 388 896 356 896 q 442 918 419 896 q 464 972 464 940 l 582 972 m 190 299 q 210 222 193 257 q 256 159 228 186 q 321 117 283 132 q 401 101 358 101 q 517 130 474 101 q 589 190 561 158 l 675 108 q 569 24 639 61 q 400 -14 500 -14 q 267 12 329 -14 q 160 83 206 38 q 88 190 114 128 q 63 326 63 253 q 86 463 63 400 q 152 570 110 525 q 253 641 194 615 q 381 667 311 667 q 506 641 449 667 q 606 569 564 615 q 671 461 647 524 q 694 326 694 399 q 694 315 694 322 q 693 299 694 308 l 190 299 m 385 551 q 269 513 321 551 q 201 410 218 474 l 557 410 q 533 467 550 440 q 492 512 515 493 q 442 541 469 531 q 385 551 414 551 z "},"Ė":{"ha":750,"x_min":125,"x_max":694,"o":"m 583 590 l 583 458 l 264 458 l 264 132 l 694 132 l 694 0 l 125 0 l 125 972 l 681 972 l 681 840 l 264 840 l 264 590 l 583 590 m 317 1163 q 342 1224 317 1199 q 403 1250 367 1250 q 465 1224 439 1250 q 490 1163 490 1199 q 465 1101 490 1126 q 403 1076 439 1076 q 342 1101 367 1076 q 317 1163 317 1126 z "},"ė":{"ha":757,"x_min":63,"x_max":694,"o":"m 294 885 q 319 947 294 921 q 381 972 344 972 q 442 947 417 972 q 468 885 468 921 q 442 824 468 849 q 381 799 417 799 q 319 824 344 799 q 294 885 294 849 m 190 299 q 210 222 193 257 q 256 159 228 186 q 321 117 283 132 q 401 101 358 101 q 517 130 474 101 q 589 190 561 158 l 675 108 q 569 24 639 61 q 400 -14 500 -14 q 267 12 329 -14 q 160 83 206 38 q 88 190 114 128 q 63 326 63 253 q 86 463 63 400 q 152 570 110 525 q 253 641 194 615 q 381 667 311 667 q 506 641 449 667 q 606 569 564 615 q 671 461 647 524 q 694 326 694 399 q 694 315 694 322 q 693 299 694 308 l 190 299 m 385 551 q 269 513 321 551 q 201 410 218 474 l 557 410 q 533 467 550 440 q 492 512 515 493 q 442 541 469 531 q 385 551 414 551 z "},"Ę":{"ha":750,"x_min":125,"x_max":694,"o":"m 583 590 l 583 458 l 264 458 l 264 132 l 694 132 l 694 0 l 481 0 q 451 -56 465 -22 q 438 -119 438 -89 q 456 -165 438 -150 q 503 -181 475 -181 q 522 -179 514 -181 q 535 -175 529 -178 l 556 -293 q 529 -301 549 -296 q 479 -306 510 -306 q 410 -292 442 -306 q 355 -257 378 -279 q 319 -204 332 -235 q 306 -139 306 -174 q 319 -58 306 -94 q 347 0 332 -22 l 125 0 l 125 972 l 681 972 l 681 840 l 264 840 l 264 590 l 583 590 z "},"ę":{"ha":757,"x_min":63,"x_max":694,"o":"m 190 299 q 210 222 193 257 q 256 159 228 186 q 321 117 283 132 q 401 101 358 101 q 517 130 474 101 q 589 190 561 158 l 675 108 q 616 51 651 78 q 535 8 581 25 q 503 -49 519 -12 q 486 -119 486 -86 q 505 -165 486 -150 q 551 -181 524 -181 q 570 -179 563 -181 q 583 -175 578 -178 l 604 -293 q 578 -301 597 -296 q 528 -306 558 -306 q 458 -292 490 -306 q 403 -257 426 -279 q 367 -204 381 -235 q 354 -139 354 -174 q 364 -68 354 -100 q 388 -14 374 -36 q 259 15 318 -11 q 156 87 200 42 q 88 193 113 132 q 63 326 63 254 q 86 463 63 400 q 152 570 110 525 q 253 641 194 615 q 381 667 311 667 q 506 641 449 667 q 606 569 564 615 q 671 461 647 524 q 694 326 694 399 q 694 315 694 322 q 693 299 694 308 l 190 299 m 385 551 q 269 513 321 551 q 201 410 218 474 l 557 410 q 533 467 550 440 q 492 512 515 493 q 442 541 469 531 q 385 551 414 551 z "},"Ě":{"ha":750,"x_min":125,"x_max":694,"o":"m 583 590 l 583 458 l 264 458 l 264 132 l 694 132 l 694 0 l 125 0 l 125 972 l 681 972 l 681 840 l 264 840 l 264 590 l 583 590 m 285 1250 l 403 1119 l 521 1250 l 611 1250 l 479 1042 l 326 1042 l 194 1250 l 285 1250 z "},"ě":{"ha":757,"x_min":63,"x_max":694,"o":"m 267 972 l 385 842 l 503 972 l 593 972 l 461 764 l 308 764 l 176 972 l 267 972 m 190 299 q 210 222 193 257 q 256 159 228 186 q 321 117 283 132 q 401 101 358 101 q 517 130 474 101 q 589 190 561 158 l 675 108 q 569 24 639 61 q 400 -14 500 -14 q 267 12 329 -14 q 160 83 206 38 q 88 190 114 128 q 63 326 63 253 q 86 463 63 400 q 152 570 110 525 q 253 641 194 615 q 381 667 311 667 q 506 641 449 667 q 606 569 564 615 q 671 461 647 524 q 694 326 694 399 q 694 315 694 322 q 693 299 694 308 l 190 299 m 385 551 q 269 513 321 551 q 201 410 218 474 l 557 410 q 533 467 550 440 q 492 512 515 493 q 442 541 469 531 q 385 551 414 551 z "},"Ĝ":{"ha":1021,"x_min":49,"x_max":931,"o":"m 931 167 q 857 94 899 126 q 767 37 815 61 q 663 -1 718 13 q 553 -14 608 -14 q 352 24 444 -14 q 192 128 260 61 q 87 286 125 194 q 49 486 49 378 q 86 683 49 592 q 190 841 124 774 q 345 947 256 908 q 540 986 435 986 q 738 947 644 986 q 896 836 832 907 l 803 744 q 690 823 760 792 q 540 854 619 854 q 401 826 465 854 q 290 749 338 799 q 215 633 242 700 q 188 486 188 565 q 215 336 188 404 q 292 219 243 268 q 408 144 342 171 q 553 118 475 118 q 692 144 631 118 q 792 208 753 169 l 792 458 l 514 458 l 514 590 l 931 590 l 931 167 m 311 1042 l 443 1250 l 596 1250 l 728 1042 l 638 1042 l 519 1172 l 401 1042 l 311 1042 z "},"ĝ":{"ha":840,"x_min":63,"x_max":722,"o":"m 590 135 q 538 27 588 68 q 393 -14 489 -14 q 306 -2 349 -14 q 229 29 263 10 q 108 151 154 74 q 63 326 63 228 q 109 503 63 425 q 231 625 156 581 q 304 656 264 644 q 390 667 344 667 q 542 622 490 667 q 594 514 594 576 l 594 653 l 722 653 l 722 28 q 713 -97 722 -46 q 683 -186 703 -147 q 571 -305 643 -262 q 401 -347 499 -347 q 286 -333 338 -347 q 194 -296 235 -318 q 126 -247 154 -274 q 83 -196 99 -221 l 181 -106 q 266 -187 217 -153 q 396 -222 315 -222 q 554 -147 506 -222 q 581 -81 572 -119 q 590 21 590 -42 l 590 135 m 590 449 q 512 515 560 489 q 404 542 464 542 q 318 524 357 542 q 252 477 279 507 q 210 408 225 447 q 194 326 194 369 q 210 243 194 282 q 256 175 226 204 q 324 128 285 146 q 411 111 364 111 q 509 135 461 111 q 590 204 557 160 l 590 449 m 218 764 l 350 972 l 503 972 l 635 764 l 544 764 l 426 894 l 308 764 l 218 764 z "},"Ğ":{"ha":1021,"x_min":49,"x_max":931,"o":"m 931 167 q 857 94 899 126 q 767 37 815 61 q 663 -1 718 13 q 553 -14 608 -14 q 352 24 444 -14 q 192 128 260 61 q 87 286 125 194 q 49 486 49 378 q 86 683 49 592 q 190 841 124 774 q 345 947 256 908 q 540 986 435 986 q 738 947 644 986 q 896 836 832 907 l 803 744 q 690 823 760 792 q 540 854 619 854 q 401 826 465 854 q 290 749 338 799 q 215 633 242 700 q 188 486 188 565 q 215 336 188 404 q 292 219 243 268 q 408 144 342 171 q 553 118 475 118 q 692 144 631 118 q 792 208 753 169 l 792 458 l 514 458 l 514 590 l 931 590 l 931 167 m 714 1250 q 699 1174 714 1210 q 657 1113 683 1139 q 595 1071 631 1086 q 519 1056 560 1056 q 444 1071 479 1056 q 382 1113 408 1086 q 340 1174 356 1139 q 325 1250 325 1210 l 436 1250 q 460 1191 436 1215 q 519 1167 485 1167 q 578 1191 554 1167 q 603 1250 603 1215 l 714 1250 z "},"ğ":{"ha":840,"x_min":63,"x_max":722,"o":"m 590 135 q 538 27 588 68 q 393 -14 489 -14 q 306 -2 349 -14 q 229 29 263 10 q 108 151 154 74 q 63 326 63 228 q 109 503 63 425 q 231 625 156 581 q 304 656 264 644 q 390 667 344 667 q 540 624 488 667 q 594 519 592 581 l 594 653 l 722 653 l 722 28 q 713 -97 722 -46 q 683 -186 703 -147 q 571 -305 643 -262 q 401 -347 499 -347 q 286 -333 338 -347 q 194 -296 235 -318 q 126 -247 154 -274 q 83 -196 99 -221 l 181 -106 q 266 -187 217 -153 q 396 -222 315 -222 q 554 -147 506 -222 q 581 -81 572 -119 q 590 21 590 -42 l 590 135 m 590 449 q 512 515 560 489 q 404 542 464 542 q 318 524 357 542 q 252 477 279 507 q 210 408 225 447 q 194 326 194 369 q 210 243 194 282 q 256 175 226 204 q 324 128 285 146 q 411 111 364 111 q 509 135 461 111 q 590 204 557 160 l 590 449 m 618 972 q 603 897 618 932 q 561 835 588 861 q 499 793 535 808 q 424 778 464 778 q 348 793 383 778 q 286 835 313 808 q 244 897 260 861 q 229 972 229 932 l 340 972 q 365 913 340 938 q 424 889 389 889 q 483 913 458 889 q 507 972 507 938 l 618 972 z "},"Ġ":{"ha":1021,"x_min":49,"x_max":931,"o":"m 931 167 q 857 94 899 126 q 767 37 815 61 q 663 -1 718 13 q 553 -14 608 -14 q 352 24 444 -14 q 192 128 260 61 q 87 286 125 194 q 49 486 49 378 q 86 683 49 592 q 190 841 124 774 q 345 947 256 908 q 540 986 435 986 q 738 947 644 986 q 896 836 832 907 l 803 744 q 690 823 760 792 q 540 854 619 854 q 401 826 465 854 q 290 749 338 799 q 215 633 242 700 q 188 486 188 565 q 215 336 188 404 q 292 219 243 268 q 408 144 342 171 q 553 118 475 118 q 692 144 631 118 q 792 208 753 169 l 792 458 l 514 458 l 514 590 l 931 590 l 931 167 m 433 1163 q 458 1224 433 1199 q 519 1250 483 1250 q 581 1224 556 1250 q 607 1163 607 1199 q 581 1101 607 1126 q 519 1076 556 1076 q 458 1101 483 1076 q 433 1163 433 1126 z "},"ġ":{"ha":840,"x_min":63,"x_max":722,"o":"m 590 135 q 538 27 588 68 q 393 -14 489 -14 q 306 -2 349 -14 q 229 29 263 10 q 108 151 154 74 q 63 326 63 228 q 109 503 63 425 q 231 625 156 581 q 304 656 264 644 q 390 667 344 667 q 542 622 490 667 q 594 514 594 576 l 594 653 l 722 653 l 722 28 q 713 -97 722 -46 q 683 -186 703 -147 q 571 -305 643 -262 q 401 -347 499 -347 q 286 -333 338 -347 q 194 -296 235 -318 q 126 -247 154 -274 q 83 -196 99 -221 l 181 -106 q 266 -187 217 -153 q 396 -222 315 -222 q 554 -147 506 -222 q 581 -81 572 -119 q 590 21 590 -42 l 590 135 m 590 449 q 512 515 560 489 q 404 542 464 542 q 318 524 357 542 q 252 477 279 507 q 210 408 225 447 q 194 326 194 369 q 210 243 194 282 q 256 175 226 204 q 324 128 285 146 q 411 111 364 111 q 509 135 461 111 q 590 204 557 160 l 590 449 m 303 885 q 328 947 303 921 q 389 972 353 972 q 451 947 425 972 q 476 885 476 921 q 451 824 476 849 q 389 799 425 799 q 328 824 353 799 q 303 885 303 849 z "},"Ģ":{"ha":1021,"x_min":49,"x_max":931,"o":"m 931 167 q 857 94 899 126 q 767 37 815 61 q 663 -1 718 13 q 553 -14 608 -14 q 352 24 444 -14 q 192 128 260 61 q 87 286 125 194 q 49 486 49 378 q 86 683 49 592 q 190 841 124 774 q 345 947 256 908 q 540 986 435 986 q 738 947 644 986 q 896 836 832 907 l 803 744 q 690 823 760 792 q 540 854 619 854 q 401 826 465 854 q 290 749 338 799 q 215 633 242 700 q 188 486 188 565 q 215 336 188 404 q 292 219 243 268 q 408 144 342 171 q 553 118 475 118 q 692 144 631 118 q 792 208 753 169 l 792 458 l 514 458 l 514 590 l 931 590 l 931 167 m 393 -278 l 483 -69 l 629 -69 l 483 -278 l 393 -278 z "},"ģ":{"ha":840,"x_min":63,"x_max":722,"o":"m 590 135 q 538 27 588 68 q 393 -14 489 -14 q 306 -2 349 -14 q 229 29 263 10 q 108 151 154 74 q 63 326 63 228 q 109 503 63 425 q 231 625 156 581 q 304 656 264 644 q 390 667 344 667 q 542 622 490 667 q 594 514 594 576 l 594 653 l 722 653 l 722 28 q 713 -97 722 -46 q 683 -186 703 -147 q 571 -305 643 -262 q 401 -347 499 -347 q 286 -333 338 -347 q 194 -296 235 -318 q 126 -247 154 -274 q 83 -196 99 -221 l 181 -106 q 266 -187 217 -153 q 396 -222 315 -222 q 554 -147 506 -222 q 581 -81 572 -119 q 590 21 590 -42 l 590 135 m 590 449 q 512 515 560 489 q 404 542 464 542 q 318 524 357 542 q 252 477 279 507 q 210 408 225 447 q 194 326 194 369 q 210 243 194 282 q 256 175 226 204 q 324 128 285 146 q 411 111 364 111 q 509 135 461 111 q 590 204 557 160 l 590 449 m 554 972 l 464 764 l 318 764 l 464 972 l 554 972 z "},"Ĥ":{"ha":1069,"x_min":125,"x_max":944,"o":"m 806 458 l 264 458 l 264 0 l 125 0 l 125 972 l 264 972 l 264 590 l 806 590 l 806 972 l 944 972 l 944 0 l 806 0 l 806 458 m 326 1042 l 458 1250 l 611 1250 l 743 1042 l 653 1042 l 535 1172 l 417 1042 l 326 1042 z "},"ĥ":{"ha":847,"x_min":3,"x_max":743,"o":"m 442 667 q 576 635 514 667 q 679 551 638 604 q 727 458 711 511 q 743 319 743 404 l 743 0 l 611 0 l 611 326 q 601 422 611 389 q 572 478 590 456 q 513 524 549 507 q 438 542 478 542 q 326 513 372 542 q 250 449 279 485 l 250 0 l 118 0 l 118 986 l 250 986 l 250 529 q 306 627 254 588 q 442 667 357 667 m 3 1056 l 135 1264 l 288 1264 l 419 1056 l 329 1056 l 211 1186 l 93 1056 l 3 1056 z "},"Ħ":{"ha":1069,"x_min":0,"x_max":1069,"o":"m 944 0 l 806 0 l 806 458 l 264 458 l 264 0 l 125 0 l 125 729 l 0 729 l 0 861 l 125 861 l 125 972 l 264 972 l 264 861 l 806 861 l 806 972 l 944 972 l 944 861 l 1069 861 l 1069 729 l 944 729 l 944 0 m 806 590 l 806 729 l 264 729 l 264 590 l 806 590 z "},"ħ":{"ha":847,"x_min":7,"x_max":743,"o":"m 442 667 q 576 635 514 667 q 679 551 638 604 q 727 458 711 511 q 743 319 743 404 l 743 0 l 611 0 l 611 326 q 601 422 611 389 q 572 478 590 456 q 513 524 549 507 q 438 542 478 542 q 326 513 372 542 q 250 449 279 485 l 250 0 l 118 0 l 118 743 l 7 743 l 7 861 l 118 861 l 118 986 l 250 986 l 250 861 l 417 861 l 417 743 l 250 743 l 250 529 q 306 627 254 588 q 442 667 357 667 z "},"Ĩ":{"ha":389,"x_min":-42,"x_max":431,"o":"m 132 972 l 271 972 l 271 0 l 132 0 l 132 972 m -42 1085 q -30 1143 -40 1115 q -1 1192 -19 1171 q 42 1224 17 1213 q 99 1236 67 1236 q 150 1226 125 1236 q 199 1205 175 1217 q 244 1183 222 1193 q 288 1174 267 1174 q 323 1190 311 1174 q 340 1236 335 1206 l 431 1207 q 419 1149 429 1176 q 390 1100 408 1121 q 347 1067 372 1079 q 290 1056 321 1056 q 239 1065 264 1056 q 190 1087 214 1075 q 144 1108 167 1099 q 101 1118 122 1118 q 66 1102 78 1118 q 49 1056 54 1086 l -42 1085 z "},"ĩ":{"ha":368,"x_min":-53,"x_max":419,"o":"m 118 653 l 250 653 l 250 0 l 118 0 l 118 653 m -53 807 q -41 865 -51 838 q -12 914 -31 893 q 31 947 6 935 q 88 958 56 958 q 139 949 114 958 q 188 927 164 939 q 233 906 211 915 q 276 896 256 896 q 312 912 300 896 q 329 958 324 928 l 419 929 q 408 871 418 899 q 379 822 397 843 q 335 790 361 801 q 279 778 310 778 q 228 788 253 778 q 179 809 203 797 q 133 831 156 821 q 90 840 111 840 q 55 824 67 840 q 38 778 43 808 l -53 807 z "},"Ī":{"ha":389,"x_min":-14,"x_max":403,"o":"m 132 972 l 271 972 l 271 0 l 132 0 l 132 972 m 403 1194 l 403 1076 l -14 1076 l -14 1194 l 403 1194 z "},"ī":{"ha":368,"x_min":-25,"x_max":392,"o":"m 118 653 l 250 653 l 250 0 l 118 0 l 118 653 m 392 917 l 392 799 l -25 799 l -25 917 l 392 917 z "},"Ĭ":{"ha":389,"x_min":7,"x_max":396,"o":"m 132 972 l 271 972 l 271 0 l 132 0 l 132 972 m 396 1250 q 381 1174 396 1210 q 339 1113 365 1139 q 277 1071 313 1086 q 201 1056 242 1056 q 126 1071 161 1056 q 64 1113 90 1086 q 22 1174 38 1139 q 7 1250 7 1210 l 125 1250 q 147 1196 125 1218 q 201 1174 169 1174 q 256 1196 233 1174 q 278 1250 278 1218 l 396 1250 z "},"ĭ":{"ha":368,"x_min":-11,"x_max":378,"o":"m 118 653 l 250 653 l 250 0 l 118 0 l 118 653 m 378 972 q 363 897 378 932 q 321 835 347 861 q 259 793 294 808 q 183 778 224 778 q 108 793 143 778 q 46 835 72 808 q 4 897 19 861 q -11 972 -11 932 l 107 972 q 129 918 107 940 q 183 896 151 896 q 238 918 215 896 q 260 972 260 940 l 378 972 z "},"Į":{"ha":389,"x_min":72,"x_max":322,"o":"m 125 972 l 264 972 l 264 0 l 247 0 q 218 -56 232 -22 q 204 -119 204 -89 q 223 -165 204 -150 q 269 -181 242 -181 q 288 -179 281 -181 q 301 -175 296 -178 l 322 -293 q 296 -301 315 -296 q 246 -306 276 -306 q 176 -292 208 -306 q 122 -257 144 -279 q 85 -204 99 -235 q 72 -139 72 -174 q 91 -46 72 -86 q 125 14 110 -6 l 125 972 z "},"į":{"ha":368,"x_min":65,"x_max":315,"o":"m 118 653 l 250 653 l 250 0 l 240 0 q 211 -56 225 -22 q 197 -119 197 -89 q 216 -165 197 -150 q 263 -181 235 -181 q 281 -179 274 -181 q 294 -175 289 -178 l 315 -293 q 289 -301 308 -296 q 239 -306 269 -306 q 169 -292 201 -306 q 115 -257 138 -279 q 78 -204 92 -235 q 65 -139 65 -174 q 84 -46 65 -86 q 118 14 103 -6 l 118 653 m 97 885 q 122 947 97 921 q 183 972 147 972 q 245 947 219 972 q 271 885 271 921 q 245 824 271 849 q 183 799 219 799 q 122 824 147 799 q 97 885 97 849 z "},"İ":{"ha":389,"x_min":115,"x_max":289,"o":"m 132 972 l 271 972 l 271 0 l 132 0 l 132 972 m 115 1163 q 140 1224 115 1199 q 201 1250 165 1250 q 263 1224 238 1250 q 289 1163 289 1199 q 263 1101 289 1126 q 201 1076 238 1076 q 140 1101 165 1076 q 115 1163 115 1126 z "},"ı":{"ha":368,"x_min":118,"x_max":250,"o":"m 118 653 l 250 653 l 250 0 l 118 0 l 118 653 z "},"Ĳ":{"ha":1028,"x_min":125,"x_max":917,"o":"m 125 972 l 264 972 l 264 0 l 125 0 l 125 972 m 513 196 q 563 139 529 160 q 642 118 597 118 q 703 133 674 118 q 751 172 733 149 q 771 213 764 189 q 778 282 778 238 l 778 972 l 917 972 l 917 292 q 908 195 917 233 q 883 126 900 157 q 783 25 847 64 q 642 -14 719 -14 q 489 27 557 -14 q 389 143 421 68 l 513 196 z "},"ĳ":{"ha":743,"x_min":97,"x_max":646,"o":"m 118 653 l 250 653 l 250 0 l 118 0 l 118 653 m 97 885 q 122 947 97 921 q 183 972 147 972 q 245 947 219 972 q 271 885 271 921 q 245 824 271 849 q 183 799 219 799 q 122 824 147 799 q 97 885 97 849 m 472 885 q 497 947 472 921 q 558 972 522 972 q 620 947 594 972 q 646 885 646 921 q 620 824 646 849 q 558 799 594 799 q 497 824 522 799 q 472 885 472 849 m 493 653 l 625 653 l 625 -56 q 615 -165 625 -122 q 583 -239 606 -207 q 492 -319 547 -290 q 369 -347 436 -347 q 327 -344 349 -347 q 292 -337 306 -342 l 319 -217 q 340 -221 326 -219 q 368 -222 354 -222 q 424 -210 396 -222 q 468 -176 451 -199 q 488 -131 482 -158 q 493 -60 493 -104 l 493 653 z "},"Ĵ":{"ha":639,"x_min":0,"x_max":639,"o":"m 124 196 q 174 139 140 160 q 253 118 208 118 q 315 133 285 118 q 363 172 344 149 q 382 213 375 189 q 389 282 389 238 l 389 972 l 528 972 l 528 292 q 519 195 528 233 q 494 126 511 157 q 394 25 458 64 q 253 -14 331 -14 q 100 27 168 -14 q 0 143 32 68 l 124 196 m 222 1042 l 354 1250 l 507 1250 l 639 1042 l 549 1042 l 431 1172 l 313 1042 l 222 1042 z "},"ĵ":{"ha":396,"x_min":-56,"x_max":392,"o":"m -25 764 l 107 972 l 260 972 l 392 764 l 301 764 l 183 894 l 65 764 l -25 764 m 146 653 l 278 653 l 278 -56 q 268 -165 278 -122 q 236 -239 258 -207 q 144 -319 200 -290 q 22 -347 89 -347 q -20 -344 1 -347 q -56 -337 -42 -342 l -28 -217 q -7 -221 -21 -219 q 21 -222 7 -222 q 76 -210 49 -222 q 121 -176 104 -199 q 140 -131 135 -158 q 146 -60 146 -104 l 146 653 z "},"Ķ":{"ha":903,"x_min":125,"x_max":875,"o":"m 125 972 l 264 972 l 264 563 l 664 972 l 847 972 l 408 521 l 875 0 l 697 0 l 264 486 l 264 0 l 125 0 l 125 972 m 318 -278 l 408 -69 l 554 -69 l 408 -278 l 318 -278 z "},"ķ":{"ha":764,"x_min":118,"x_max":750,"o":"m 750 0 l 574 0 l 250 319 l 250 0 l 118 0 l 118 986 l 250 986 l 250 403 l 522 653 l 708 653 l 382 358 l 750 0 m 235 -278 l 325 -69 l 471 -69 l 325 -278 l 235 -278 z "},"ĸ":{"ha":764,"x_min":118,"x_max":750,"o":"m 750 0 l 574 0 l 250 319 l 250 0 l 118 0 l 118 653 l 250 653 l 250 403 l 522 653 l 708 653 l 382 358 l 750 0 z "},"Ĺ":{"ha":722,"x_min":125,"x_max":694,"o":"m 264 132 l 694 132 l 694 0 l 125 0 l 125 972 l 264 972 l 264 132 m 139 1042 l 229 1250 l 375 1250 l 229 1042 l 139 1042 z "},"ĺ":{"ha":368,"x_min":118,"x_max":363,"o":"m 118 986 l 250 986 l 250 0 l 118 0 l 118 986 m 126 1056 l 217 1264 l 363 1264 l 217 1056 l 126 1056 z "},"Ļ":{"ha":722,"x_min":125,"x_max":694,"o":"m 264 132 l 694 132 l 694 0 l 125 0 l 125 972 l 264 972 l 264 132 m 249 -278 l 339 -69 l 485 -69 l 339 -278 l 249 -278 z "},"ļ":{"ha":368,"x_min":21,"x_max":257,"o":"m 118 986 l 250 986 l 250 0 l 118 0 l 118 986 m 21 -278 l 111 -69 l 257 -69 l 111 -278 l 21 -278 z "},"Ľ":{"ha":722,"x_min":125,"x_max":694,"o":"m 264 132 l 694 132 l 694 0 l 125 0 l 125 972 l 264 972 l 264 132 m 306 764 l 396 972 l 542 972 l 396 764 l 306 764 z "},"ľ":{"ha":465,"x_min":118,"x_max":542,"o":"m 118 986 l 250 986 l 250 0 l 118 0 l 118 986 m 306 764 l 396 972 l 542 972 l 396 764 l 306 764 z "},"Ŀ":{"ha":722,"x_min":125,"x_max":694,"o":"m 264 132 l 694 132 l 694 0 l 125 0 l 125 972 l 264 972 l 264 132 m 375 486 q 400 548 375 522 q 461 574 425 574 q 523 548 497 574 q 549 486 549 522 q 523 425 549 450 q 461 400 497 400 q 400 425 425 400 q 375 486 375 450 z "},"ŀ":{"ha":424,"x_min":118,"x_max":479,"o":"m 118 986 l 250 986 l 250 0 l 118 0 l 118 986 m 306 486 q 331 548 306 522 q 392 574 356 574 q 453 548 428 574 q 479 486 479 522 q 453 425 479 450 q 392 400 428 400 q 331 425 356 400 q 306 486 306 450 z "},"Ł":{"ha":722,"x_min":-14,"x_max":694,"o":"m 264 639 l 472 760 l 472 610 l 264 489 l 264 132 l 694 132 l 694 0 l 125 0 l 125 408 l -14 329 l -14 479 l 125 558 l 125 972 l 264 972 l 264 639 z "},"ł":{"ha":368,"x_min":-21,"x_max":389,"o":"m 118 414 l -21 333 l -21 478 l 118 558 l 118 986 l 250 986 l 250 635 l 389 715 l 389 571 l 250 490 l 250 0 l 118 0 l 118 414 z "},"Ń":{"ha":1069,"x_min":125,"x_max":944,"o":"m 264 714 l 264 0 l 125 0 l 125 972 l 222 972 l 806 258 l 806 972 l 944 972 l 944 0 l 847 0 l 264 714 m 472 1042 l 563 1250 l 708 1250 l 563 1042 l 472 1042 z "},"ń":{"ha":847,"x_min":118,"x_max":743,"o":"m 442 667 q 576 635 514 667 q 679 551 638 604 q 727 458 711 511 q 743 319 743 404 l 743 0 l 611 0 l 611 326 q 601 422 611 389 q 572 478 590 456 q 513 524 549 507 q 438 542 478 542 q 326 513 372 542 q 250 449 279 485 l 250 0 l 118 0 l 118 653 l 246 653 l 246 525 q 302 625 250 583 q 442 667 354 667 m 354 764 l 444 972 l 590 972 l 444 764 l 354 764 z "},"Ņ":{"ha":1069,"x_min":125,"x_max":944,"o":"m 264 714 l 264 0 l 125 0 l 125 972 l 222 972 l 806 258 l 806 972 l 944 972 l 944 0 l 847 0 l 264 714 m 374 -278 l 464 -69 l 610 -69 l 464 -278 l 374 -278 z "},"ņ":{"ha":847,"x_min":118,"x_max":743,"o":"m 442 667 q 576 635 514 667 q 679 551 638 604 q 727 458 711 511 q 743 319 743 404 l 743 0 l 611 0 l 611 326 q 601 422 611 389 q 572 478 590 456 q 513 524 549 507 q 438 542 478 542 q 326 513 372 542 q 250 449 279 485 l 250 0 l 118 0 l 118 653 l 246 653 l 246 525 q 302 625 250 583 q 442 667 354 667 m 263 -278 l 353 -69 l 499 -69 l 353 -278 l 263 -278 z "},"Ň":{"ha":1069,"x_min":125,"x_max":944,"o":"m 264 714 l 264 0 l 125 0 l 125 972 l 222 972 l 806 258 l 806 972 l 944 972 l 944 0 l 847 0 l 264 714 m 403 1250 l 521 1119 l 639 1250 l 729 1250 l 597 1042 l 444 1042 l 313 1250 l 403 1250 z "},"ň":{"ha":847,"x_min":118,"x_max":743,"o":"m 442 667 q 576 635 514 667 q 679 551 638 604 q 727 458 711 511 q 743 319 743 404 l 743 0 l 611 0 l 611 326 q 601 422 611 389 q 572 478 590 456 q 513 524 549 507 q 438 542 478 542 q 326 513 372 542 q 250 449 279 485 l 250 0 l 118 0 l 118 653 l 246 653 l 246 525 q 302 625 250 583 q 442 667 354 667 m 319 972 l 438 842 l 556 972 l 646 972 l 514 764 l 361 764 l 229 972 l 319 972 z "},"ŉ":{"ha":847,"x_min":118,"x_max":743,"o":"m 442 667 q 576 635 514 667 q 679 551 638 604 q 727 458 711 511 q 743 319 743 404 l 743 0 l 611 0 l 611 326 q 601 422 611 389 q 572 478 590 456 q 513 524 549 507 q 438 542 478 542 q 326 513 372 542 q 250 449 279 485 l 250 0 l 118 0 l 118 653 l 246 653 l 246 525 q 302 625 250 583 q 442 667 354 667 m 118 764 l 208 972 l 354 972 l 208 764 l 118 764 z "},"Ŋ":{"ha":1069,"x_min":125,"x_max":944,"o":"m 540 -137 q 591 -194 557 -174 q 669 -215 625 -215 q 731 -200 701 -215 q 779 -161 761 -185 q 799 -120 792 -144 q 806 -51 806 -96 l 806 50 l 264 714 l 264 0 l 125 0 l 125 972 l 222 972 l 806 258 l 806 972 l 944 972 l 944 -42 q 936 -138 944 -100 q 911 -207 928 -176 q 811 -308 875 -269 q 669 -347 747 -347 q 517 -306 585 -347 q 417 -190 449 -265 l 540 -137 z "},"ŋ":{"ha":847,"x_min":118,"x_max":743,"o":"m 442 667 q 576 635 514 667 q 679 551 638 604 q 727 458 711 511 q 743 319 743 404 l 743 -56 q 733 -165 743 -122 q 701 -240 722 -208 q 613 -319 668 -292 q 493 -347 558 -347 q 416 -340 453 -347 q 347 -312 379 -332 l 403 -204 q 439 -217 417 -211 q 483 -222 461 -222 q 542 -210 514 -222 q 585 -178 569 -199 q 605 -132 599 -160 q 611 -60 611 -104 l 611 326 q 601 422 611 389 q 572 478 590 456 q 513 524 549 507 q 438 542 478 542 q 326 513 372 542 q 250 449 279 485 l 250 0 l 118 0 l 118 653 l 246 653 l 246 525 q 302 625 250 583 q 442 667 354 667 z "},"Ō":{"ha":1069,"x_min":49,"x_max":1021,"o":"m 49 486 q 86 683 49 592 q 189 842 124 775 q 343 948 254 910 q 535 986 432 986 q 726 948 638 986 q 881 842 815 910 q 983 683 946 775 q 1021 486 1021 592 q 983 288 1021 379 q 881 130 946 197 q 726 24 815 63 q 535 -14 638 -14 q 343 24 432 -14 q 189 130 254 63 q 86 288 124 197 q 49 486 49 379 m 188 486 q 214 340 188 407 q 287 223 240 272 q 397 146 333 174 q 535 118 460 118 q 673 146 610 118 q 783 223 736 174 q 856 340 829 272 q 882 486 882 407 q 856 633 882 565 q 783 749 829 700 q 673 826 736 799 q 535 854 610 854 q 397 826 460 854 q 287 749 333 799 q 214 633 240 700 q 188 486 188 565 m 743 1194 l 743 1076 l 326 1076 l 326 1194 l 743 1194 z "},"ō":{"ha":800,"x_min":63,"x_max":738,"o":"m 63 326 q 88 461 63 399 q 159 569 114 524 q 266 641 204 615 q 400 667 328 667 q 534 641 472 667 q 641 569 596 615 q 712 461 686 524 q 738 326 738 399 q 712 191 738 253 q 641 83 686 129 q 534 12 596 38 q 400 -14 472 -14 q 266 12 328 -14 q 159 83 204 38 q 88 191 114 129 q 63 326 63 253 m 194 326 q 210 242 194 282 q 252 174 225 203 q 317 128 279 144 q 400 111 354 111 q 483 128 446 111 q 548 174 521 144 q 590 242 575 203 q 606 326 606 282 q 590 410 606 371 q 548 479 575 450 q 483 525 521 508 q 400 542 446 542 q 317 525 354 542 q 252 479 279 508 q 210 410 225 450 q 194 326 194 371 m 608 917 l 608 799 l 192 799 l 192 917 l 608 917 z "},"Ŏ":{"ha":1069,"x_min":49,"x_max":1021,"o":"m 49 486 q 86 683 49 592 q 189 842 124 775 q 343 948 254 910 q 535 986 432 986 q 726 948 638 986 q 881 842 815 910 q 983 683 946 775 q 1021 486 1021 592 q 983 288 1021 379 q 881 130 946 197 q 726 24 815 63 q 535 -14 638 -14 q 343 24 432 -14 q 189 130 254 63 q 86 288 124 197 q 49 486 49 379 m 188 486 q 214 340 188 407 q 287 223 240 272 q 397 146 333 174 q 535 118 460 118 q 673 146 610 118 q 783 223 736 174 q 856 340 829 272 q 882 486 882 407 q 856 633 882 565 q 783 749 829 700 q 673 826 736 799 q 535 854 610 854 q 397 826 460 854 q 287 749 333 799 q 214 633 240 700 q 188 486 188 565 m 729 1250 q 714 1174 729 1210 q 672 1113 699 1139 q 610 1071 646 1086 q 535 1056 575 1056 q 459 1071 494 1056 q 397 1113 424 1086 q 356 1174 371 1139 q 340 1250 340 1210 l 451 1250 q 476 1191 451 1215 q 535 1167 500 1167 q 594 1191 569 1167 q 618 1250 618 1215 l 729 1250 z "},"ŏ":{"ha":800,"x_min":63,"x_max":738,"o":"m 63 326 q 88 461 63 399 q 159 569 114 524 q 266 641 204 615 q 400 667 328 667 q 534 641 472 667 q 641 569 596 615 q 712 461 686 524 q 738 326 738 399 q 712 191 738 253 q 641 83 686 129 q 534 12 596 38 q 400 -14 472 -14 q 266 12 328 -14 q 159 83 204 38 q 88 191 114 129 q 63 326 63 253 m 194 326 q 210 242 194 282 q 252 174 225 203 q 317 128 279 144 q 400 111 354 111 q 483 128 446 111 q 548 174 521 144 q 590 242 575 203 q 606 326 606 282 q 590 410 606 371 q 548 479 575 450 q 483 525 521 508 q 400 542 446 542 q 317 525 354 542 q 252 479 279 508 q 210 410 225 450 q 194 326 194 371 m 594 972 q 579 897 594 932 q 538 835 564 861 q 476 793 511 808 q 400 778 440 778 q 324 793 360 778 q 263 835 289 808 q 221 897 236 861 q 206 972 206 932 l 317 972 q 341 913 317 938 q 400 889 365 889 q 459 913 435 889 q 483 972 483 938 l 594 972 z "},"Ő":{"ha":1069,"x_min":49,"x_max":1021,"o":"m 49 486 q 86 683 49 592 q 189 842 124 775 q 343 948 254 910 q 535 986 432 986 q 726 948 638 986 q 881 842 815 910 q 983 683 946 775 q 1021 486 1021 592 q 983 288 1021 379 q 881 130 946 197 q 726 24 815 63 q 535 -14 638 -14 q 343 24 432 -14 q 189 130 254 63 q 86 288 124 197 q 49 486 49 379 m 188 486 q 214 340 188 407 q 287 223 240 272 q 397 146 333 174 q 535 118 460 118 q 673 146 610 118 q 783 223 736 174 q 856 340 829 272 q 882 486 882 407 q 856 633 882 565 q 783 749 829 700 q 673 826 736 799 q 535 854 610 854 q 397 826 460 854 q 287 749 333 799 q 214 633 240 700 q 188 486 188 565 m 361 1042 l 451 1250 l 597 1250 l 451 1042 l 361 1042 m 618 1042 l 708 1250 l 854 1250 l 708 1042 l 618 1042 z "},"ő":{"ha":800,"x_min":63,"x_max":738,"o":"m 63 326 q 88 461 63 399 q 159 569 114 524 q 266 641 204 615 q 400 667 328 667 q 534 641 472 667 q 641 569 596 615 q 712 461 686 524 q 738 326 738 399 q 712 191 738 253 q 641 83 686 129 q 534 12 596 38 q 400 -14 472 -14 q 266 12 328 -14 q 159 83 204 38 q 88 191 114 129 q 63 326 63 253 m 194 326 q 210 242 194 282 q 252 174 225 203 q 317 128 279 144 q 400 111 354 111 q 483 128 446 111 q 548 174 521 144 q 590 242 575 203 q 606 326 606 282 q 590 410 606 371 q 548 479 575 450 q 483 525 521 508 q 400 542 446 542 q 317 525 354 542 q 252 479 279 508 q 210 410 225 450 q 194 326 194 371 m 226 764 l 317 972 l 463 972 l 317 764 l 226 764 m 483 764 l 574 972 l 719 972 l 574 764 l 483 764 z "},"Œ":{"ha":1507,"x_min":49,"x_max":1451,"o":"m 49 486 q 86 683 49 592 q 189 842 124 775 q 343 948 254 910 q 535 986 432 986 q 728 947 639 986 q 882 838 817 907 l 882 972 l 1438 972 l 1438 840 l 1021 840 l 1021 590 l 1340 590 l 1340 458 l 1021 458 l 1021 132 l 1451 132 l 1451 0 l 882 0 l 882 135 q 728 25 817 64 q 535 -14 639 -14 q 343 24 432 -14 q 189 130 254 63 q 86 288 124 197 q 49 486 49 379 m 535 118 q 673 146 610 118 q 783 223 736 174 q 856 340 829 272 q 882 486 882 407 q 856 633 882 565 q 783 749 829 700 q 673 826 736 799 q 535 854 610 854 q 397 826 460 854 q 287 749 333 799 q 214 633 240 700 q 188 486 188 565 q 214 340 188 407 q 287 223 240 272 q 397 146 333 174 q 535 118 460 118 z "},"œ":{"ha":1300,"x_min":63,"x_max":1238,"o":"m 733 299 q 753 222 736 257 q 799 159 771 186 q 864 117 826 132 q 944 101 901 101 q 1060 130 1017 101 q 1132 190 1104 158 l 1218 108 q 1113 24 1182 61 q 943 -14 1043 -14 q 785 24 856 -14 q 671 126 715 61 q 558 24 628 63 q 400 -14 488 -14 q 266 12 328 -14 q 159 83 204 38 q 88 191 114 129 q 63 326 63 253 q 88 461 63 399 q 159 569 114 524 q 266 641 204 615 q 400 667 328 667 q 555 630 486 667 q 668 531 624 593 q 774 630 708 593 q 924 667 840 667 q 1049 641 992 667 q 1149 569 1107 615 q 1214 461 1190 524 q 1238 326 1238 399 q 1238 315 1238 322 q 1236 299 1238 308 l 733 299 m 194 326 q 210 242 194 282 q 252 174 225 203 q 317 128 279 144 q 400 111 354 111 q 483 128 446 111 q 548 174 521 144 q 590 242 575 203 q 606 326 606 282 q 590 410 606 371 q 548 479 575 450 q 483 525 521 508 q 400 542 446 542 q 317 525 354 542 q 252 479 279 508 q 210 410 225 450 q 194 326 194 371 m 928 551 q 813 513 864 551 q 744 410 761 474 l 1100 410 q 1076 467 1093 440 q 1035 512 1058 493 q 985 541 1013 531 q 928 551 957 551 z "},"Ŕ":{"ha":889,"x_min":125,"x_max":889,"o":"m 264 458 l 264 0 l 125 0 l 125 972 l 465 972 q 576 958 532 972 q 654 915 621 943 q 724 828 699 879 q 750 715 750 776 q 724 603 750 654 q 654 515 699 551 q 603 483 631 496 q 540 464 576 471 l 889 0 l 721 0 l 375 458 l 264 458 m 458 590 q 532 600 506 590 q 575 626 558 610 q 611 715 611 663 q 601 765 611 742 q 575 804 592 788 q 532 831 558 821 q 458 840 506 840 l 264 840 l 264 590 l 458 590 m 361 1042 l 451 1250 l 597 1250 l 451 1042 l 361 1042 z "},"ŕ":{"ha":535,"x_min":118,"x_max":493,"o":"m 442 667 q 467 666 453 667 q 493 663 482 665 l 478 536 q 426 542 457 542 q 326 510 375 542 q 250 432 278 479 l 250 0 l 118 0 l 118 653 l 246 653 l 246 525 q 302 625 250 583 q 442 667 354 667 m 208 764 l 299 972 l 444 972 l 299 764 l 208 764 z "},"Ŗ":{"ha":889,"x_min":125,"x_max":889,"o":"m 264 458 l 264 0 l 125 0 l 125 972 l 465 972 q 576 958 532 972 q 654 915 621 943 q 724 828 699 879 q 750 715 750 776 q 724 603 750 654 q 654 515 699 551 q 603 483 631 496 q 540 464 576 471 l 889 0 l 721 0 l 375 458 l 264 458 m 458 590 q 532 600 506 590 q 575 626 558 610 q 611 715 611 663 q 601 765 611 742 q 575 804 592 788 q 532 831 558 821 q 458 840 506 840 l 264 840 l 264 590 l 458 590 m 318 -278 l 408 -69 l 554 -69 l 408 -278 l 318 -278 z "},"ŗ":{"ha":535,"x_min":21,"x_max":493,"o":"m 442 667 q 467 666 453 667 q 493 663 482 665 l 478 536 q 426 542 457 542 q 326 510 375 542 q 250 432 278 479 l 250 0 l 118 0 l 118 653 l 246 653 l 246 525 q 302 625 250 583 q 442 667 354 667 m 21 -278 l 111 -69 l 257 -69 l 111 -278 l 21 -278 z "},"Ř":{"ha":889,"x_min":125,"x_max":889,"o":"m 264 458 l 264 0 l 125 0 l 125 972 l 465 972 q 576 958 532 972 q 654 915 621 943 q 724 828 699 879 q 750 715 750 776 q 724 603 750 654 q 654 515 699 551 q 603 483 631 496 q 540 464 576 471 l 889 0 l 721 0 l 375 458 l 264 458 m 458 590 q 532 600 506 590 q 575 626 558 610 q 611 715 611 663 q 601 765 611 742 q 575 804 592 788 q 532 831 558 821 q 458 840 506 840 l 264 840 l 264 590 l 458 590 m 297 1250 l 415 1119 l 533 1250 l 624 1250 l 492 1042 l 339 1042 l 207 1250 l 297 1250 z "},"ř":{"ha":535,"x_min":111,"x_max":528,"o":"m 442 667 q 467 666 453 667 q 493 663 482 665 l 478 536 q 426 542 457 542 q 326 510 375 542 q 250 432 278 479 l 250 0 l 118 0 l 118 653 l 246 653 l 246 525 q 302 625 250 583 q 442 667 354 667 m 201 972 l 319 842 l 438 972 l 528 972 l 396 764 l 243 764 l 111 972 l 201 972 z "},"Ś":{"ha":739,"x_min":42,"x_max":683,"o":"m 138 243 q 240 154 181 190 q 375 118 300 118 q 440 128 408 118 q 494 158 471 139 q 531 204 517 178 q 544 264 544 231 q 510 353 544 319 q 426 413 476 388 q 317 460 375 438 q 210 514 258 482 q 122 600 157 549 q 86 728 86 651 q 108 828 86 781 q 170 910 131 875 q 263 966 210 946 q 381 986 317 986 q 466 977 426 986 q 538 953 506 968 q 597 922 571 939 q 642 889 622 906 l 560 788 q 386 854 481 854 q 327 846 356 854 q 276 821 299 838 q 239 780 253 804 q 225 724 225 756 q 259 647 225 678 q 344 592 293 617 q 452 544 394 568 q 557 490 510 521 q 604 453 582 474 q 644 405 626 432 q 673 344 663 378 q 683 268 683 310 q 660 152 683 204 q 596 63 636 100 q 501 6 556 26 q 382 -14 446 -14 q 194 28 282 -14 q 42 149 107 69 l 138 243 m 306 1042 l 396 1250 l 542 1250 l 396 1042 l 306 1042 z "},"ś":{"ha":632,"x_min":56,"x_max":563,"o":"m 124 174 q 317 101 217 101 q 395 123 360 101 q 431 183 431 144 q 412 228 431 211 q 364 255 393 244 q 299 274 335 265 q 226 294 263 282 q 170 319 197 304 q 122 354 143 333 q 89 401 101 375 q 76 463 76 428 q 98 553 76 515 q 153 617 119 592 q 231 654 188 642 q 318 667 274 667 q 443 647 390 667 q 535 594 496 626 l 467 500 q 401 538 436 524 q 326 551 367 551 q 243 530 278 551 q 208 469 208 508 q 242 421 208 436 q 325 393 276 406 q 406 369 364 383 q 482 331 447 354 q 540 272 517 307 q 563 186 563 236 q 542 103 563 140 q 489 40 522 65 q 411 0 456 14 q 319 -14 367 -14 q 56 76 167 -14 l 124 174 m 257 764 l 347 972 l 493 972 l 347 764 l 257 764 z "},"Ŝ":{"ha":739,"x_min":42,"x_max":683,"o":"m 138 243 q 240 154 181 190 q 375 118 300 118 q 440 128 408 118 q 494 158 471 139 q 531 204 517 178 q 544 264 544 231 q 510 353 544 319 q 426 413 476 388 q 317 460 375 438 q 210 514 258 482 q 122 600 157 549 q 86 728 86 651 q 108 828 86 781 q 170 910 131 875 q 263 966 210 946 q 381 986 317 986 q 466 977 426 986 q 538 953 506 968 q 597 922 571 939 q 642 889 622 906 l 560 788 q 386 854 481 854 q 327 846 356 854 q 276 821 299 838 q 239 780 253 804 q 225 724 225 756 q 259 647 225 678 q 344 592 293 617 q 452 544 394 568 q 557 490 510 521 q 604 453 582 474 q 644 405 626 432 q 673 344 663 378 q 683 268 683 310 q 660 152 683 204 q 596 63 636 100 q 501 6 556 26 q 382 -14 446 -14 q 194 28 282 -14 q 42 149 107 69 l 138 243 m 172 1042 l 304 1250 l 457 1250 l 589 1042 l 499 1042 l 381 1172 l 263 1042 l 172 1042 z "},"ŝ":{"ha":632,"x_min":56,"x_max":563,"o":"m 124 174 q 317 101 217 101 q 395 123 360 101 q 431 183 431 144 q 412 228 431 211 q 364 255 393 244 q 299 274 335 265 q 226 294 263 282 q 170 319 197 304 q 122 354 143 333 q 89 401 101 375 q 76 463 76 428 q 98 553 76 515 q 153 617 119 592 q 231 654 188 642 q 318 667 274 667 q 443 647 390 667 q 535 594 496 626 l 467 500 q 401 538 436 524 q 326 551 367 551 q 243 530 278 551 q 208 469 208 508 q 242 421 208 436 q 325 393 276 406 q 406 369 364 383 q 482 331 447 354 q 540 272 517 307 q 563 186 563 236 q 542 103 563 140 q 489 40 522 65 q 411 0 456 14 q 319 -14 367 -14 q 56 76 167 -14 l 124 174 m 114 764 l 246 972 l 399 972 l 531 764 l 440 764 l 322 894 l 204 764 l 114 764 z "},"Ş":{"ha":739,"x_min":42,"x_max":683,"o":"m 138 243 q 240 154 181 190 q 375 118 300 118 q 440 128 408 118 q 494 158 471 139 q 531 204 517 178 q 544 264 544 231 q 510 353 544 319 q 426 413 476 388 q 317 460 375 438 q 210 514 258 482 q 122 600 157 549 q 86 728 86 651 q 108 828 86 781 q 170 910 131 875 q 263 966 210 946 q 381 986 317 986 q 466 977 426 986 q 538 953 506 968 q 597 922 571 939 q 642 889 622 906 l 560 788 q 386 854 481 854 q 327 846 356 854 q 276 821 299 838 q 239 780 253 804 q 225 724 225 756 q 259 647 225 678 q 344 592 293 617 q 452 544 394 568 q 557 490 510 521 q 604 453 582 474 q 644 405 626 432 q 673 344 663 378 q 683 268 683 310 q 665 164 683 211 q 615 81 647 117 q 537 22 582 44 q 439 -10 492 -1 l 403 -194 l 257 -194 l 342 -11 q 177 37 254 -4 q 42 149 100 78 l 138 243 z "},"ş":{"ha":632,"x_min":56,"x_max":563,"o":"m 124 174 q 317 101 217 101 q 395 123 360 101 q 431 183 431 144 q 412 228 431 211 q 364 255 393 244 q 299 274 335 265 q 226 294 263 282 q 170 319 197 304 q 122 354 143 333 q 89 401 101 375 q 76 463 76 428 q 98 553 76 515 q 153 617 119 592 q 231 654 188 642 q 318 667 274 667 q 443 647 390 667 q 535 594 496 626 l 467 500 q 401 538 436 524 q 326 551 367 551 q 243 530 278 551 q 208 469 208 508 q 242 421 208 436 q 325 393 276 406 q 406 369 364 383 q 482 331 447 354 q 540 272 517 307 q 563 186 563 236 q 548 115 563 147 q 508 57 533 82 q 450 15 483 32 q 378 -8 417 -1 l 340 -194 l 194 -194 l 279 -12 q 56 76 151 -3 l 124 174 z "},"Š":{"ha":739,"x_min":42,"x_max":683,"o":"m 276 1250 l 394 1119 l 513 1250 l 603 1250 l 471 1042 l 318 1042 l 186 1250 l 276 1250 m 138 243 q 240 154 181 190 q 375 118 300 118 q 440 128 408 118 q 494 158 471 139 q 531 204 517 178 q 544 264 544 231 q 510 353 544 319 q 426 413 476 388 q 317 460 375 438 q 210 514 258 482 q 122 600 157 549 q 86 728 86 651 q 108 828 86 781 q 170 910 131 875 q 263 966 210 946 q 381 986 317 986 q 466 977 426 986 q 538 953 506 968 q 597 922 571 939 q 642 889 622 906 l 560 788 q 386 854 481 854 q 327 846 356 854 q 276 821 299 838 q 239 780 253 804 q 225 724 225 756 q 259 647 225 678 q 344 592 293 617 q 452 544 394 568 q 557 490 510 521 q 604 453 582 474 q 644 405 626 432 q 673 344 663 378 q 683 268 683 310 q 660 152 683 204 q 596 63 636 100 q 501 6 556 26 q 382 -14 446 -14 q 194 28 282 -14 q 42 149 107 69 l 138 243 z "},"š":{"ha":632,"x_min":56,"x_max":563,"o":"m 124 174 q 317 101 217 101 q 395 123 360 101 q 431 183 431 144 q 412 228 431 211 q 364 255 393 244 q 299 274 335 265 q 226 294 263 282 q 170 319 197 304 q 122 354 143 333 q 89 401 101 375 q 76 463 76 428 q 98 553 76 515 q 153 617 119 592 q 231 654 188 642 q 318 667 274 667 q 443 647 390 667 q 535 594 496 626 l 467 500 q 401 538 436 524 q 326 551 367 551 q 243 530 278 551 q 208 469 208 508 q 242 421 208 436 q 325 393 276 406 q 406 369 364 383 q 482 331 447 354 q 540 272 517 307 q 563 186 563 236 q 542 103 563 140 q 489 40 522 65 q 411 0 456 14 q 319 -14 367 -14 q 56 76 167 -14 l 124 174 m 204 972 l 322 842 l 440 972 l 531 972 l 399 764 l 246 764 l 114 972 l 204 972 z "},"Ţ":{"ha":708,"x_min":21,"x_max":688,"o":"m 21 972 l 688 972 l 688 840 l 424 840 l 424 0 l 285 0 l 285 840 l 21 840 l 21 972 m 192 -278 l 282 -69 l 428 -69 l 282 -278 l 192 -278 z "},"ţ":{"ha":583,"x_min":14,"x_max":521,"o":"m 226 -278 l 317 -69 l 463 -69 l 317 -278 l 226 -278 m 521 0 q 474 -10 501 -7 q 418 -14 446 -14 q 310 6 356 -14 q 233 63 265 26 q 192 139 204 94 q 181 236 181 183 l 181 535 l 14 535 l 14 653 l 181 653 l 181 833 l 313 833 l 313 653 l 521 653 l 521 535 l 313 535 l 313 229 q 316 182 313 203 q 332 146 319 161 q 371 120 346 129 q 422 111 396 111 q 458 113 438 111 q 494 119 479 115 l 521 0 z "},"Ť":{"ha":708,"x_min":21,"x_max":688,"o":"m 21 972 l 688 972 l 688 840 l 424 840 l 424 0 l 285 0 l 285 840 l 21 840 l 21 972 m 236 1250 l 354 1119 l 472 1250 l 563 1250 l 431 1042 l 278 1042 l 146 1250 l 236 1250 z "},"ť":{"ha":583,"x_min":14,"x_max":590,"o":"m 354 764 l 444 972 l 590 972 l 444 764 l 354 764 m 521 0 q 474 -10 501 -7 q 418 -14 446 -14 q 310 6 356 -14 q 233 63 265 26 q 192 139 204 94 q 181 236 181 183 l 181 535 l 14 535 l 14 653 l 181 653 l 181 833 l 313 833 l 313 653 l 521 653 l 521 535 l 313 535 l 313 229 q 316 182 313 203 q 332 146 319 161 q 371 120 346 129 q 422 111 396 111 q 458 113 438 111 q 494 119 479 115 l 521 0 z "},"Ŧ":{"ha":708,"x_min":21,"x_max":688,"o":"m 285 590 l 285 840 l 21 840 l 21 972 l 688 972 l 688 840 l 424 840 l 424 590 l 632 590 l 632 458 l 424 458 l 424 0 l 285 0 l 285 458 l 76 458 l 76 590 l 285 590 z "},"ŧ":{"ha":583,"x_min":14,"x_max":521,"o":"m 521 0 q 474 -10 501 -7 q 418 -14 446 -14 q 310 6 356 -14 q 233 63 265 26 q 192 139 204 94 q 181 236 181 183 l 181 278 l 14 278 l 14 396 l 181 396 l 181 535 l 14 535 l 14 653 l 181 653 l 181 833 l 313 833 l 313 653 l 521 653 l 521 535 l 313 535 l 313 396 l 521 396 l 521 278 l 313 278 l 313 229 q 316 182 313 203 q 332 146 319 161 q 371 120 346 129 q 422 111 396 111 q 458 113 438 111 q 494 119 479 115 l 521 0 z "},"Ũ":{"ha":1028,"x_min":111,"x_max":917,"o":"m 514 -14 q 346 20 424 -14 q 213 114 268 54 q 138 235 165 165 q 111 403 111 304 l 111 972 l 250 972 l 250 396 q 266 281 250 326 q 311 204 282 236 q 399 141 347 164 q 514 118 451 118 q 628 141 576 118 q 717 204 681 164 q 762 281 746 236 q 778 396 778 326 l 778 972 l 917 972 l 917 403 q 890 235 917 304 q 815 114 863 165 q 682 20 760 54 q 514 -14 604 -14 m 278 1085 q 290 1143 279 1115 q 318 1192 300 1171 q 361 1224 336 1213 q 418 1236 386 1236 q 469 1226 444 1236 q 518 1205 494 1217 q 564 1183 542 1193 q 607 1174 586 1174 q 642 1190 631 1174 q 660 1236 654 1206 l 750 1207 q 738 1149 749 1176 q 710 1100 728 1121 q 666 1067 692 1079 q 610 1056 640 1056 q 558 1065 583 1056 q 510 1087 533 1075 q 464 1108 486 1099 q 421 1118 442 1118 q 385 1102 397 1118 q 368 1056 374 1086 l 278 1085 z "},"ũ":{"ha":833,"x_min":104,"x_max":715,"o":"m 396 -14 q 265 15 325 -14 q 164 96 204 44 q 119 185 133 133 q 104 319 104 236 l 104 653 l 236 653 l 236 299 q 246 219 236 249 q 274 168 256 189 q 329 126 296 142 q 400 111 363 111 q 508 141 461 111 q 583 204 556 171 l 583 653 l 715 653 l 715 0 l 588 0 l 588 132 q 533 28 585 71 q 396 -14 482 -14 m 175 807 q 187 865 176 838 q 215 914 197 893 q 258 947 233 935 q 315 958 283 958 q 367 949 342 958 q 415 927 392 939 q 461 906 439 915 q 504 896 483 896 q 540 912 528 896 q 557 958 551 928 l 647 929 q 635 871 646 899 q 607 822 625 843 q 563 790 589 801 q 507 778 538 778 q 456 788 481 778 q 407 809 431 797 q 361 831 383 821 q 318 840 339 840 q 283 824 294 840 q 265 778 271 808 l 175 807 z "},"Ū":{"ha":1028,"x_min":111,"x_max":917,"o":"m 514 -14 q 346 20 424 -14 q 213 114 268 54 q 138 235 165 165 q 111 403 111 304 l 111 972 l 250 972 l 250 396 q 266 281 250 326 q 311 204 282 236 q 399 141 347 164 q 514 118 451 118 q 628 141 576 118 q 717 204 681 164 q 762 281 746 236 q 778 396 778 326 l 778 972 l 917 972 l 917 403 q 890 235 917 304 q 815 114 863 165 q 682 20 760 54 q 514 -14 604 -14 m 722 1194 l 722 1076 l 306 1076 l 306 1194 l 722 1194 z "},"ū":{"ha":833,"x_min":104,"x_max":715,"o":"m 396 -14 q 265 15 325 -14 q 164 96 204 44 q 119 185 133 133 q 104 319 104 236 l 104 653 l 236 653 l 236 299 q 246 219 236 249 q 274 168 256 189 q 329 126 296 142 q 400 111 363 111 q 508 141 461 111 q 583 204 556 171 l 583 653 l 715 653 l 715 0 l 588 0 l 588 132 q 533 28 585 71 q 396 -14 482 -14 m 619 917 l 619 799 l 203 799 l 203 917 l 619 917 z "},"Ŭ":{"ha":1028,"x_min":111,"x_max":917,"o":"m 514 -14 q 346 20 424 -14 q 213 114 268 54 q 138 235 165 165 q 111 403 111 304 l 111 972 l 250 972 l 250 396 q 266 281 250 326 q 311 204 282 236 q 399 141 347 164 q 514 118 451 118 q 628 141 576 118 q 717 204 681 164 q 762 281 746 236 q 778 396 778 326 l 778 972 l 917 972 l 917 403 q 890 235 917 304 q 815 114 863 165 q 682 20 760 54 q 514 -14 604 -14 m 708 1250 q 693 1174 708 1210 q 651 1113 678 1139 q 590 1071 625 1086 q 514 1056 554 1056 q 438 1071 474 1056 q 376 1113 403 1086 q 335 1174 350 1139 q 319 1250 319 1210 l 431 1250 q 455 1191 431 1215 q 514 1167 479 1167 q 573 1191 549 1167 q 597 1250 597 1215 l 708 1250 z "},"ŭ":{"ha":833,"x_min":104,"x_max":715,"o":"m 396 -14 q 265 15 325 -14 q 164 96 204 44 q 119 185 133 133 q 104 319 104 236 l 104 653 l 236 653 l 236 299 q 246 219 236 249 q 274 168 256 189 q 329 126 296 142 q 400 111 363 111 q 508 141 461 111 q 583 204 556 171 l 583 653 l 715 653 l 715 0 l 588 0 l 588 132 q 533 28 585 71 q 396 -14 482 -14 m 604 972 q 589 897 604 932 q 547 835 574 861 q 485 793 521 808 q 410 778 450 778 q 334 793 369 778 q 272 835 299 808 q 231 897 246 861 q 215 972 215 932 l 326 972 q 351 913 326 938 q 410 889 375 889 q 469 913 444 889 q 493 972 493 938 l 604 972 z "},"Ů":{"ha":1028,"x_min":111,"x_max":917,"o":"m 514 -14 q 346 20 424 -14 q 213 114 268 54 q 138 235 165 165 q 111 403 111 304 l 111 972 l 250 972 l 250 396 q 266 281 250 326 q 311 204 282 236 q 399 141 347 164 q 514 118 451 118 q 628 141 576 118 q 717 204 681 164 q 762 281 746 236 q 778 396 778 326 l 778 972 l 917 972 l 917 403 q 890 235 917 304 q 815 114 863 165 q 682 20 760 54 q 514 -14 604 -14 m 375 1153 q 415 1251 375 1211 q 514 1292 456 1292 q 613 1251 572 1292 q 653 1153 653 1211 q 613 1054 653 1094 q 514 1014 572 1014 q 415 1054 456 1014 q 375 1153 375 1094 m 458 1153 q 474 1113 458 1129 q 514 1097 490 1097 q 553 1113 538 1097 q 569 1153 569 1129 q 553 1192 569 1176 q 514 1208 538 1208 q 474 1192 490 1208 q 458 1153 458 1176 z "},"ů":{"ha":833,"x_min":104,"x_max":715,"o":"m 396 -14 q 265 15 325 -14 q 164 96 204 44 q 119 185 133 133 q 104 319 104 236 l 104 653 l 236 653 l 236 299 q 246 219 236 249 q 274 168 256 189 q 329 126 296 142 q 400 111 363 111 q 508 141 461 111 q 583 204 556 171 l 583 653 l 715 653 l 715 0 l 588 0 l 588 132 q 533 28 585 71 q 396 -14 482 -14 m 271 875 q 311 974 271 933 q 410 1014 351 1014 q 508 974 468 1014 q 549 875 549 933 q 508 776 549 817 q 410 736 468 736 q 311 776 351 736 q 271 875 271 817 m 354 875 q 370 835 354 851 q 410 819 386 819 q 449 835 433 819 q 465 875 465 851 q 449 915 465 899 q 410 931 433 931 q 370 915 386 931 q 354 875 354 899 z "},"Ű":{"ha":1028,"x_min":111,"x_max":917,"o":"m 514 -14 q 346 20 424 -14 q 213 114 268 54 q 138 235 165 165 q 111 403 111 304 l 111 972 l 250 972 l 250 396 q 266 281 250 326 q 311 204 282 236 q 399 141 347 164 q 514 118 451 118 q 628 141 576 118 q 717 204 681 164 q 762 281 746 236 q 778 396 778 326 l 778 972 l 917 972 l 917 403 q 890 235 917 304 q 815 114 863 165 q 682 20 760 54 q 514 -14 604 -14 m 340 1042 l 431 1250 l 576 1250 l 431 1042 l 340 1042 m 597 1042 l 688 1250 l 833 1250 l 688 1042 l 597 1042 z "},"ű":{"ha":833,"x_min":104,"x_max":729,"o":"m 396 -14 q 265 15 325 -14 q 164 96 204 44 q 119 185 133 133 q 104 319 104 236 l 104 653 l 236 653 l 236 299 q 246 219 236 249 q 274 168 256 189 q 329 126 296 142 q 400 111 363 111 q 508 141 461 111 q 583 204 556 171 l 583 653 l 715 653 l 715 0 l 588 0 l 588 132 q 533 28 585 71 q 396 -14 482 -14 m 236 764 l 326 972 l 472 972 l 326 764 l 236 764 m 493 764 l 583 972 l 729 972 l 583 764 l 493 764 z "},"Ų":{"ha":1028,"x_min":111,"x_max":917,"o":"m 815 114 q 719 39 774 69 q 603 -4 665 8 q 575 -59 588 -28 q 563 -119 563 -90 q 581 -165 563 -150 q 628 -181 600 -181 q 647 -179 639 -181 q 660 -175 654 -178 l 681 -293 q 654 -301 674 -296 q 604 -306 635 -306 q 535 -292 567 -306 q 480 -257 503 -279 q 444 -204 457 -235 q 431 -139 431 -174 q 441 -66 431 -99 q 465 -11 451 -33 q 325 30 390 -3 q 213 114 260 63 q 138 235 165 165 q 111 403 111 304 l 111 972 l 250 972 l 250 396 q 266 281 250 326 q 311 204 282 236 q 399 141 347 164 q 514 118 451 118 q 628 141 576 118 q 717 204 681 164 q 762 281 746 236 q 778 396 778 326 l 778 972 l 917 972 l 917 403 q 890 235 917 304 q 815 114 863 165 z "},"ų":{"ha":833,"x_min":104,"x_max":781,"o":"m 396 -14 q 265 15 325 -14 q 164 96 204 44 q 119 185 133 133 q 104 319 104 236 l 104 653 l 236 653 l 236 299 q 246 219 236 249 q 274 168 256 189 q 329 126 296 142 q 400 111 363 111 q 508 141 461 111 q 583 204 556 171 l 583 653 l 715 653 l 715 0 l 706 0 q 676 -56 690 -22 q 663 -119 663 -89 q 681 -165 663 -150 q 728 -181 700 -181 q 747 -179 739 -181 q 760 -175 754 -178 l 781 -293 q 754 -301 774 -296 q 704 -306 735 -306 q 635 -292 667 -306 q 580 -257 603 -279 q 544 -204 557 -235 q 531 -139 531 -174 q 550 -43 531 -86 q 588 19 569 0 l 588 132 q 533 28 585 71 q 396 -14 482 -14 z "},"Ŵ":{"ha":1319,"x_min":14,"x_max":1306,"o":"m 417 0 l 319 0 l 14 972 l 156 972 l 374 268 l 611 972 l 708 972 l 946 268 l 1164 972 l 1306 972 l 1000 0 l 903 0 l 660 719 l 417 0 m 451 1042 l 583 1250 l 736 1250 l 868 1042 l 778 1042 l 660 1172 l 542 1042 l 451 1042 z "},"ŵ":{"ha":1108,"x_min":14,"x_max":1094,"o":"m 600 653 l 779 207 l 958 653 l 1094 653 l 829 0 l 738 0 l 554 458 l 371 0 l 279 0 l 14 653 l 150 653 l 329 207 l 508 653 l 600 653 m 346 764 l 478 972 l 631 972 l 763 764 l 672 764 l 554 894 l 436 764 l 346 764 z "},"Ŷ":{"ha":833,"x_min":14,"x_max":819,"o":"m 486 444 l 486 0 l 347 0 l 347 444 l 14 972 l 169 972 l 417 582 l 664 972 l 819 972 l 486 444 m 208 1042 l 340 1250 l 493 1250 l 625 1042 l 535 1042 l 417 1172 l 299 1042 l 208 1042 z "},"ŷ":{"ha":707,"x_min":14,"x_max":686,"o":"m 117 -333 l 293 68 l 14 653 l 156 653 l 360 222 l 547 653 l 686 653 l 257 -333 l 117 -333 m 143 764 l 275 972 l 428 972 l 560 764 l 469 764 l 351 894 l 233 764 l 143 764 z "},"Ÿ":{"ha":833,"x_min":14,"x_max":819,"o":"m 486 444 l 486 0 l 347 0 l 347 444 l 14 972 l 169 972 l 417 582 l 664 972 l 819 972 l 486 444 m 201 1135 q 226 1197 201 1171 q 288 1222 251 1222 q 349 1197 324 1222 q 375 1135 375 1171 q 349 1074 375 1099 q 288 1049 324 1049 q 226 1074 251 1049 q 201 1135 201 1099 m 458 1135 q 483 1197 458 1171 q 544 1222 508 1222 q 606 1197 581 1222 q 632 1135 632 1171 q 606 1074 632 1099 q 544 1049 581 1049 q 483 1074 508 1049 q 458 1135 458 1099 z "},"Ź":{"ha":819,"x_min":56,"x_max":778,"o":"m 368 1042 l 458 1250 l 604 1250 l 458 1042 l 368 1042 m 97 972 l 750 972 l 750 882 l 244 132 l 778 132 l 778 0 l 56 0 l 56 90 l 564 840 l 97 840 l 97 972 z "},"ź":{"ha":653,"x_min":56,"x_max":625,"o":"m 288 764 l 378 972 l 524 972 l 378 764 l 288 764 m 414 535 l 76 535 l 76 653 l 597 653 l 597 569 l 238 118 l 625 118 l 625 0 l 56 0 l 56 83 l 414 535 z "},"Ż":{"ha":819,"x_min":56,"x_max":778,"o":"m 338 1163 q 363 1224 338 1199 q 424 1250 388 1250 q 485 1224 460 1250 q 511 1163 511 1199 q 485 1101 511 1126 q 424 1076 460 1076 q 363 1101 388 1076 q 338 1163 338 1126 m 97 972 l 750 972 l 750 882 l 244 132 l 778 132 l 778 0 l 56 0 l 56 90 l 564 840 l 97 840 l 97 972 z "},"ż":{"ha":653,"x_min":56,"x_max":625,"o":"m 250 885 q 275 947 250 921 q 336 972 300 972 q 398 947 372 972 q 424 885 424 921 q 398 824 424 849 q 336 799 372 799 q 275 824 300 799 q 250 885 250 849 m 414 535 l 76 535 l 76 653 l 597 653 l 597 569 l 238 118 l 625 118 l 625 0 l 56 0 l 56 83 l 414 535 z "},"Ž":{"ha":819,"x_min":56,"x_max":778,"o":"m 97 972 l 750 972 l 750 882 l 244 132 l 778 132 l 778 0 l 56 0 l 56 90 l 564 840 l 97 840 l 97 972 m 299 1250 l 417 1119 l 535 1250 l 625 1250 l 493 1042 l 340 1042 l 208 1250 l 299 1250 z "},"ž":{"ha":653,"x_min":56,"x_max":625,"o":"m 236 972 l 354 842 l 472 972 l 563 972 l 431 764 l 278 764 l 146 972 l 236 972 m 414 535 l 76 535 l 76 653 l 597 653 l 597 569 l 238 118 l 625 118 l 625 0 l 56 0 l 56 83 l 414 535 z "},"ſ":{"ha":507,"x_min":118,"x_max":507,"o":"m 250 0 l 118 0 l 118 708 q 128 817 118 775 q 160 892 138 860 q 251 972 196 943 q 374 1000 307 1000 q 507 972 447 1000 l 458 857 q 421 869 442 864 q 375 875 400 875 q 319 863 347 875 q 275 829 292 851 q 256 784 261 811 q 250 713 250 757 l 250 0 z "},"Ə":{"ha":1003,"x_min":49,"x_max":954,"o":"m 193 388 q 230 277 203 326 q 297 192 257 228 q 388 138 338 157 q 496 118 439 118 q 606 139 556 118 q 697 196 657 160 q 764 281 736 232 q 806 388 792 331 l 193 388 m 75 806 q 142 871 103 839 q 231 928 181 903 q 341 970 281 954 q 474 986 401 986 q 674 947 585 986 q 825 839 763 907 q 921 680 888 771 q 954 486 954 589 q 921 292 954 383 q 827 133 888 201 q 682 26 767 65 q 496 -14 597 -14 q 318 22 400 -14 q 176 121 236 58 q 83 269 117 183 q 49 456 49 356 q 50 483 49 463 q 54 519 51 504 l 814 519 q 785 649 808 588 q 719 756 761 710 q 615 828 676 801 q 474 854 554 854 q 308 819 382 854 q 174 717 233 783 l 75 806 z "},"ƒ":{"ha":731,"x_min":-56,"x_max":717,"o":"m 218 -61 q 238 35 229 -22 q 252 158 246 92 q 263 295 258 224 q 275 438 268 367 l 64 438 l 64 556 l 286 556 q 298 644 292 603 q 314 721 304 686 q 347 817 326 771 q 399 897 367 863 q 491 963 438 940 q 613 986 544 986 q 664 982 638 986 q 717 967 690 978 l 681 851 q 649 858 665 856 q 613 861 633 861 q 497 813 540 861 q 443 700 463 771 q 428 635 435 672 q 417 556 422 599 l 628 556 l 628 438 l 404 438 q 393 297 399 369 q 381 156 388 225 q 367 26 375 88 q 347 -82 360 -35 q 315 -178 335 -132 q 263 -258 294 -224 q 170 -324 224 -301 q 49 -347 117 -347 q -3 -343 24 -347 q -56 -328 -29 -339 l -19 -212 q 12 -219 -4 -217 q 49 -222 28 -222 q 164 -174 121 -222 q 218 -61 199 -132 z "},"Ƶ":{"ha":819,"x_min":56,"x_max":778,"o":"m 394 590 l 564 840 l 97 840 l 97 972 l 750 972 l 750 882 l 553 590 l 708 590 l 708 458 l 464 458 l 244 132 l 778 132 l 778 0 l 56 0 l 56 90 l 304 458 l 153 458 l 153 590 l 394 590 z "},"ƶ":{"ha":653,"x_min":56,"x_max":625,"o":"m 303 396 l 414 535 l 76 535 l 76 653 l 597 653 l 597 569 l 460 396 l 563 396 l 563 278 l 365 278 l 238 118 l 625 118 l 625 0 l 56 0 l 56 83 l 208 278 l 118 278 l 118 396 l 303 396 z "},"Ǻ":{"ha":917,"x_min":7,"x_max":910,"o":"m 319 1153 q 360 1251 319 1211 q 458 1292 400 1292 q 557 1251 517 1292 q 597 1153 597 1211 q 557 1054 597 1094 q 458 1014 517 1014 q 360 1054 400 1014 q 319 1153 319 1094 m 403 1153 q 419 1113 403 1129 q 458 1097 435 1097 q 498 1113 482 1097 q 514 1153 514 1129 q 498 1192 514 1176 q 458 1208 482 1208 q 419 1192 435 1208 q 403 1153 403 1176 m 417 1333 l 507 1542 l 653 1542 l 507 1333 l 417 1333 m 663 250 l 253 250 l 151 0 l 7 0 l 410 972 l 507 972 l 910 0 l 765 0 l 663 250 m 308 382 l 608 382 l 458 743 l 308 382 z "},"ǻ":{"ha":840,"x_min":63,"x_max":722,"o":"m 722 653 l 722 0 l 594 0 l 594 139 q 540 29 592 72 q 393 -14 489 -14 q 306 -2 349 -14 q 229 29 263 10 q 108 151 154 74 q 63 326 63 228 q 109 503 63 425 q 231 625 156 581 q 304 656 264 644 q 390 667 344 667 q 542 622 490 667 q 594 514 594 576 l 594 653 l 722 653 m 590 449 q 512 515 560 489 q 404 542 464 542 q 318 524 357 542 q 252 477 279 507 q 210 408 225 447 q 194 326 194 369 q 210 243 194 282 q 256 175 226 204 q 324 128 285 146 q 411 111 364 111 q 509 135 461 111 q 590 204 557 160 l 590 449 m 274 875 q 314 974 274 933 q 413 1014 354 1014 q 511 974 471 1014 q 551 875 551 933 q 511 776 551 817 q 413 736 471 736 q 314 776 354 736 q 274 875 274 817 m 350 1056 l 440 1264 l 586 1264 l 440 1056 l 350 1056 m 357 875 q 373 835 357 851 q 413 819 389 819 q 452 835 436 819 q 468 875 468 851 q 452 915 468 899 q 413 931 436 931 q 373 915 389 931 q 357 875 357 899 z "},"Ǽ":{"ha":1264,"x_min":-28,"x_max":1208,"o":"m 688 1042 l 778 1250 l 924 1250 l 778 1042 l 688 1042 m 639 0 l 639 250 l 281 250 l 131 0 l -28 0 l 553 972 l 1194 972 l 1194 840 l 778 840 l 778 590 l 1097 590 l 1097 458 l 778 458 l 778 132 l 1208 132 l 1208 0 l 639 0 m 358 382 l 639 382 l 639 854 l 358 382 z "},"ǽ":{"ha":1290,"x_min":63,"x_max":1228,"o":"m 594 139 q 540 29 592 72 q 393 -14 489 -14 q 306 -2 349 -14 q 229 29 263 10 q 108 151 154 74 q 63 326 63 228 q 109 503 63 425 q 231 625 156 581 q 304 656 264 644 q 390 667 344 667 q 540 624 488 667 q 594 519 592 581 l 594 653 l 711 653 l 711 593 q 799 647 750 628 q 907 667 849 667 q 1032 640 974 667 q 1134 568 1090 614 q 1203 460 1178 522 q 1228 326 1228 399 q 1228 315 1228 322 q 1226 299 1228 308 l 717 299 q 739 222 721 257 q 787 159 757 186 q 856 117 817 132 q 939 101 894 101 q 1001 110 974 101 q 1051 131 1029 118 q 1091 159 1074 143 q 1122 190 1108 175 l 1208 108 q 1106 24 1172 63 q 942 -14 1039 -14 q 816 9 875 -14 q 711 75 757 32 l 711 0 l 594 0 l 594 139 m 590 449 q 512 515 560 489 q 404 542 464 542 q 318 524 357 542 q 252 477 279 507 q 210 408 225 447 q 194 326 194 369 q 210 243 194 282 q 256 175 226 204 q 324 128 285 146 q 411 111 364 111 q 509 135 461 111 q 590 204 557 160 l 590 449 m 913 551 q 794 513 846 551 q 724 410 742 474 l 1090 410 q 1065 467 1082 440 q 1024 512 1047 493 q 972 541 1000 531 q 913 551 943 551 m 608 764 l 699 972 l 844 972 l 699 764 l 608 764 z "},"Ǿ":{"ha":1069,"x_min":31,"x_max":1038,"o":"m 486 1042 l 576 1250 l 722 1250 l 576 1042 l 486 1042 m 49 486 q 86 683 49 592 q 189 842 124 775 q 343 948 254 910 q 535 986 432 986 q 678 965 611 986 q 804 906 746 944 l 872 986 l 1038 986 l 900 821 q 989 669 957 754 q 1021 486 1021 585 q 983 288 1021 379 q 881 130 946 197 q 726 24 815 63 q 535 -14 638 -14 q 391 7 458 -14 q 265 65 324 28 l 197 -14 l 31 -14 l 169 150 q 80 301 111 217 q 49 486 49 386 m 188 486 q 206 361 188 419 q 258 257 225 303 l 718 801 q 632 840 678 826 q 535 854 586 854 q 397 826 460 854 q 287 749 333 799 q 214 633 240 700 q 188 486 188 565 m 882 486 q 863 610 882 553 q 810 715 844 668 l 351 169 q 535 118 433 118 q 673 146 610 118 q 783 223 736 174 q 856 340 829 272 q 882 486 882 407 z "},"ǿ":{"ha":800,"x_min":38,"x_max":764,"o":"m 351 764 l 442 972 l 588 972 l 442 764 l 351 764 m 63 326 q 88 461 63 399 q 159 569 114 524 q 266 641 204 615 q 400 667 328 667 q 491 655 449 667 q 571 622 533 643 l 610 667 l 764 667 l 661 546 q 717 446 697 501 q 738 326 738 390 q 712 191 738 253 q 641 83 686 129 q 534 12 596 38 q 400 -14 472 -14 q 229 29 304 -14 l 193 -14 l 38 -14 l 138 106 q 82 206 101 150 q 63 326 63 261 m 194 326 q 225 210 194 263 l 488 522 q 400 542 446 542 q 317 525 354 542 q 252 479 279 508 q 210 410 225 450 q 194 326 194 371 m 606 326 q 575 442 606 389 l 313 129 q 400 111 353 111 q 483 128 446 111 q 548 174 521 144 q 590 242 575 203 q 606 326 606 282 z "},"Ș":{"ha":739,"x_min":42,"x_max":683,"o":"m 138 243 q 240 154 181 190 q 375 118 300 118 q 440 128 408 118 q 494 158 471 139 q 531 204 517 178 q 544 264 544 231 q 510 353 544 319 q 426 413 476 388 q 317 460 375 438 q 210 514 258 482 q 122 600 157 549 q 86 728 86 651 q 108 828 86 781 q 170 910 131 875 q 263 966 210 946 q 381 986 317 986 q 466 977 426 986 q 538 953 506 968 q 597 922 571 939 q 642 889 622 906 l 560 788 q 386 854 481 854 q 327 846 356 854 q 276 821 299 838 q 239 780 253 804 q 225 724 225 756 q 259 647 225 678 q 344 592 293 617 q 452 544 394 568 q 557 490 510 521 q 604 453 582 474 q 644 405 626 432 q 673 344 663 378 q 683 268 683 310 q 660 152 683 204 q 596 63 636 100 q 501 6 556 26 q 382 -14 446 -14 q 194 28 282 -14 q 42 149 107 69 l 138 243 m 233 -278 l 324 -69 l 469 -69 l 324 -278 l 233 -278 z "},"ș":{"ha":632,"x_min":56,"x_max":563,"o":"m 124 174 q 317 101 217 101 q 395 123 360 101 q 431 183 431 144 q 412 228 431 211 q 364 255 393 244 q 299 274 335 265 q 226 294 263 282 q 170 319 197 304 q 122 354 143 333 q 89 401 101 375 q 76 463 76 428 q 98 553 76 515 q 153 617 119 592 q 231 654 188 642 q 318 667 274 667 q 443 647 390 667 q 535 594 496 626 l 467 500 q 401 538 436 524 q 326 551 367 551 q 243 530 278 551 q 208 469 208 508 q 242 421 208 436 q 325 393 276 406 q 406 369 364 383 q 482 331 447 354 q 540 272 517 307 q 563 186 563 236 q 542 103 563 140 q 489 40 522 65 q 411 0 456 14 q 319 -14 367 -14 q 56 76 167 -14 l 124 174 m 164 -278 l 254 -69 l 400 -69 l 254 -278 l 164 -278 z "},"Ț":{"ha":708,"x_min":21,"x_max":688,"o":"m 21 972 l 688 972 l 688 840 l 424 840 l 424 0 l 285 0 l 285 840 l 21 840 l 21 972 m 192 -278 l 282 -69 l 428 -69 l 282 -278 l 192 -278 z "},"ț":{"ha":583,"x_min":14,"x_max":521,"o":"m 226 -278 l 317 -69 l 463 -69 l 317 -278 l 226 -278 m 521 0 q 474 -10 501 -7 q 418 -14 446 -14 q 310 6 356 -14 q 233 63 265 26 q 192 139 204 94 q 181 236 181 183 l 181 535 l 14 535 l 14 653 l 181 653 l 181 833 l 313 833 l 313 653 l 521 653 l 521 535 l 313 535 l 313 229 q 316 182 313 203 q 332 146 319 161 q 371 120 346 129 q 422 111 396 111 q 458 113 438 111 q 494 119 479 115 l 521 0 z "},"ȷ":{"ha":396,"x_min":-56,"x_max":278,"o":"m 146 653 l 278 653 l 278 -56 q 268 -165 278 -122 q 236 -239 258 -207 q 144 -319 200 -290 q 22 -347 89 -347 q -20 -344 1 -347 q -56 -337 -42 -342 l -28 -217 q -7 -221 -21 -219 q 21 -222 7 -222 q 76 -210 49 -222 q 121 -176 104 -199 q 140 -131 135 -158 q 146 -60 146 -104 l 146 653 z "},"ə":{"ha":757,"x_min":63,"x_max":694,"o":"m 567 354 q 544 434 563 397 q 498 497 526 471 q 433 537 469 522 q 356 551 397 551 q 290 543 318 551 q 239 522 261 535 q 199 494 217 510 q 168 463 182 478 l 82 544 q 188 630 118 593 q 357 667 257 667 q 490 641 428 667 q 597 570 551 615 q 669 463 643 525 q 694 326 694 400 q 671 190 694 253 q 605 83 647 128 q 504 12 563 38 q 376 -14 446 -14 q 251 12 308 -14 q 151 83 193 38 q 86 192 110 129 q 63 326 63 254 q 63 338 63 331 q 64 354 63 344 l 567 354 m 372 101 q 488 140 436 101 q 556 243 539 179 l 200 243 q 224 185 207 211 q 265 141 242 160 q 315 112 288 122 q 372 101 343 101 z "},"ˆ":{"ha":611,"x_min":97,"x_max":514,"o":"m 97 764 l 229 972 l 382 972 l 514 764 l 424 764 l 306 894 l 188 764 l 97 764 z "},"ˇ":{"ha":611,"x_min":97,"x_max":514,"o":"m 188 972 l 306 842 l 424 972 l 514 972 l 382 764 l 229 764 l 97 972 l 188 972 z "},"ˉ":{"ha":694,"x_min":97,"x_max":514,"o":"m 514 917 l 514 799 l 97 799 l 97 917 l 514 917 z "},"˘":{"ha":583,"x_min":97,"x_max":486,"o":"m 486 972 q 471 897 486 932 q 429 835 456 861 q 367 793 403 808 q 292 778 332 778 q 216 793 251 778 q 154 835 181 808 q 113 897 128 861 q 97 972 97 932 l 208 972 q 233 913 208 938 q 292 889 257 889 q 351 913 326 889 q 375 972 375 938 l 486 972 z "},"˙":{"ha":368,"x_min":97,"x_max":271,"o":"m 97 885 q 122 947 97 921 q 183 972 147 972 q 245 947 219 972 q 271 885 271 921 q 245 824 271 849 q 183 799 219 799 q 122 824 147 799 q 97 885 97 849 z "},"˚":{"ha":472,"x_min":97,"x_max":375,"o":"m 97 875 q 138 974 97 933 q 236 1014 178 1014 q 335 974 294 1014 q 375 875 375 933 q 335 776 375 817 q 236 736 294 736 q 138 776 178 736 q 97 875 97 817 m 181 875 q 197 835 181 851 q 236 819 213 819 q 276 835 260 819 q 292 875 292 851 q 276 915 292 899 q 236 931 260 931 q 197 915 213 931 q 181 875 181 899 z "},"˛":{"ha":444,"x_min":97,"x_max":347,"o":"m 282 14 q 266 -11 275 4 q 249 -44 257 -26 q 235 -82 240 -62 q 229 -119 229 -101 q 248 -165 229 -150 q 294 -181 267 -181 q 313 -179 306 -181 q 326 -175 321 -178 l 347 -293 q 321 -301 340 -296 q 271 -306 301 -306 q 201 -292 233 -306 q 147 -257 169 -279 q 110 -204 124 -235 q 97 -139 97 -174 q 116 -46 97 -86 q 150 14 135 -6 l 282 14 z "},"˜":{"ha":667,"x_min":97,"x_max":569,"o":"m 97 807 q 109 865 99 838 q 138 914 119 893 q 181 947 156 935 q 238 958 206 958 q 289 949 264 958 q 338 927 314 939 q 383 906 361 915 q 426 896 406 896 q 462 912 450 896 q 479 958 474 928 l 569 929 q 558 871 568 899 q 529 822 547 843 q 485 790 511 801 q 429 778 460 778 q 378 788 403 778 q 329 809 353 797 q 283 831 306 821 q 240 840 261 840 q 205 824 217 840 q 188 778 193 808 l 97 807 z "},"˝":{"ha":715,"x_min":125,"x_max":618,"o":"m 125 764 l 215 972 l 361 972 l 215 764 l 125 764 m 382 764 l 472 972 l 618 972 l 472 764 l 382 764 z "},"Δ":{"ha":792,"x_min":7,"x_max":785,"o":"m 442 972 l 785 83 l 785 0 l 7 0 l 7 83 l 350 972 l 442 972 m 635 125 l 396 744 l 157 125 l 635 125 z "},"Ω":{"ha":1056,"x_min":42,"x_max":1014,"o":"m 528 861 q 388 833 453 861 q 276 756 324 804 q 201 642 228 707 q 174 503 174 576 q 206 322 174 400 q 279 192 239 244 q 386 83 325 129 l 386 0 l 42 0 l 42 125 l 169 125 q 106 231 133 172 q 62 350 82 281 q 42 503 42 419 q 80 694 42 606 q 184 847 118 782 q 339 949 250 913 q 528 986 428 986 q 717 949 628 986 q 872 847 806 913 q 976 694 938 782 q 1014 503 1014 606 q 994 350 1014 419 q 950 231 974 281 q 886 125 922 172 l 1014 125 l 1014 0 l 669 0 l 669 83 q 775 192 729 129 q 814 251 794 218 q 849 322 833 283 q 873 406 864 361 q 882 503 882 451 q 855 642 882 576 q 780 756 828 707 q 667 833 732 804 q 528 861 603 861 z "},"μ":{"ha":847,"x_min":118,"x_max":729,"o":"m 410 -14 q 358 -8 382 -14 q 313 8 333 -1 q 276 28 292 17 q 250 49 260 39 l 250 -333 l 118 -333 l 118 653 l 250 653 l 250 299 q 260 219 250 249 q 288 168 269 189 q 342 126 310 142 q 410 111 374 111 q 520 140 475 111 q 597 204 565 169 l 597 653 l 729 653 l 729 0 l 601 0 l 601 129 q 547 28 597 69 q 410 -14 496 -14 z "},"π":{"ha":799,"x_min":7,"x_max":771,"o":"m 601 -14 q 548 26 568 3 q 517 79 528 50 q 503 141 507 108 q 500 208 500 174 l 500 528 l 361 528 l 361 0 l 229 0 l 229 519 q 190 507 207 515 q 147 476 164 494 q 114 436 129 457 l 7 500 q 61 571 26 536 q 149 628 96 606 q 213 646 176 639 q 297 653 249 653 l 771 653 l 771 528 l 632 528 l 632 213 q 638 142 632 171 q 676 94 643 114 l 601 -14 z "},"Ẁ":{"ha":1319,"x_min":14,"x_max":1306,"o":"m 618 1042 l 472 1250 l 618 1250 l 708 1042 l 618 1042 m 417 0 l 319 0 l 14 972 l 156 972 l 374 268 l 611 972 l 708 972 l 946 268 l 1164 972 l 1306 972 l 1000 0 l 903 0 l 660 719 l 417 0 z "},"ẁ":{"ha":1108,"x_min":14,"x_max":1094,"o":"m 510 764 l 364 972 l 510 972 l 600 764 l 510 764 m 600 653 l 779 207 l 958 653 l 1094 653 l 829 0 l 738 0 l 554 458 l 371 0 l 279 0 l 14 653 l 150 653 l 329 207 l 508 653 l 600 653 z "},"Ẃ":{"ha":1319,"x_min":14,"x_max":1306,"o":"m 417 0 l 319 0 l 14 972 l 156 972 l 374 268 l 611 972 l 708 972 l 946 268 l 1164 972 l 1306 972 l 1000 0 l 903 0 l 660 719 l 417 0 m 611 1042 l 701 1250 l 847 1250 l 701 1042 l 611 1042 z "},"ẃ":{"ha":1108,"x_min":14,"x_max":1094,"o":"m 600 653 l 779 207 l 958 653 l 1094 653 l 829 0 l 738 0 l 554 458 l 371 0 l 279 0 l 14 653 l 150 653 l 329 207 l 508 653 l 600 653 m 508 764 l 599 972 l 744 972 l 599 764 l 508 764 z "},"Ẅ":{"ha":1319,"x_min":14,"x_max":1306,"o":"m 417 0 l 319 0 l 14 972 l 156 972 l 374 268 l 611 972 l 708 972 l 946 268 l 1164 972 l 1306 972 l 1000 0 l 903 0 l 660 719 l 417 0 m 444 1135 q 469 1197 444 1171 q 531 1222 494 1222 q 592 1197 567 1222 q 618 1135 618 1171 q 592 1074 618 1099 q 531 1049 567 1049 q 469 1074 494 1049 q 444 1135 444 1099 m 701 1135 q 726 1197 701 1171 q 788 1222 751 1222 q 849 1197 824 1222 q 875 1135 875 1171 q 849 1074 875 1099 q 788 1049 824 1049 q 726 1074 751 1049 q 701 1135 701 1099 z "},"ẅ":{"ha":1108,"x_min":14,"x_max":1094,"o":"m 600 653 l 779 207 l 958 653 l 1094 653 l 829 0 l 738 0 l 554 458 l 371 0 l 279 0 l 14 653 l 150 653 l 329 207 l 508 653 l 600 653 m 339 857 q 364 919 339 893 q 425 944 389 944 q 487 919 461 944 q 513 857 513 893 q 487 796 513 821 q 425 771 461 771 q 364 796 389 771 q 339 857 339 821 m 596 857 q 621 919 596 893 q 682 944 646 944 q 744 919 718 944 q 769 857 769 893 q 744 796 769 821 q 682 771 718 771 q 621 796 646 771 q 596 857 596 821 z "},"Ẋ":{"ha":915,"x_min":21,"x_max":894,"o":"m 371 1163 q 396 1224 371 1199 q 457 1250 421 1250 q 519 1224 493 1250 q 544 1163 544 1199 q 519 1101 544 1126 q 457 1076 493 1076 q 396 1101 421 1076 q 371 1163 371 1126 m 21 0 l 367 532 l 76 972 l 247 972 l 457 649 l 668 972 l 839 972 l 547 532 l 894 0 l 731 0 l 457 415 l 185 0 l 21 0 z "},"ẋ":{"ha":708,"x_min":21,"x_max":688,"o":"m 354 244 l 178 0 l 21 0 l 268 343 l 44 653 l 200 653 l 354 442 l 508 653 l 664 653 l 440 343 l 688 0 l 531 0 l 354 244 m 268 885 q 293 947 268 921 q 354 972 318 972 q 416 947 390 972 q 442 885 442 921 q 416 824 442 849 q 354 799 390 799 q 293 824 318 799 q 268 885 268 849 z "},"Ỳ":{"ha":833,"x_min":14,"x_max":819,"o":"m 486 444 l 486 0 l 347 0 l 347 444 l 14 972 l 169 972 l 417 582 l 664 972 l 819 972 l 486 444 m 368 1042 l 222 1250 l 368 1250 l 458 1042 l 368 1042 z "},"ỳ":{"ha":707,"x_min":14,"x_max":686,"o":"m 117 -333 l 293 68 l 14 653 l 156 653 l 360 222 l 547 653 l 686 653 l 257 -333 l 117 -333 m 322 764 l 176 972 l 322 972 l 413 764 l 322 764 z "},"–":{"ha":681,"x_min":28,"x_max":653,"o":"m 653 410 l 653 299 l 28 299 l 28 410 l 653 410 z "},"—":{"ha":1097,"x_min":28,"x_max":1069,"o":"m 1069 410 l 1069 299 l 28 299 l 28 410 l 1069 410 z "},"‘":{"ha":396,"x_min":69,"x_max":326,"o":"m 69 625 l 236 986 l 326 986 l 222 625 l 69 625 z "},"’":{"ha":396,"x_min":69,"x_max":326,"o":"m 326 986 l 160 625 l 69 625 l 174 986 l 326 986 z "},"‚":{"ha":396,"x_min":69,"x_max":326,"o":"m 326 167 l 160 -194 l 69 -194 l 174 167 l 326 167 z "},"“":{"ha":688,"x_min":69,"x_max":618,"o":"m 361 625 l 528 986 l 618 986 l 514 625 l 361 625 m 69 625 l 236 986 l 326 986 l 222 625 l 69 625 z "},"”":{"ha":688,"x_min":69,"x_max":618,"o":"m 326 986 l 160 625 l 69 625 l 174 986 l 326 986 m 618 986 l 451 625 l 361 625 l 465 986 l 618 986 z "},"„":{"ha":688,"x_min":69,"x_max":618,"o":"m 326 167 l 160 -194 l 69 -194 l 174 167 l 326 167 m 618 167 l 451 -194 l 361 -194 l 465 167 l 618 167 z "},"†":{"ha":729,"x_min":69,"x_max":660,"o":"m 299 639 l 299 972 l 431 972 l 431 639 l 660 639 l 660 514 l 431 514 l 431 -278 l 299 -278 l 299 514 l 69 514 l 69 639 l 299 639 z "},"‡":{"ha":729,"x_min":69,"x_max":660,"o":"m 299 639 l 299 972 l 431 972 l 431 639 l 660 639 l 660 514 l 431 514 l 431 306 l 660 306 l 660 181 l 431 181 l 431 -278 l 299 -278 l 299 181 l 69 181 l 69 306 l 299 306 l 299 514 l 69 514 l 69 639 l 299 639 z "},"•":{"ha":778,"x_min":111,"x_max":667,"o":"m 111 326 q 133 434 111 383 q 193 522 156 485 q 281 582 231 560 q 389 604 332 604 q 497 582 446 604 q 585 522 547 560 q 644 434 622 485 q 667 326 667 383 q 644 219 667 269 q 585 131 622 168 q 497 71 547 93 q 389 49 446 49 q 281 71 332 49 q 193 131 231 93 q 133 219 156 168 q 111 326 111 269 z "},"…":{"ha":1292,"x_min":153,"x_max":1167,"o":"m 153 83 q 181 152 153 124 q 250 181 210 181 q 319 152 290 181 q 347 83 347 124 q 319 15 347 43 q 250 -14 290 -14 q 181 15 210 -14 q 153 83 153 43 m 563 83 q 591 152 563 124 q 660 181 619 181 q 728 152 700 181 q 757 83 757 124 q 728 15 757 43 q 660 -14 700 -14 q 591 15 619 -14 q 563 83 563 43 m 972 83 q 1001 152 972 124 q 1069 181 1029 181 q 1138 152 1110 181 q 1167 83 1167 124 q 1138 15 1167 43 q 1069 -14 1110 -14 q 1001 15 1029 -14 q 972 83 972 43 z "},"‰":{"ha":1688,"x_min":83,"x_max":1604,"o":"m 1604 243 q 1585 143 1604 190 q 1533 61 1567 96 q 1454 6 1500 26 q 1354 -14 1408 -14 q 1248 8 1296 -14 q 1167 71 1200 31 q 1085 8 1132 31 q 979 -14 1038 -14 q 879 6 925 -14 q 800 61 833 26 q 748 143 767 96 q 729 243 729 190 q 748 343 729 296 q 800 425 767 390 q 879 480 833 460 q 979 500 925 500 q 1085 477 1038 500 q 1167 415 1132 454 q 1248 477 1200 454 q 1354 500 1296 500 q 1454 480 1408 500 q 1533 425 1500 460 q 1585 343 1567 390 q 1604 243 1604 296 m 583 729 q 565 629 583 676 q 513 547 546 582 q 433 492 479 513 q 333 472 388 472 q 233 492 279 472 q 154 547 188 513 q 102 629 121 582 q 83 729 83 676 q 102 829 83 782 q 154 911 121 876 q 233 966 188 946 q 333 986 279 986 q 433 966 388 986 q 513 911 479 946 q 565 829 546 876 q 583 729 583 782 m 306 0 l 874 972 l 1007 972 l 439 0 l 306 0 m 208 729 q 242 631 208 671 q 333 590 275 590 q 425 631 392 590 q 458 729 458 671 q 425 828 458 788 q 333 868 392 868 q 242 828 275 868 q 208 729 208 788 m 979 104 q 1071 144 1038 104 q 1104 243 1104 185 q 1071 342 1104 301 q 979 382 1038 382 q 888 342 921 382 q 854 243 854 301 q 888 144 854 185 q 979 104 921 104 m 1354 104 q 1446 144 1413 104 q 1479 243 1479 185 q 1446 342 1479 301 q 1354 382 1413 382 q 1263 342 1296 382 q 1229 243 1229 301 q 1263 144 1229 185 q 1354 104 1296 104 z "},"‹":{"ha":514,"x_min":111,"x_max":458,"o":"m 458 69 l 297 69 l 111 299 l 111 368 l 297 597 l 458 597 l 244 333 l 458 69 z "},"›":{"ha":514,"x_min":56,"x_max":403,"o":"m 269 333 l 56 597 l 217 597 l 403 368 l 403 299 l 217 69 l 56 69 l 269 333 z "},"⁄":{"ha":701,"x_min":7,"x_max":694,"o":"m 7 0 l 575 972 l 694 972 l 126 0 l 7 0 z "},"⁰":{"ha":453,"x_min":42,"x_max":411,"o":"m 307 722 q 303 788 307 757 q 289 840 299 818 q 263 876 279 863 q 224 889 247 889 q 188 876 203 889 q 163 840 172 863 q 150 788 154 818 q 146 722 146 757 q 150 657 146 688 q 163 604 154 626 q 188 569 172 582 q 224 556 203 556 q 263 569 247 556 q 289 604 279 582 q 303 657 299 626 q 307 722 307 688 m 411 722 q 363 528 411 599 q 225 458 315 458 q 89 528 136 458 q 42 722 42 599 q 89 916 42 846 q 225 986 136 986 q 363 916 315 986 q 411 722 411 846 z "},"⁴":{"ha":468,"x_min":35,"x_max":447,"o":"m 363 972 l 363 676 l 447 676 l 447 579 l 363 579 l 363 472 l 258 472 l 258 579 l 35 579 l 35 635 l 300 972 l 363 972 m 258 676 l 258 768 l 189 676 l 258 676 z "},"⁵":{"ha":410,"x_min":35,"x_max":375,"o":"m 57 697 l 96 972 l 360 972 l 360 875 l 188 875 l 178 806 q 192 807 189 807 q 200 807 194 807 q 270 793 238 807 q 326 756 303 779 q 362 701 349 732 q 375 635 375 669 q 361 565 375 597 q 322 509 347 533 q 264 472 297 485 q 192 458 231 458 q 99 481 140 458 q 35 539 58 503 l 115 594 q 149 566 129 576 q 192 556 168 556 q 248 578 225 556 q 271 635 271 600 q 249 691 271 667 q 189 715 228 715 q 122 688 154 715 l 57 697 z "},"⁶":{"ha":429,"x_min":35,"x_max":401,"o":"m 226 807 q 298 791 265 806 q 353 752 331 776 q 389 697 376 728 q 401 632 401 667 q 387 563 401 594 q 347 508 372 532 q 290 472 322 485 q 219 458 257 458 q 145 472 179 458 q 87 510 111 486 q 49 565 63 533 q 35 632 35 596 q 71 744 35 689 l 215 972 l 331 972 l 226 807 m 218 711 q 165 697 189 711 q 147 670 156 686 q 139 632 139 654 q 162 576 139 599 q 219 553 185 553 q 275 576 253 553 q 297 632 297 599 q 275 688 297 665 q 218 711 253 711 z "},"⁷":{"ha":371,"x_min":14,"x_max":357,"o":"m 14 972 l 357 972 l 357 917 l 156 472 l 46 472 l 231 875 l 14 875 l 14 972 z "},"⁸":{"ha":428,"x_min":28,"x_max":400,"o":"m 296 631 q 274 685 296 663 q 215 707 253 707 q 154 685 176 707 q 132 631 132 663 q 154 577 132 599 q 215 556 176 556 q 274 577 253 556 q 296 631 296 599 m 165 839 q 178 803 165 818 q 214 789 190 789 q 250 803 238 789 q 263 839 263 818 q 250 875 263 861 q 214 889 238 889 q 178 875 190 889 q 165 839 165 861 m 61 844 q 73 900 61 874 q 105 945 85 926 q 153 975 125 964 q 215 986 182 986 q 324 945 281 986 q 367 844 367 904 q 356 795 367 818 q 331 754 346 772 q 381 697 363 731 q 400 625 400 664 q 386 560 400 590 q 347 508 372 531 q 288 472 322 485 q 215 458 254 458 q 141 472 175 458 q 82 508 107 485 q 42 560 57 531 q 28 625 28 590 q 47 697 28 664 q 97 754 67 731 q 72 795 82 772 q 61 844 61 818 z "},"⁹":{"ha":429,"x_min":28,"x_max":394,"o":"m 203 638 q 131 653 163 639 q 76 692 99 668 q 40 747 53 717 q 28 813 28 778 q 42 881 28 850 q 82 936 57 913 q 140 973 107 960 q 210 986 172 986 q 284 972 250 986 q 342 935 318 958 q 381 880 367 911 q 394 813 394 849 q 358 700 394 756 l 214 472 l 99 472 l 203 638 m 211 731 q 264 744 240 731 q 282 772 274 756 q 290 810 290 788 q 267 866 290 843 q 210 889 244 889 q 154 866 176 889 q 132 810 132 843 q 154 753 132 776 q 211 731 176 731 z "},"₀":{"ha":453,"x_min":42,"x_max":411,"o":"m 307 250 q 303 315 307 285 q 289 368 299 346 q 263 403 279 390 q 224 417 247 417 q 188 403 203 417 q 163 368 172 390 q 150 315 154 346 q 146 250 146 285 q 150 185 146 215 q 163 132 154 154 q 188 97 172 110 q 224 83 203 83 q 263 97 247 83 q 289 132 279 110 q 303 185 299 154 q 307 250 307 215 m 411 250 q 363 56 411 126 q 225 -14 315 -14 q 89 56 136 -14 q 42 250 42 126 q 89 444 42 374 q 225 514 136 514 q 363 444 315 514 q 411 250 411 374 z "},"₁":{"ha":326,"x_min":42,"x_max":257,"o":"m 42 422 l 194 500 l 257 500 l 257 0 l 153 0 l 153 369 l 42 318 l 42 422 z "},"₂":{"ha":432,"x_min":42,"x_max":383,"o":"m 43 383 q 103 478 58 443 q 211 514 149 514 q 276 502 244 514 q 330 469 307 490 q 367 417 353 447 q 381 351 381 388 q 363 280 381 313 q 321 219 346 247 l 211 97 l 383 97 l 383 0 l 42 0 l 42 56 l 231 267 q 261 304 246 282 q 276 351 276 326 q 259 397 276 378 q 211 417 242 417 q 167 399 185 417 q 140 354 149 382 l 43 383 z "},"₃":{"ha":421,"x_min":28,"x_max":379,"o":"m 111 128 q 144 94 122 108 q 192 81 165 81 q 251 105 228 81 q 275 164 275 129 q 253 224 275 197 q 190 250 231 250 q 122 235 160 250 l 122 290 l 207 403 l 47 403 l 47 500 l 357 500 l 357 444 l 268 322 q 348 261 317 306 q 379 164 379 217 q 365 94 379 126 q 325 38 350 61 q 265 0 300 14 q 192 -14 231 -14 q 93 12 135 -14 q 28 75 51 38 l 111 128 z "},"₄":{"ha":468,"x_min":35,"x_max":447,"o":"m 363 500 l 363 204 l 447 204 l 447 107 l 363 107 l 363 0 l 258 0 l 258 107 l 35 107 l 35 163 l 300 500 l 363 500 m 258 204 l 258 296 l 189 204 l 258 204 z "},"₅":{"ha":410,"x_min":35,"x_max":375,"o":"m 57 225 l 96 500 l 360 500 l 360 403 l 188 403 l 178 333 q 192 335 189 335 q 200 335 194 335 q 270 321 238 335 q 326 283 303 307 q 362 228 349 260 q 375 163 375 197 q 361 93 375 125 q 322 37 347 61 q 264 -1 297 13 q 192 -14 231 -14 q 99 8 140 -14 q 35 67 58 31 l 115 122 q 149 94 129 104 q 192 83 168 83 q 248 106 225 83 q 271 163 271 128 q 249 219 271 194 q 189 243 228 243 q 122 215 154 243 l 57 225 z "},"₆":{"ha":429,"x_min":35,"x_max":401,"o":"m 226 335 q 298 319 265 333 q 353 280 331 304 q 389 225 376 256 q 401 160 401 194 q 387 91 401 122 q 347 36 372 60 q 290 -1 322 13 q 219 -14 257 -14 q 145 0 179 -14 q 87 38 111 14 q 49 92 63 61 q 35 160 35 124 q 71 272 35 217 l 215 500 l 331 500 l 226 335 m 218 242 q 165 228 189 242 q 147 201 156 217 q 139 163 139 185 q 162 106 139 129 q 219 83 185 83 q 275 106 253 83 q 297 163 297 129 q 275 219 297 196 q 218 242 253 242 z "},"₇":{"ha":371,"x_min":14,"x_max":357,"o":"m 14 500 l 357 500 l 357 444 l 156 0 l 46 0 l 231 403 l 14 403 l 14 500 z "},"₈":{"ha":428,"x_min":28,"x_max":400,"o":"m 296 158 q 274 213 296 190 q 215 235 253 235 q 154 213 176 235 q 132 158 132 190 q 154 105 132 126 q 215 83 176 83 q 274 105 253 83 q 296 158 296 126 m 165 367 q 178 331 165 346 q 214 317 190 317 q 250 331 238 317 q 263 367 263 346 q 250 403 263 389 q 214 417 238 417 q 178 403 190 417 q 165 367 165 389 m 61 372 q 73 428 61 401 q 105 473 85 454 q 153 503 125 492 q 215 514 182 514 q 324 473 281 514 q 367 372 367 432 q 356 323 367 346 q 331 282 346 300 q 381 225 363 258 q 400 153 400 192 q 386 88 400 118 q 347 35 372 58 q 288 -1 322 13 q 215 -14 254 -14 q 141 -1 175 -14 q 82 35 107 13 q 42 88 57 58 q 28 153 28 118 q 47 225 28 192 q 97 282 67 258 q 72 323 82 300 q 61 372 61 346 z "},"₉":{"ha":429,"x_min":28,"x_max":394,"o":"m 203 165 q 131 181 163 167 q 76 220 99 196 q 40 275 53 244 q 28 340 28 306 q 42 409 28 378 q 82 464 57 440 q 140 501 107 488 q 210 514 172 514 q 284 500 250 514 q 342 463 318 486 q 381 408 367 439 q 394 340 394 376 q 358 228 394 283 l 214 0 l 99 0 l 203 165 m 211 258 q 264 272 240 258 q 282 299 274 283 q 290 338 290 315 q 267 394 290 371 q 210 417 244 417 q 154 394 176 417 q 132 338 132 371 q 154 281 132 304 q 211 258 176 258 z "},"€":{"ha":806,"x_min":-14,"x_max":819,"o":"m 221 486 q 221 461 221 474 q 222 438 221 449 l 593 438 l 593 319 l 246 319 q 340 174 276 231 q 504 118 404 118 q 624 145 572 118 q 711 219 675 172 l 819 149 q 686 28 764 71 q 504 -14 608 -14 q 358 11 424 -14 q 240 81 292 36 q 153 186 189 125 q 100 319 118 247 l -14 319 l -14 438 l 81 438 q 79 461 79 449 q 79 486 79 474 q 79 510 79 499 q 81 535 79 522 l -14 535 l -14 653 l 100 653 q 153 785 118 724 q 238 891 188 846 q 353 961 288 936 q 497 986 418 986 q 674 944 599 986 q 806 824 750 901 l 697 753 q 613 827 661 800 q 497 854 564 854 q 338 798 400 854 q 246 653 275 742 l 593 653 l 593 535 l 222 535 q 221 510 221 522 q 221 486 221 499 z "},"™":{"ha":1174,"x_min":97,"x_max":1076,"o":"m 615 972 l 814 672 l 1014 972 l 1076 972 l 1076 440 l 976 440 l 976 749 l 844 553 l 783 553 l 653 749 l 653 440 l 551 440 l 551 972 l 615 972 m 475 972 l 475 878 l 336 878 l 336 440 l 236 440 l 236 878 l 97 878 l 97 972 l 475 972 z "},"Ω":{"ha":1056,"x_min":42,"x_max":1014,"o":"m 528 861 q 388 833 453 861 q 276 756 324 804 q 201 642 228 707 q 174 503 174 576 q 206 322 174 400 q 279 192 239 244 q 386 83 325 129 l 386 0 l 42 0 l 42 125 l 169 125 q 106 231 133 172 q 62 350 82 281 q 42 503 42 419 q 80 694 42 606 q 184 847 118 782 q 339 949 250 913 q 528 986 428 986 q 717 949 628 986 q 872 847 806 913 q 976 694 938 782 q 1014 503 1014 606 q 994 350 1014 419 q 950 231 974 281 q 886 125 922 172 l 1014 125 l 1014 0 l 669 0 l 669 83 q 775 192 729 129 q 814 251 794 218 q 849 322 833 283 q 873 406 864 361 q 882 503 882 451 q 855 642 882 576 q 780 756 828 707 q 667 833 732 804 q 528 861 603 861 z "},"←":{"ha":999,"x_min":83,"x_max":915,"o":"m 363 40 l 83 319 l 83 389 l 363 668 l 519 668 l 258 410 l 915 410 l 915 299 l 258 299 l 519 40 l 363 40 z "},"→":{"ha":999,"x_min":83,"x_max":915,"o":"m 479 40 l 740 299 l 83 299 l 83 410 l 740 410 l 479 668 l 636 668 l 915 389 l 915 319 l 636 40 l 479 40 z "},"↖":{"ha":818,"x_min":83,"x_max":735,"o":"m 83 208 l 83 603 l 132 653 l 528 653 l 639 542 l 271 542 l 735 79 l 657 0 l 194 464 l 194 97 l 83 208 z "},"↗":{"ha":818,"x_min":83,"x_max":735,"o":"m 624 97 l 624 464 l 161 0 l 83 79 l 547 542 l 179 542 l 290 653 l 686 653 l 735 603 l 735 208 l 624 97 z "},"↘":{"ha":818,"x_min":83,"x_max":735,"o":"m 735 444 l 735 50 l 686 0 l 290 0 l 179 111 l 547 111 l 83 574 l 161 653 l 624 189 l 624 556 l 735 444 z "},"↙":{"ha":818,"x_min":83,"x_max":735,"o":"m 194 556 l 194 189 l 657 653 l 735 574 l 271 111 l 639 111 l 528 0 l 132 0 l 83 50 l 83 444 l 194 556 z "},"∂":{"ha":800,"x_min":63,"x_max":738,"o":"m 374 986 l 639 585 q 710 453 683 518 q 738 326 738 388 q 712 194 738 256 q 641 86 686 132 q 534 13 596 40 q 400 -14 472 -14 q 266 13 328 -14 q 159 85 204 39 q 88 194 114 132 q 63 326 63 256 q 88 459 63 397 q 158 567 113 521 q 265 640 203 613 q 400 667 326 667 q 415 666 407 667 q 432 664 424 665 l 219 986 l 374 986 m 400 542 q 317 525 354 542 q 252 479 279 508 q 210 410 225 450 q 194 326 194 371 q 210 242 194 282 q 252 174 225 203 q 317 128 279 144 q 400 111 354 111 q 483 128 446 111 q 548 174 521 144 q 590 242 575 203 q 606 326 606 282 q 585 421 606 371 q 533 510 565 471 q 474 532 510 522 q 400 542 438 542 z "},"∆":{"ha":792,"x_min":7,"x_max":785,"o":"m 442 972 l 785 83 l 785 0 l 7 0 l 7 83 l 350 972 l 442 972 m 635 125 l 396 744 l 157 125 l 635 125 z "},"∏":{"ha":792,"x_min":14,"x_max":778,"o":"m 153 0 l 153 847 l 14 847 l 14 972 l 778 972 l 778 847 l 639 847 l 639 0 l 507 0 l 507 847 l 285 847 l 285 0 l 153 0 z "},"∑":{"ha":778,"x_min":0,"x_max":736,"o":"m 597 847 l 226 847 l 519 542 l 519 458 l 208 125 l 611 125 l 611 278 l 736 278 l 736 0 l 0 0 l 0 83 l 389 500 l 14 889 l 14 972 l 722 972 l 722 694 l 597 694 l 597 847 z "},"−":{"ha":750,"x_min":69,"x_max":681,"o":"m 681 424 l 681 299 l 69 299 l 69 424 l 681 424 z "},"∕":{"ha":701,"x_min":7,"x_max":694,"o":"m 7 0 l 575 972 l 694 972 l 126 0 l 7 0 z "},"∙":{"ha":472,"x_min":139,"x_max":333,"o":"m 139 326 q 167 395 139 367 q 236 424 196 424 q 305 395 276 424 q 333 326 333 367 q 305 258 333 286 q 236 229 276 229 q 167 258 196 229 q 139 326 139 286 z "},"√":{"ha":806,"x_min":14,"x_max":819,"o":"m 819 972 l 474 0 l 382 0 l 165 528 l 14 528 l 14 653 l 250 653 l 424 231 l 686 972 l 819 972 z "},"∞":{"ha":1069,"x_min":42,"x_max":1028,"o":"m 1028 385 q 1009 275 1028 325 q 956 188 990 225 q 874 131 922 151 q 768 111 826 111 q 688 123 724 111 q 625 155 653 135 q 575 202 597 175 q 535 260 553 229 q 494 202 517 229 q 444 155 472 175 q 381 123 415 135 q 301 111 346 111 q 195 131 243 111 q 113 188 147 151 q 60 275 79 225 q 42 385 42 325 q 60 494 42 444 q 113 581 79 544 q 195 638 147 618 q 301 658 243 658 q 381 647 346 658 q 444 615 415 635 q 494 567 472 594 q 535 510 517 540 q 575 567 553 540 q 625 615 597 594 q 688 647 653 635 q 768 658 724 658 q 874 638 826 658 q 956 581 922 618 q 1009 494 990 544 q 1028 385 1028 444 m 896 385 q 863 491 896 449 q 768 533 831 533 q 712 522 736 533 q 668 490 688 510 q 632 442 649 469 q 600 385 615 415 q 632 327 615 354 q 668 280 649 300 q 712 248 688 260 q 768 236 736 236 q 863 278 831 236 q 896 385 896 321 m 301 533 q 206 491 239 533 q 174 385 174 449 q 206 278 174 321 q 301 236 239 236 q 356 248 332 236 q 401 280 381 260 q 438 327 421 300 q 469 385 454 354 q 438 442 454 415 q 401 490 421 469 q 356 522 381 510 q 301 533 332 533 z "},"∫":{"ha":731,"x_min":-56,"x_max":717,"o":"m 218 -61 q 239 41 231 -19 q 253 172 247 101 q 265 319 260 243 q 278 467 271 394 q 293 606 285 540 q 314 721 301 672 q 347 817 326 771 q 399 897 367 863 q 491 963 438 940 q 613 986 544 986 q 664 982 638 986 q 717 967 690 978 l 681 851 q 649 858 665 856 q 613 861 633 861 q 497 813 540 861 q 443 700 463 771 q 422 598 431 658 q 408 467 414 538 q 396 320 401 396 q 383 172 390 244 q 368 33 376 99 q 347 -82 360 -33 q 315 -178 335 -132 q 263 -258 294 -224 q 170 -324 224 -301 q 49 -347 117 -347 q -3 -343 24 -347 q -56 -328 -29 -339 l -19 -212 q 12 -219 -4 -217 q 49 -222 28 -222 q 164 -174 121 -222 q 218 -61 199 -132 z "},"≈":{"ha":806,"x_min":49,"x_max":757,"o":"m 757 540 q 726 477 744 508 q 681 420 707 446 q 622 378 656 394 q 546 363 588 363 q 458 381 497 363 q 386 423 419 400 q 324 465 353 446 q 265 485 294 485 q 230 475 246 485 q 200 450 214 465 q 175 415 186 435 q 156 378 164 396 l 49 432 q 80 494 61 463 q 124 552 99 526 q 184 594 150 578 q 260 610 218 610 q 347 590 308 610 q 419 548 386 571 q 482 506 453 525 q 540 488 511 488 q 575 497 558 488 q 606 522 592 507 q 631 556 619 538 q 650 594 642 575 l 757 540 m 757 290 q 726 227 744 258 q 681 170 707 196 q 622 128 656 144 q 546 113 588 113 q 458 131 497 113 q 386 173 419 150 q 324 215 353 196 q 265 235 294 235 q 230 225 246 235 q 200 200 214 215 q 175 165 186 185 q 156 128 164 146 l 49 182 q 80 244 61 213 q 124 302 99 276 q 184 344 150 328 q 260 360 218 360 q 347 340 308 360 q 419 298 386 321 q 482 256 453 275 q 540 238 511 238 q 575 247 558 238 q 606 272 592 257 q 631 306 619 288 q 650 344 642 325 l 757 290 z "},"≠":{"ha":750,"x_min":69,"x_max":681,"o":"m 410 549 l 494 694 l 639 694 l 554 549 l 681 549 l 681 424 l 483 424 l 411 299 l 681 299 l 681 174 l 339 174 l 256 28 l 111 28 l 194 174 l 69 174 l 69 299 l 267 299 l 339 424 l 69 424 l 69 549 l 410 549 z "},"≤":{"ha":757,"x_min":69,"x_max":681,"o":"m 681 153 l 681 28 l 69 28 l 69 153 l 681 153 m 681 329 l 681 197 l 69 403 l 69 486 l 681 692 l 681 560 l 339 444 l 681 329 z "},"≥":{"ha":757,"x_min":76,"x_max":688,"o":"m 688 153 l 688 28 l 76 28 l 76 153 l 688 153 m 418 444 l 76 560 l 76 692 l 688 486 l 688 403 l 76 197 l 76 329 l 418 444 z "},"◊":{"ha":764,"x_min":49,"x_max":715,"o":"m 49 444 l 49 528 l 336 972 l 428 972 l 715 528 l 715 444 l 428 0 l 336 0 l 49 444 m 171 486 l 382 157 l 593 486 l 382 815 l 171 486 z "},"ﬀ":{"ha":1049,"x_min":35,"x_max":1007,"o":"m 979 869 q 958 874 972 872 q 931 875 944 875 q 875 863 903 875 q 831 829 847 851 q 811 784 817 811 q 806 713 806 757 l 806 653 l 1007 653 l 1007 535 l 806 535 l 806 0 l 674 0 l 674 535 l 319 535 l 319 0 l 188 0 l 188 535 l 35 535 l 35 653 l 188 653 l 188 708 q 197 817 188 775 q 229 892 207 860 q 321 972 265 943 q 443 1000 376 1000 q 485 997 464 1000 q 521 990 507 994 l 493 869 q 472 874 486 872 q 444 875 458 875 q 389 863 417 875 q 344 829 361 851 q 325 784 331 811 q 319 713 319 757 l 319 653 l 674 653 l 674 708 q 683 817 674 775 q 715 892 693 860 q 807 972 751 943 q 929 1000 863 1000 q 972 997 950 1000 q 1007 990 993 994 l 979 869 z "},"ﬁ":{"ha":924,"x_min":35,"x_max":826,"o":"m 653 899 q 678 960 653 935 q 739 986 703 986 q 801 960 775 986 q 826 899 826 935 q 801 838 826 863 q 739 813 775 813 q 678 838 703 813 q 653 899 653 863 m 188 708 q 197 817 188 775 q 229 892 207 860 q 321 972 265 943 q 443 1000 376 1000 q 485 997 464 1000 q 521 990 507 994 l 493 869 q 472 874 486 872 q 444 875 458 875 q 389 863 417 875 q 344 829 361 851 q 325 784 331 811 q 319 713 319 757 l 319 653 l 806 653 l 806 0 l 674 0 l 674 535 l 319 535 l 319 0 l 188 0 l 188 535 l 35 535 l 35 653 l 188 653 l 188 708 z "},"ﬂ":{"ha":924,"x_min":35,"x_max":806,"o":"m 188 708 q 197 817 188 775 q 229 892 207 860 q 321 972 265 943 q 443 1000 376 1000 q 485 997 464 1000 q 521 990 507 994 l 493 869 q 472 874 486 872 q 444 875 458 875 q 389 863 417 875 q 344 829 361 851 q 325 784 331 811 q 319 713 319 757 l 319 653 l 674 653 l 674 986 l 806 986 l 806 0 l 674 0 l 674 535 l 319 535 l 319 0 l 188 0 l 188 535 l 35 535 l 35 653 l 188 653 l 188 708 z "},"ﬃ":{"ha":1410,"x_min":35,"x_max":1313,"o":"m 979 869 q 958 874 972 872 q 931 875 944 875 q 875 863 903 875 q 831 829 847 851 q 811 784 817 811 q 806 713 806 757 l 806 653 l 1292 653 l 1292 0 l 1160 0 l 1160 535 l 806 535 l 806 0 l 674 0 l 674 535 l 319 535 l 319 0 l 188 0 l 188 535 l 35 535 l 35 653 l 188 653 l 188 708 q 197 817 188 775 q 229 892 207 860 q 321 972 265 943 q 443 1000 376 1000 q 485 997 464 1000 q 521 990 507 994 l 493 869 q 472 874 486 872 q 444 875 458 875 q 389 863 417 875 q 344 829 361 851 q 325 784 331 811 q 319 713 319 757 l 319 653 l 674 653 l 674 708 q 683 817 674 775 q 715 892 693 860 q 807 972 751 943 q 929 1000 863 1000 q 972 997 950 1000 q 1007 990 993 994 l 979 869 m 1139 899 q 1164 960 1139 935 q 1225 986 1189 986 q 1287 960 1261 986 q 1313 899 1313 935 q 1287 838 1313 863 q 1225 813 1261 813 q 1164 838 1189 813 q 1139 899 1139 863 z "},"ﬄ":{"ha":1410,"x_min":35,"x_max":1292,"o":"m 979 869 q 958 874 972 872 q 931 875 944 875 q 875 863 903 875 q 831 829 847 851 q 811 784 817 811 q 806 713 806 757 l 806 653 l 1160 653 l 1160 986 l 1292 986 l 1292 0 l 1160 0 l 1160 535 l 806 535 l 806 0 l 674 0 l 674 535 l 319 535 l 319 0 l 188 0 l 188 535 l 35 535 l 35 653 l 188 653 l 188 708 q 197 817 188 775 q 229 892 207 860 q 321 972 265 943 q 443 1000 376 1000 q 485 997 464 1000 q 521 990 507 994 l 493 869 q 472 874 486 872 q 444 875 458 875 q 389 863 417 875 q 344 829 361 851 q 325 784 331 811 q 319 713 319 757 l 319 653 l 674 653 l 674 708 q 683 817 674 775 q 715 892 693 860 q 807 972 751 943 q 929 1000 863 1000 q 972 997 950 1000 q 1007 990 993 994 l 979 869 z "}}}
